<svg width="49" height="48" viewBox="0 0 49 48" fill="none" xmlns="http://www.w3.org/2000/svg">
<path fill-rule="evenodd" clip-rule="evenodd" d="M11.322 45.4737C11.4969 44.1499 12.8436 41.9342 11.7342 41.1841C7.06206 38.0262 1.75837 33.8571 2.00852 27.6132C2.1095 25.0825 2.85032 21.9518 4.65233 20.0656C5.87188 18.7897 8.14208 18.5509 9.3217 20.0857C10.5683 21.7089 9.53053 24.3196 9.40936 26.1341C9.31939 27.4885 9.71597 28.6646 11.2238 28.8568C11.6809 28.9152 12.1505 28.899 12.6076 28.8456C13.2388 28.7721 13.8419 28.5905 14.3862 28.261C16.1983 27.1631 17.1765 24.2155 17.2297 22.2138C17.2632 20.9407 16.8037 19.6329 15.4878 19.2371C13.443 18.6227 11.4014 21.1522 9.46121 20.0018C9.14037 19.8115 8.84754 19.5685 8.62676 19.2667C7.11897 17.2062 8.88336 15.0324 10.5757 13.8172C12.1996 12.6509 14.3137 11.6001 16.3512 11.5334C20.9021 11.3855 23.6051 15.9764 24.2096 19.9232C24.5373 16.0832 23.2315 12.2332 22.9515 8.42383C22.8285 6.74578 22.6513 4.82682 23.4849 3.28344C24.2119 1.93817 25.6812 1.58567 26.9475 2.53608C28.2543 3.51661 29.0658 5.18406 29.6276 6.66764C31.302 11.0883 31.5177 15.8976 30.4937 20.4583C31.8032 17.3451 33.0723 14.2061 34.3493 11.0792C34.9414 9.63073 35.4151 7.89435 36.4083 7.043C37.7844 5.86252 39.5556 6.27469 40.475 7.82446C41.2741 9.17156 41.3246 10.7607 41.1594 12.2795C40.828 15.3297 39.4973 18.2415 38.068 20.9193C36.4795 23.896 34.7904 26.8802 32.4871 29.3607C34.4411 27.7813 36.3009 26.174 38.0979 24.4169C39.7998 22.7526 41.8166 19.5759 44.2911 18.9473C46.1119 18.4849 46.9588 20.0128 46.9987 21.7059C47.0496 23.8536 45.5969 25.8859 44.2631 27.4494C41.561 30.6174 38.3563 33.353 34.8849 35.6546C33.7149 36.4306 32.5119 37.1573 31.2804 37.8329C30.7402 38.1292 29.7823 38.4063 29.366 38.8482C28.8886 39.3549 28.7036 40.3209 28.4971 40.9568C27.9624 42.6006 27.4281 44.2959 27.1229 46" fill="white"/>
<path d="M11.322 45.4737C11.4969 44.1499 12.8436 41.9342 11.7342 41.1841C7.06206 38.0262 1.75837 33.8571 2.00852 27.6132C2.1095 25.0825 2.85032 21.9518 4.65233 20.0656C5.87188 18.7897 8.14208 18.5509 9.3217 20.0857C10.5683 21.7089 9.53053 24.3196 9.40936 26.1341C9.31939 27.4885 9.71597 28.6646 11.2238 28.8568C11.6809 28.9152 12.1505 28.899 12.6076 28.8456C13.2388 28.7721 13.8419 28.5905 14.3862 28.261C16.1983 27.1631 17.1765 24.2155 17.2297 22.2138C17.2632 20.9407 16.8037 19.6329 15.4878 19.2371C13.443 18.6227 11.4014 21.1522 9.46121 20.0018C9.14037 19.8115 8.84754 19.5685 8.62676 19.2667C7.11897 17.2062 8.88336 15.0324 10.5757 13.8172C12.1996 12.6509 14.3137 11.6001 16.3512 11.5334C20.9021 11.3855 23.6051 15.9764 24.2096 19.9232C24.5373 16.0832 23.2315 12.2332 22.9515 8.42383C22.8285 6.74578 22.6513 4.82682 23.4849 3.28344C24.2119 1.93817 25.6812 1.58567 26.9475 2.53608C28.2543 3.51661 29.0658 5.18406 29.6276 6.66764C31.302 11.0883 31.5177 15.8976 30.4937 20.4583C31.8032 17.3451 33.0723 14.2061 34.3493 11.0792C34.9414 9.63073 35.4151 7.89435 36.4083 7.043C37.7844 5.86252 39.5556 6.27469 40.475 7.82446C41.2741 9.17156 41.3246 10.7607 41.1593 12.2795C40.828 15.3297 39.4973 18.2415 38.068 20.9193C36.4795 23.896 34.7904 26.8802 32.4871 29.3607C34.4411 27.7813 36.3009 26.174 38.0979 24.4169C39.7998 22.7526 41.8166 19.5759 44.2911 18.9473C46.1119 18.4849 46.9588 20.0128 46.9987 21.7059C47.0496 23.8536 45.5969 25.8859 44.2631 27.4494C41.561 30.6174 38.3563 33.353 34.8849 35.6546C33.7149 36.4306 32.5119 37.1573 31.2804 37.8329C30.7402 38.1292 29.7823 38.4063 29.366 38.8482C28.8886 39.3549 28.7036 40.3209 28.4971 40.9568C27.9624 42.6006 27.4281 44.2959 27.1228 46" stroke="#6176F6" stroke-width="2.6" stroke-miterlimit="1.5" stroke-linecap="round" stroke-linejoin="round"/>
</svg>
