<svg width="24" height="24" viewBox="0 0 24 24" fill="none" xmlns="http://www.w3.org/2000/svg">
<mask id="mask0_6522_7114" style="mask-type:alpha" maskUnits="userSpaceOnUse" x="0" y="0" width="24" height="24">
<rect width="24" height="24" fill="#D9D9D9"/>
</mask>
<g mask="url(#mask0_6522_7114)">
<path d="M2.98121 20.7488C2.87552 20.749 2.771 20.7268 2.67449 20.6837C2.57798 20.6406 2.49167 20.5776 2.42121 20.4988C2.33208 20.4003 2.27112 20.2796 2.24473 20.1494C2.21834 20.0192 2.22748 19.8843 2.27121 19.7588L3.45121 16.1988C2.35425 14.3826 2.00494 12.2116 2.47686 10.143C2.94879 8.07433 4.2051 6.26958 5.98121 5.10883C7.87969 3.80773 10.148 3.15537 12.4476 3.24909C14.7472 3.3428 16.9549 4.17757 18.7412 5.62883C19.5817 6.30768 20.2784 7.14724 20.7907 8.09846C21.303 9.04967 21.6206 10.0935 21.7249 11.1688C21.8291 12.2442 21.718 13.3295 21.3981 14.3614C21.0781 15.3933 20.5556 16.3511 19.8612 17.1788C18.3665 18.8724 16.3667 20.0404 14.1573 20.5104C11.9479 20.9803 9.64586 20.7274 7.59121 19.7888L3.14121 20.7288L2.98121 20.7488ZM7.68121 18.2488C7.79567 18.2516 7.9082 18.2789 8.01121 18.3288C9.77535 19.1905 11.7729 19.4517 13.6992 19.0726C15.6256 18.6934 17.3752 17.6948 18.6812 16.2288C19.2483 15.5503 19.6743 14.7654 19.9343 13.9202C20.1943 13.075 20.2832 12.1864 20.1957 11.3064C20.1081 10.4265 19.846 9.57279 19.4245 8.79537C19.0031 8.01795 18.4308 7.3324 17.7412 6.77883C16.2119 5.53354 14.3201 4.81756 12.3495 4.73823C10.3789 4.6589 8.43568 5.2205 6.81121 6.33883C6.06825 6.82298 5.42879 7.4498 4.92992 8.18295C4.43104 8.91611 4.08267 9.741 3.905 10.6098C3.72733 11.4786 3.7239 12.374 3.89491 13.2442C4.06592 14.1143 4.40796 14.9419 4.90121 15.6788C4.96467 15.7751 5.0057 15.8844 5.02127 15.9986C5.03685 16.1128 5.02658 16.2291 4.99121 16.3388L4.11121 18.9988L7.52121 18.2788L7.68121 18.2488Z" fill="#667085"/>
</g>
</svg>