<svg width="24" height="24" viewBox="0 0 24 24" fill="none" xmlns="http://www.w3.org/2000/svg">
<path d="M17 22.75H7C3.56 22.75 1.25 20.44 1.25 17V12C1.25 8.92 3.15 6.69001 6.1 6.32001C6.38 6.28001 6.69 6.25 7 6.25H17C17.24 6.25 17.55 6.26 17.87 6.31C20.82 6.65 22.75 8.89 22.75 12V17C22.75 20.44 20.44 22.75 17 22.75ZM7 7.75C6.76 7.75 6.53 7.76999 6.3 7.79999C4.1 8.07999 2.75 9.68 2.75 12V17C2.75 19.58 4.42 21.25 7 21.25H17C19.58 21.25 21.25 19.58 21.25 17V12C21.25 9.66 19.88 8.05001 17.66 7.79001C17.42 7.75001 17.21 7.75 17 7.75H7Z" fill="#667085"/>
<path d="M6.192 7.81001C5.952 7.81001 5.732 7.70001 5.582 7.50001C5.412 7.27001 5.392 6.97001 5.522 6.72001C5.692 6.38001 5.932 6.05001 6.242 5.75001L9.492 2.49C11.152 0.840002 13.852 0.840002 15.512 2.49L17.262 4.26002C18.002 4.99002 18.452 5.97002 18.502 7.01002C18.512 7.24002 18.422 7.46 18.252 7.61C18.082 7.76 17.852 7.83002 17.632 7.79002C17.432 7.76002 17.222 7.75001 17.002 7.75001H7.002C6.762 7.75001 6.532 7.77 6.302 7.8C6.272 7.81 6.232 7.81001 6.192 7.81001ZM7.862 6.25001H16.822C16.692 5.91001 16.482 5.60002 16.202 5.32002L14.442 3.54002C13.372 2.48002 11.622 2.48002 10.542 3.54002L7.862 6.25001Z" fill="#667085"/>
<path d="M22 17.25H19C17.48 17.25 16.25 16.02 16.25 14.5C16.25 12.98 17.48 11.75 19 11.75H22C22.41 11.75 22.75 12.09 22.75 12.5C22.75 12.91 22.41 13.25 22 13.25H19C18.31 13.25 17.75 13.81 17.75 14.5C17.75 15.19 18.31 15.75 19 15.75H22C22.41 15.75 22.75 16.09 22.75 16.5C22.75 16.91 22.41 17.25 22 17.25Z" fill="#667085"/>
</svg>
