<svg width="24" height="24" viewBox="0 0 24 24" fill="none"
                                    xmlns="http://www.w3.org/2000/svg">
                                    <mask id="mask0_6522_7043" style="mask-type:alpha" maskUnits="userSpaceOnUse"
                                        x="0" y="0" width="24" height="24">
                                        <rect width="24" height="24" fill="#D9D9D9" />
                                    </mask>
                                    <g mask="url(#mask0_6522_7043)">
                                        <path
                                            d="M12 22.5C11.8011 22.5 11.6103 22.421 11.4697 22.2803C11.329 22.1397 11.25 21.9489 11.25 21.75C11.25 21.5511 11.329 21.3603 11.4697 21.2197C11.6103 21.079 11.8011 21 12 21C14.3 21 16.16 20.3 16.9 19.5C16.1898 19.4692 15.5186 19.1666 15.0253 18.6547C14.5321 18.1428 14.2545 17.4609 14.25 16.75V13.75C14.2552 13.0223 14.5466 12.3258 15.0612 11.8112C15.5758 11.2966 16.2723 11.0052 17 11H18C18.4348 10.9971 18.8638 11.1001 19.25 11.3V10.75C19.25 9.79792 19.0625 8.85516 18.6981 7.97554C18.3338 7.09593 17.7997 6.2967 17.1265 5.62348C16.4533 4.95025 15.6541 4.41622 14.7745 4.05187C13.8948 3.68753 12.9521 3.5 12 3.5C11.0479 3.5 10.1052 3.68753 9.22554 4.05187C8.34593 4.41622 7.5467 4.95025 6.87348 5.62348C6.20025 6.2967 5.66622 7.09593 5.30187 7.97554C4.93753 8.85516 4.75 9.79792 4.75 10.75V11.3C5.13616 11.1001 5.56517 10.9971 6 11H7C7.72773 11.0052 8.42416 11.2966 8.93876 11.8112C9.45335 12.3258 9.74476 13.0223 9.75 13.75V16.75C9.74476 17.4777 9.45335 18.1742 8.93876 18.6888C8.42416 19.2034 7.72773 19.4948 7 19.5H6C5.27227 19.4948 4.57584 19.2034 4.06124 18.6888C3.54665 18.1742 3.25524 17.4777 3.25 16.75V10.75C3.25 8.42936 4.17187 6.20376 5.81282 4.56282C7.45376 2.92187 9.67936 2 12 2C14.3206 2 16.5462 2.92187 18.1872 4.56282C19.8281 6.20376 20.75 8.42936 20.75 10.75V16.75C20.7499 17.1109 20.6783 17.4681 20.5392 17.8011C20.4002 18.1341 20.1965 18.4362 19.94 18.69C19.5907 19.0543 19.1421 19.3081 18.65 19.42C18.11 21.22 15.43 22.5 12 22.5ZM17 12.5C16.6693 12.5026 16.3529 12.6352 16.119 12.869C15.8851 13.1029 15.7526 13.4193 15.75 13.75V16.75C15.7526 17.0807 15.8851 17.3971 16.119 17.631C16.3529 17.8649 16.6693 17.9974 17 18H18C18.3307 17.9974 18.6471 17.8649 18.881 17.631C19.1149 17.3971 19.2474 17.0807 19.25 16.75V13.75C19.2474 13.4193 19.1149 13.1029 18.881 12.869C18.6471 12.6352 18.3307 12.5026 18 12.5H17ZM4.75 13.75V16.75C4.75261 17.0807 4.88515 17.3971 5.11901 17.631C5.35286 17.8649 5.66929 17.9974 6 18H7C7.33071 17.9974 7.64714 17.8649 7.88099 17.631C8.11485 17.3971 8.24739 17.0807 8.25 16.75V13.75C8.24739 13.4193 8.11485 13.1029 7.88099 12.869C7.64714 12.6352 7.33071 12.5026 7 12.5H6C5.66929 12.5026 5.35286 12.6352 5.11901 12.869C4.88515 13.1029 4.75261 13.4193 4.75 13.75Z"
                                            fill="#667085" />
                                    </g>
                                </svg>