<svg width="24" height="24" viewBox="0 0 24 24" fill="none"
                                    xmlns="http://www.w3.org/2000/svg">
                                    <mask id="mask0_6523_7035" style="mask-type:alpha" maskUnits="userSpaceOnUse" x="0"
                                        y="0" width="24" height="24">
                                        <rect width="24" height="24" fill="#D9D9D9" />
                                    </mask>
                                    <g mask="url(#mask0_6523_7035)">
                                        <path
                                            d="M11.9793 21C10.4948 20.9991 9.03322 20.6344 7.72293 19.9382C6.36675 19.2152 5.21967 18.1564 4.39188 16.8635V19.4673C4.39188 19.6509 4.31876 19.8271 4.18862 19.9569C4.05847 20.0868 3.88196 20.1598 3.69791 20.1598C3.51386 20.1598 3.33734 20.0868 3.2072 19.9569C3.07705 19.8271 3.00394 19.6509 3.00394 19.4673V14.8506C3.00634 14.6677 3.08022 14.4929 3.20985 14.3636C3.33948 14.2342 3.5146 14.1605 3.69791 14.1581H8.32437C8.50842 14.1581 8.68493 14.2311 8.81508 14.3609C8.94522 14.4908 9.01834 14.6669 9.01834 14.8506C9.01834 15.0343 8.94522 15.2104 8.81508 15.3403C8.68493 15.4701 8.50842 15.5431 8.32437 15.5431H5.22464C6.07617 17.1672 7.48471 18.4314 9.19303 19.1049C10.9013 19.7784 12.7954 19.8163 14.5294 19.2116C16.2634 18.6069 17.7215 17.3999 18.6375 15.8112C19.5536 14.2225 19.8663 12.3579 19.5187 10.5581C19.1711 8.75833 18.1864 7.14334 16.7443 6.0081C15.3022 4.87286 13.499 4.29312 11.664 4.37476C9.82901 4.45641 8.08467 5.19398 6.74954 6.45278C5.41441 7.71158 4.57758 9.40761 4.39188 11.2311C4.37225 11.4148 4.2803 11.5832 4.13628 11.6992C3.99225 11.8152 3.80794 11.8694 3.62388 11.8498C3.43983 11.8302 3.27112 11.7384 3.15486 11.5947C3.03859 11.451 2.98431 11.2671 3.00394 11.0834C3.17277 9.44185 3.79051 7.87817 4.78966 6.56324C5.78881 5.24831 7.13093 4.23272 8.66936 3.62745C10.2078 3.02217 11.8834 2.8505 13.5129 3.13119C15.1425 3.41188 16.6635 4.13414 17.9095 5.21903C19.1556 6.30393 20.0789 7.70972 20.5785 9.2828C21.0781 10.8559 21.1347 12.5357 20.7423 14.1388C20.3499 15.7418 19.5235 17.2064 18.3533 18.3725C17.1832 19.5386 15.7144 20.3613 14.1074 20.7507C13.4101 20.9158 12.6959 20.9994 11.9793 21ZM13.8299 14.6198C13.7387 14.6202 13.6483 14.6025 13.5641 14.5676C13.4799 14.5327 13.4035 14.4814 13.3395 14.4166L11.4889 12.57C11.3587 12.4402 11.2855 12.2642 11.2853 12.0806V8.38728C11.2853 8.20362 11.3584 8.02748 11.4886 7.89761C11.6187 7.76774 11.7952 7.69478 11.9793 7.69478C12.1633 7.69478 12.3398 7.76774 12.47 7.89761C12.6001 8.02748 12.6732 8.20362 12.6732 8.38728V11.7944L14.3203 13.4379C14.4502 13.5678 14.5232 13.7438 14.5232 13.9273C14.5232 14.1108 14.4502 14.2868 14.3203 14.4166C14.2562 14.4814 14.1798 14.5327 14.0956 14.5676C14.0114 14.6025 13.921 14.6202 13.8299 14.6198Z"
                                            fill="#667085" />
                                    </g>
                                </svg>