<svg width="43" height="44" viewBox="0 0 43 44" fill="none" xmlns="http://www.w3.org/2000/svg">
<path fill-rule="evenodd" clip-rule="evenodd" d="M35.1972 20.088C34.4397 20.0745 32.2658 20.0453 31.5091 20.088C30.4704 17.93 28.8321 16.2634 26.6724 15.2438C25.352 14.6201 23.7345 14.4387 22.6445 13.3883C22.2232 12.9829 21.913 12.4415 21.6448 11.8704C20.6704 9.79506 20.1616 7.61521 19.4151 5.45677C19.0451 4.38578 18.5787 3.07471 17.5916 2.41525C15.5756 1.0688 13.7371 3.27038 13.3113 5.1143C12.5017 8.62288 13.4977 12.3876 15.1071 15.5228C11.6221 15.1795 8.02852 15.129 4.60949 15.9936C2.98748 16.4035 1.26331 17.3376 1.13062 19.2226C1.037 20.5481 1.62961 21.9563 2.59753 22.8501C2.9146 23.1424 3.95293 23.8293 3.94764 23.8334C3.9159 23.8576 3.36479 25.6704 3.24024 26.3887C2.86577 28.5492 4.31234 30.1779 6.31777 30.6688C4.75152 32.5131 5.94493 36.2106 8.70458 36.5814C8.58492 40.7375 13.3976 40.9517 16.2761 41.2066C24.0528 41.8953 26.5255 41.3081 31.7338 40.0106C32.311 39.8667 34.8127 39.6991 35.4074 39.6978" fill="white"/>
<path d="M35.1972 20.088C34.4397 20.0745 32.2658 20.0453 31.5091 20.088C30.4704 17.93 28.8321 16.2634 26.6724 15.2438C25.352 14.6201 23.7345 14.4387 22.6445 13.3883C22.2232 12.9829 21.913 12.4415 21.6448 11.8704C20.6704 9.79506 20.1616 7.61521 19.4151 5.45677C19.0451 4.38578 18.5787 3.07471 17.5916 2.41525C15.5756 1.0688 13.7371 3.27038 13.3113 5.1143C12.5017 8.62288 13.4977 12.3876 15.1071 15.5228C11.6221 15.1795 8.02852 15.129 4.60949 15.9936C2.98748 16.4035 1.26331 17.3376 1.13062 19.2226C1.037 20.5481 1.62961 21.9563 2.59753 22.8501C2.9146 23.1424 3.95293 23.8293 3.94764 23.8334C3.9159 23.8576 3.36479 25.6704 3.24024 26.3887C2.86577 28.5492 4.31234 30.1779 6.31777 30.6688C4.75152 32.5131 5.94493 36.2106 8.70458 36.5814C8.58492 40.7375 13.3976 40.9517 16.2761 41.2066C24.0528 41.8953 26.5255 41.3081 31.7338 40.0106C32.311 39.8667 34.8127 39.6991 35.4074 39.6978" stroke="#FFA500" stroke-width="2.2" stroke-miterlimit="1.5" stroke-linecap="round" stroke-linejoin="round"/>
<path fill-rule="evenodd" clip-rule="evenodd" d="M40.8819 17.114C39.2752 17.1005 36.5517 16.3823 35.2103 17.5651C34.3757 18.3012 34.9172 20.9392 34.9337 21.9752C34.9996 26.1479 34.9887 30.3214 34.9891 34.4946C34.9891 36.2349 34.2199 39.6385 35.5939 41.0167C36.8711 42.2977 39.4949 41.94 41.1209 41.9893" fill="white"/>
<path d="M40.8819 17.114C39.2752 17.1005 36.5517 16.3823 35.2103 17.5651C34.3757 18.3012 34.9172 20.9392 34.9337 21.9752C34.9996 26.1479 34.9887 30.3214 34.9891 34.4946C34.9891 36.2349 34.2199 39.6385 35.5939 41.0167C36.8711 42.2977 39.4949 41.94 41.1209 41.9893" stroke="#FFA500" stroke-width="2.2" stroke-miterlimit="1.5" stroke-linecap="round" stroke-linejoin="round"/>
</svg>
