<svg width="32" height="32" viewBox="0 0 32 32" fill="none" xmlns="http://www.w3.org/2000/svg">
<path d="M31.9998 30.5903C31.9995 29.4609 31.3279 28.4453 30.2886 28.0032L22.3169 24.6116V22.624C23.1609 21.5645 23.6946 20.3025 23.8733 18.9475H25.5029C27.0537 18.9475 28.3154 17.6858 28.3154 16.135V12.103C28.3154 10.6851 27.2603 9.50952 25.894 9.31836C25.6914 3.21851 22.281 0 16 0C9.71899 0 6.30859 3.21851 6.10596 9.31836C4.73975 9.50952 3.68457 10.6851 3.68457 12.103V16.135C3.68457 17.6858 4.94629 18.9475 6.49707 18.9475H8.12671C8.30542 20.3027 8.83911 21.5647 9.68311 22.624V24.6116L1.71167 28.0032C0.672119 28.4453 0.000488281 29.4609 0 30.5906V31.062C0 31.3108 0.0986328 31.5493 0.274658 31.7251C0.450439 31.9009 0.688965 31.9998 0.9375 31.9998H31.0625C31.3113 31.9998 31.5498 31.9009 31.7256 31.7251C31.9014 31.5491 32 31.3105 32 31.062L31.9998 30.5903ZM20.4429 25.2693C20.4436 25.2917 20.4961 27.5671 19.1521 28.9668C18.4141 29.7351 17.3535 30.1245 16 30.1245C14.6514 30.1245 13.5935 29.7378 12.856 28.9751C11.4958 27.5681 11.5566 25.2891 11.5571 25.2693C11.5579 25.2566 11.5581 25.2441 11.5581 25.2314V24.3032C12.8418 25.1155 14.373 25.5518 16 25.5518C17.627 25.5518 19.1582 25.1155 20.4419 24.3032V25.2314C20.4419 25.2441 20.4421 25.2566 20.4429 25.2693V25.2693ZM22.0654 17.5083L20.282 18.6975C19.7156 19.0752 19.0562 19.2749 18.375 19.2749H16.7893C16.2717 19.2749 15.8518 19.6946 15.8518 20.2124C15.8518 20.7302 16.2717 21.1499 16.7893 21.1499H18.375C19.4275 21.1499 20.4468 20.8413 21.3223 20.2573L21.6812 20.0181C20.8352 22.2009 18.6716 23.6768 16 23.6768C12.5422 23.6768 9.93457 21.2048 9.93457 17.9268V10.3264C10.3042 8.60815 10.8396 7.51611 11.4851 7.16602C12.1279 6.81689 13.062 7.17993 13.9653 7.53076C14.6692 7.80396 15.334 8.06226 16 8.06226C16.6721 8.06226 17.3289 7.80127 18.0244 7.52515C18.9287 7.16577 19.783 6.82642 20.4158 7.15649C20.877 7.39697 21.5344 8.14575 22.0654 10.3384V17.5083ZM26.4404 12.103V16.135C26.4404 16.6519 26.0198 17.0725 25.5029 17.0725H23.9404V11.1655H25.5029C26.0198 11.1655 26.4404 11.5862 26.4404 12.103V12.103ZM9.65234 4.17163C10.9507 2.64771 13.0862 1.875 16 1.875C18.9138 1.875 21.0493 2.64771 22.3477 4.17163C23.3699 5.37158 23.9299 7.09204 24.0166 9.29053H23.729C23.1628 7.27979 22.3772 6.0647 21.2827 5.4939C19.8884 4.76685 18.4709 5.32983 17.332 5.78247C16.8311 5.98145 16.313 6.18726 15.9998 6.18726C15.6851 6.18726 15.1558 5.98169 14.644 5.78296C13.4648 5.32471 11.9971 4.75464 10.5906 5.51782C9.53003 6.09351 8.76221 7.33154 8.25366 9.29053H7.9834C8.06982 7.09204 8.63013 5.37158 9.65234 4.17163ZM5.55957 16.135V12.103C5.55957 11.5862 5.98022 11.1655 6.49707 11.1655H8.05957V17.0725H6.49707C5.98022 17.0725 5.55957 16.6519 5.55957 16.135ZM2.44556 29.7285L9.79053 26.6035C9.95508 27.6208 10.3638 29.0051 11.3657 30.1248H1.99902C2.09839 29.9512 2.25317 29.8103 2.44556 29.7285V29.7285ZM20.6343 30.1248C21.6362 29.0051 22.0449 27.6208 22.2095 26.6035L29.5544 29.7285C29.7468 29.8103 29.9014 29.9512 30.001 30.1248H20.6343Z" fill="#667085"/>
</svg>
