<svg width="28" height="28" viewBox="0 0 28 28" fill="none" xmlns="http://www.w3.org/2000/svg">
<path d="M28 14C28 21.7228 21.7228 28 14 28C6.27721 28 -2.74386e-07 21.7228 -6.11959e-07 14C-9.49533e-07 6.27721 6.27721 -2.74386e-07 14 -6.11959e-07C21.7228 -9.49533e-07 28 6.27721 28 14ZM1.95349 14C1.95349 20.6419 7.35814 26.0465 14 26.0465C20.6419 26.0465 26.0465 20.6419 26.0465 14C26.0465 7.35814 20.6419 1.95349 14 1.95349C7.35814 1.95349 1.95349 7.35814 1.95349 14Z" fill="#667085"/>
<path d="M17.9205 14C17.9205 14.2475 17.8293 14.4949 17.634 14.6902L13.0368 19.2875C12.6591 19.6651 12.034 19.6651 11.6563 19.2875C11.2786 18.9098 11.2786 18.2847 11.6563 17.907L15.5633 14L11.6563 10.093C11.2786 9.71536 11.2786 9.09025 11.6563 8.71257C12.034 8.3349 12.6591 8.3349 13.0368 8.71257L17.634 13.3098C17.8293 13.5051 17.9205 13.7526 17.9205 14Z" fill="#667085"/>
</svg>
