<svg width="52" height="52" viewBox="0 0 52 52" fill="none" xmlns="http://www.w3.org/2000/svg">
    <circle cx="26" cy="26" r="26" fill="#FFF5EA"/>
    <path d="M23.6665 36.2398C22.6511 36.0095 21.6758 35.6284 20.7732 35.1093M28.3332 15.7601C30.6527 16.2899 32.7236 17.5914 34.2069 19.4517C35.6902 21.312 36.498 23.6207 36.498 26C36.498 28.3792 35.6902 30.688 34.2069 32.5482C32.7236 34.4085 30.6527 35.71 28.3332 36.2398M17.342 31.9418C16.7056 31.0172 16.2222 29.9961 15.9105 28.9178M15.6445 24.25C15.8312 23.1416 16.1905 22.0916 16.6945 21.1291L16.8917 20.7733M20.058 17.3421C21.1496 16.5907 22.3742 16.0538 23.6665 15.7601M22.4998 26L24.8332 28.3333L29.4998 23.6666" stroke="#FFA500" stroke-width="2.2" stroke-linecap="round" stroke-linejoin="round"/>
</svg>