<svg width="48" height="48" viewBox="0 0 48 48" fill="none" xmlns="http://www.w3.org/2000/svg">
<path d="M46.5938 0H40.9688C40.1921 0 39.5625 0.629625 39.5625 1.40625V2.8125H27.9769C27.3964 1.17581 25.8333 0 24 0C22.1667 0 20.6036 1.17581 20.0231 2.8125H8.4375V1.40625C8.4375 0.629625 7.80788 0 7.03125 0H1.40625C0.629625 0 0 0.629625 0 1.40625V7.03125C0 7.80788 0.629625 8.4375 1.40625 8.4375H7.03125C7.80788 8.4375 8.4375 7.80788 8.4375 7.03125V5.60625H14.2853C9.21197 8.81944 6.12797 14.2477 5.757 20.0102C4.10044 20.5798 2.90625 22.1526 2.90625 24C2.90625 26.3262 4.79878 28.2188 7.125 28.2188C9.45122 28.2188 11.3438 26.3262 11.3438 24C11.3438 22.1831 10.1892 20.6308 8.57531 20.0381C9.07463 13.415 13.8439 7.71056 20.2215 6.09206C20.9128 7.48069 22.3463 8.4375 24 8.4375C25.6537 8.4375 27.0872 7.48069 27.7785 6.09216C34.1562 7.71066 38.9254 13.4151 39.4247 20.0382C37.8108 20.6308 36.6562 22.1831 36.6562 24C36.6562 26.3262 38.5488 28.2188 40.875 28.2188C43.2012 28.2188 45.0938 26.3262 45.0938 24C45.0938 22.1526 43.8996 20.5798 42.243 20.0102C41.8713 14.2361 38.7781 8.83191 33.7147 5.625H39.5625V7.03125C39.5625 7.80788 40.1921 8.4375 40.9688 8.4375H46.5938C47.3704 8.4375 48 7.80788 48 7.03125V1.40625C48 0.629625 47.3704 0 46.5938 0ZM5.625 5.625H2.8125V2.8125H5.625V5.625ZM7.125 25.4062C6.34959 25.4062 5.71875 24.7754 5.71875 24C5.71875 23.2246 6.34959 22.5938 7.125 22.5938C7.90041 22.5938 8.53125 23.2246 8.53125 24C8.53125 24.7754 7.90041 25.4062 7.125 25.4062ZM24 5.625C23.2246 5.625 22.5938 4.99416 22.5938 4.21875C22.5938 3.44334 23.2246 2.8125 24 2.8125C24.7754 2.8125 25.4062 3.44334 25.4062 4.21875C25.4062 4.99416 24.7754 5.625 24 5.625ZM40.875 22.5938C41.6504 22.5938 42.2812 23.2246 42.2812 24C42.2812 24.7754 41.6504 25.4062 40.875 25.4062C40.0996 25.4062 39.4688 24.7754 39.4688 24C39.4688 23.2246 40.0996 22.5938 40.875 22.5938ZM45.1875 5.625H42.375V2.8125H45.1875V5.625Z" fill="#6176F6"/>
<path d="M36.42 28.8449L25.17 11.97C25.1696 11.9694 25.1691 11.9689 25.1688 11.9682C25.1647 11.9622 25.1603 11.9565 25.1562 11.9506C25.1369 11.9226 25.1166 11.8956 25.0954 11.8692C24.5028 11.1329 23.3744 11.1826 22.8438 11.9506C22.8396 11.9565 22.8352 11.9622 22.8312 11.9682C22.8308 11.9689 22.8304 11.9694 22.83 11.97L11.58 28.845C11.2081 29.4027 11.2817 30.1454 11.7557 30.6194C14.5613 33.4251 16.3471 37.0926 16.8336 41.0164C16.6152 41.1929 16.4044 41.3819 16.2045 41.5865C14.8836 42.9376 14.1562 44.7159 14.1562 46.5938C14.1562 47.3704 14.7859 48 15.5625 48H32.4375C33.2141 48 33.8437 47.3704 33.8437 46.5938C33.8437 44.7159 33.1163 42.9376 31.7956 41.5864C31.5956 41.3818 31.3849 41.1928 31.1664 41.0163C31.6528 37.0923 33.4386 33.4248 36.2442 30.6194C36.7183 30.1454 36.7919 29.4026 36.42 28.8449ZM24 28.2188C24.7754 28.2188 25.4062 28.8496 25.4062 29.625C25.4062 30.4004 24.7754 31.0313 24 31.0313C23.2246 31.0313 22.5937 30.4004 22.5937 29.625C22.5937 28.8496 23.2246 28.2188 24 28.2188ZM17.2086 45.1875C17.7936 43.5157 19.3797 42.2813 21.1875 42.2813H26.8125C28.6203 42.2813 30.2063 43.5157 30.7914 45.1875H17.2086ZM28.523 39.6828C27.9698 39.5416 27.3965 39.4688 26.8125 39.4688H21.1875C20.6035 39.4688 20.0301 39.5416 19.477 39.6829C18.8189 35.8927 17.1097 32.3497 14.5411 29.4736L22.5937 17.3946V25.6482C20.957 26.2287 19.7812 27.7918 19.7812 29.6251C19.7812 31.9513 21.6738 33.8439 24 33.8439C26.3262 33.8439 28.2187 31.9513 28.2187 29.6251C28.2187 27.7918 27.043 26.2287 25.4062 25.6482V17.3946L33.459 29.4736C30.8902 32.3494 29.181 35.8925 28.523 39.6828Z" fill="#6176F6"/>
</svg>
