<svg width="48" height="48" viewBox="0 0 48 48" fill="none" xmlns="http://www.w3.org/2000/svg">
<path d="M43.7812 0.09375H4.21875C1.89253 0.09375 0 1.98628 0 4.3125V38.0625C0 40.3887 1.89253 42.2812 4.21875 42.2812C12.6108 42.2812 11.8582 42.2827 11.9648 42.2782L15.0509 45.3643C15.5995 45.9131 16.4906 45.9135 17.0396 45.3643L18.5438 43.86C18.9471 44.0531 19.3599 44.2244 19.7812 44.3734V46.5C19.7812 47.2766 20.4108 47.9062 21.1874 47.9062H26.8124C27.589 47.9062 28.2187 47.2766 28.2187 46.5V44.3734C28.6399 44.2244 29.0527 44.0531 29.456 43.86L30.9602 45.3643C31.5088 45.9131 32.3999 45.9135 32.9489 45.3643L36.0322 42.2812H43.7812C46.1075 42.2812 48 40.3887 48 38.0625V4.3125C48 1.98628 46.1075 0.09375 43.7812 0.09375ZM4.21875 2.90625H43.7812C44.5567 2.90625 45.1875 3.53709 45.1875 4.3125V11.3438H2.8125V4.3125C2.8125 3.53709 3.44334 2.90625 4.21875 2.90625ZM31.9547 42.3812L30.7085 41.135C30.2543 40.6807 29.5499 40.5922 28.9975 40.9193C28.2056 41.3884 27.3527 41.7422 26.4624 41.9711C25.8408 42.1309 25.4062 42.6913 25.4062 43.3331V45.0938H22.5938V43.3331C22.5938 42.6913 22.1592 42.131 21.5376 41.9712C20.6473 41.7424 19.7944 41.3885 19.0025 40.9194C18.4498 40.592 17.7457 40.6808 17.2915 41.1351L16.0453 42.3813L14.0562 40.3922L15.3024 39.146C15.7567 38.6918 15.8453 37.9877 15.5181 37.435C15.049 36.6431 14.6952 35.7902 14.4663 34.8999C14.3066 34.2783 13.7462 33.8438 13.1044 33.8438H11.3438V31.0312H13.1044C13.7462 31.0312 14.3065 30.5967 14.4663 29.9751C14.6951 29.0848 15.049 28.2319 15.5181 27.44C15.8453 26.8873 15.7567 26.1832 15.3024 25.729L14.0562 24.4828L16.0453 22.4937L17.2915 23.7399C17.7456 24.1942 18.4499 24.2827 19.0025 23.9556C19.7944 23.4865 20.6473 23.1327 21.5376 22.9038C22.1592 22.744 22.5938 22.1836 22.5938 21.5419V19.7812H25.4062V21.5419C25.4062 22.1837 25.8408 22.744 26.4624 22.9038C27.3527 23.1326 28.2056 23.4865 28.9975 23.9556C29.55 24.2828 30.2543 24.1941 30.7085 23.7399L31.9547 22.4937L33.9438 24.4828L32.6976 25.729C32.2433 26.1832 32.1547 26.8873 32.4819 27.44C32.951 28.2319 33.3048 29.0848 33.5337 29.9751C33.6935 30.5967 34.2539 31.0312 34.8956 31.0312H36.6562V33.8438H34.8956C34.2538 33.8438 33.6935 34.2783 33.5337 34.8999C33.3049 35.7902 32.951 36.6431 32.4819 37.435C32.1547 37.9877 32.2433 38.6918 32.6976 39.146L33.9438 40.3922L31.9547 42.3812ZM43.7812 39.4688H36.9911C36.9199 39.3871 37.0722 39.5431 35.4226 37.8936C35.6157 37.4903 35.787 37.0775 35.936 36.6562H38.0625C38.8391 36.6562 39.4688 36.0266 39.4688 35.25V29.625C39.4688 28.8484 38.8391 28.2188 38.0625 28.2188H35.9359C35.7869 27.7975 35.6156 27.3847 35.4225 26.9814L36.9268 25.4772C37.4756 24.9286 37.476 24.0375 36.9268 23.4885L32.9489 19.5106C32.4003 18.9618 31.5092 18.9614 30.9602 19.5106L29.456 21.0149C29.0527 20.8218 28.6399 20.6505 28.2187 20.5015V18.375C28.2187 17.5984 27.589 16.9688 26.8124 16.9688H21.1874C20.4108 16.9688 19.7812 17.5984 19.7812 18.375V20.5016C19.3599 20.6506 18.9471 20.8219 18.5438 21.015L17.0396 19.5107C16.491 18.9619 15.5999 18.9615 15.0509 19.5107L11.073 23.4886C10.5242 24.0372 10.5238 24.9283 11.073 25.4773L12.5773 26.9815C12.3842 27.3848 12.2129 27.7976 12.0639 28.2188H9.9375C9.16088 28.2188 8.53125 28.8485 8.53125 29.6251V35.2501C8.53125 36.0267 9.16088 36.6563 9.9375 36.6563H12.0641C12.2131 37.0776 12.3844 37.4904 12.5775 37.8937C10.9279 39.5432 11.0802 39.3871 11.009 39.4688H4.21875C3.44334 39.4688 2.8125 38.838 2.8125 38.0626V14.1562H45.1875V38.0625C45.1875 38.8379 44.5567 39.4688 43.7812 39.4688Z" fill="#FFA500"/>
<path d="M24 25.4062C20.123 25.4062 16.9688 28.5605 16.9688 32.4375C16.9688 36.3145 20.123 39.4688 24 39.4688C27.877 39.4688 31.0312 36.3145 31.0312 32.4375C31.0312 28.5605 27.877 25.4062 24 25.4062ZM24 36.6562C21.6738 36.6562 19.7812 34.7637 19.7812 32.4375C19.7812 30.1113 21.6738 28.2188 24 28.2188C26.3262 28.2188 28.2188 30.1113 28.2188 32.4375C28.2188 34.7637 26.3262 36.6562 24 36.6562Z" fill="#FFA500"/>
<path d="M7.125 8.53125C7.90165 8.53125 8.53125 7.90165 8.53125 7.125C8.53125 6.34835 7.90165 5.71875 7.125 5.71875C6.34835 5.71875 5.71875 6.34835 5.71875 7.125C5.71875 7.90165 6.34835 8.53125 7.125 8.53125Z" fill="#FFA500"/>
<path d="M12.75 8.53125C13.5267 8.53125 14.1562 7.90165 14.1562 7.125C14.1562 6.34835 13.5267 5.71875 12.75 5.71875C11.9733 5.71875 11.3438 6.34835 11.3438 7.125C11.3438 7.90165 11.9733 8.53125 12.75 8.53125Z" fill="#FFA500"/>
<path d="M18.375 8.53125C19.1517 8.53125 19.7812 7.90165 19.7812 7.125C19.7812 6.34835 19.1517 5.71875 18.375 5.71875C17.5983 5.71875 16.9688 6.34835 16.9688 7.125C16.9688 7.90165 17.5983 8.53125 18.375 8.53125Z" fill="#FFA500"/>
<path d="M32.4375 8.53125H40.875C41.6516 8.53125 42.2812 7.90163 42.2812 7.125C42.2812 6.34837 41.6516 5.71875 40.875 5.71875H32.4375C31.6609 5.71875 31.0312 6.34837 31.0312 7.125C31.0312 7.90163 31.6609 8.53125 32.4375 8.53125Z" fill="#FFA500"/>
</svg>
