<svg width="28" height="28" viewBox="0 0 28 28" fill="none" xmlns="http://www.w3.org/2000/svg">
<path d="M17.7796 26.5416H10.2196C8.01463 26.5416 6.40463 25.62 5.7863 24.0333C5.14463 22.3766 5.73963 20.3233 7.27963 18.935L12.693 14L7.27963 9.06498C5.73963 7.67665 5.14463 5.62331 5.7863 3.96665C6.40463 2.36831 8.01463 1.45831 10.2196 1.45831H17.7796C19.9846 1.45831 21.5946 2.37998 22.213 3.96665C22.8546 5.62331 22.2596 7.67665 20.7196 9.06498L15.3063 14L20.7313 18.935C22.2596 20.3233 22.8663 22.3766 22.2246 24.0333C21.5946 25.62 19.9846 26.5416 17.7796 26.5416ZM13.9996 15.1783L8.45796 20.2183C7.47796 21.1166 7.0463 22.4233 7.41963 23.3916C7.76963 24.29 8.7613 24.7916 10.2196 24.7916H17.7796C19.238 24.7916 20.2296 24.3016 20.5796 23.3916C20.953 22.4233 20.533 21.1166 19.5413 20.2183L13.9996 15.1783ZM10.2196 3.20831C8.7613 3.20831 7.76963 3.69831 7.41963 4.60831C7.0463 5.57665 7.4663 6.88331 8.45796 7.78165L13.9996 12.8216L19.5413 7.78165C20.5213 6.88331 20.953 5.57665 20.5796 4.60831C20.2296 3.70998 19.238 3.20831 17.7796 3.20831H10.2196Z" fill="#FFA500"/>
</svg>
