<svg width="24" height="24" viewBox="0 0 24 24" fill="none" xmlns="http://www.w3.org/2000/svg">
<path d="M17 21.75H7C2.59 21.75 1.25 20.41 1.25 16V8C1.25 3.59 2.59 2.25 7 2.25H17C21.41 2.25 22.75 3.59 22.75 8V16C22.75 20.41 21.41 21.75 17 21.75ZM7 3.75C3.42 3.75 2.75 4.43 2.75 8V16C2.75 19.57 3.42 20.25 7 20.25H17C20.58 20.25 21.25 19.57 21.25 16V8C21.25 4.43 20.58 3.75 17 3.75H7Z" fill="#667085"/>
<path d="M19 8.75H14C13.59 8.75 13.25 8.41 13.25 8C13.25 7.59 13.59 7.25 14 7.25H19C19.41 7.25 19.75 7.59 19.75 8C19.75 8.41 19.41 8.75 19 8.75Z" fill="#667085"/>
<path d="M19 12.75H15C14.59 12.75 14.25 12.41 14.25 12C14.25 11.59 14.59 11.25 15 11.25H19C19.41 11.25 19.75 11.59 19.75 12C19.75 12.41 19.41 12.75 19 12.75Z" fill="#667085"/>
<path d="M19 16.75H17C16.59 16.75 16.25 16.41 16.25 16C16.25 15.59 16.59 15.25 17 15.25H19C19.41 15.25 19.75 15.59 19.75 16C19.75 16.41 19.41 16.75 19 16.75Z" fill="#667085"/>
<path d="M8.50141 12.04C7.09141 12.04 5.94141 10.89 5.94141 9.48C5.94141 8.07 7.09141 6.92 8.50141 6.92C9.91141 6.92 11.0614 8.07 11.0614 9.48C11.0614 10.89 9.91141 12.04 8.50141 12.04ZM8.50141 8.42C7.92141 8.42 7.44141 8.9 7.44141 9.48C7.44141 10.06 7.92141 10.54 8.50141 10.54C9.08141 10.54 9.56141 10.06 9.56141 9.48C9.56141 8.9 9.08141 8.42 8.50141 8.42Z" fill="#667085"/>
<path d="M12.0019 17.08C11.6219 17.08 11.2919 16.79 11.2519 16.4C11.1419 15.32 10.2719 14.45 9.18186 14.35C8.72186 14.31 8.26186 14.31 7.80186 14.35C6.71186 14.45 5.84186 15.31 5.73186 16.4C5.69186 16.81 5.32186 17.12 4.91186 17.07C4.50186 17.03 4.20186 16.66 4.24186 16.25C4.42186 14.45 5.85186 13.02 7.66186 12.86C8.21186 12.81 8.77186 12.81 9.32186 12.86C11.1219 13.03 12.5619 14.46 12.7419 16.25C12.7819 16.66 12.4819 17.03 12.0719 17.07C12.0519 17.08 12.0219 17.08 12.0019 17.08Z" fill="#667085"/>
</svg>
