<svg width="28" height="28" viewBox="0 0 28 28" fill="none" xmlns="http://www.w3.org/2000/svg">
<path d="M24.8048 5.06821L20.1316 0.404388C19.8704 0.143555 19.5228 0 19.1534 0H5.83875C4.1571 0 2.78906 1.36612 2.78906 3.0452V24.9548C2.78906 26.6339 4.1571 28 5.83875 28H22.1613C23.8429 28 25.2109 26.6339 25.2109 24.9548V6.04681C25.2109 5.67703 25.0667 5.32947 24.8048 5.06821ZM20.2075 2.79782L22.4073 4.99323H20.4591C20.3203 4.99323 20.2075 4.8815 20.2075 4.74393V2.79782ZM22.1613 26.3594H5.83875C5.0618 26.3594 4.42969 25.7294 4.42969 24.9548V3.0452C4.42969 2.2706 5.0618 1.64062 5.83875 1.64062H18.5668V4.74393C18.5668 5.78619 19.4156 6.63385 20.4589 6.63385H23.5703V24.9548C23.5703 25.7294 22.9382 26.3594 22.1613 26.3594Z" fill="#FFA500"/>
<path d="M9.74515 18.3666H18.2614C18.935 18.3666 19.4832 17.8185 19.4832 17.1449V14.9124C19.4832 13.3694 18.3283 12.0908 16.8376 11.8958C17.1284 11.4055 17.2957 10.8336 17.2957 10.2235V8.54553C17.2957 6.73294 15.821 5.2583 14.0084 5.2583H13.9982C12.1856 5.2583 10.7109 6.73294 10.7109 8.54553V10.2235C10.7109 10.8336 10.8782 11.4055 11.1689 11.8958C9.67828 12.0908 8.52344 13.3694 8.52344 14.9124V17.1449C8.52344 17.8185 9.07159 18.3666 9.74515 18.3666ZM12.3516 8.54553C12.3516 7.63763 13.0903 6.89893 13.9982 6.89893H14.0084C14.9163 6.89893 15.655 7.63763 15.655 8.54553V10.2235C15.655 11.1314 14.9163 11.8701 14.0084 11.8701H13.9982C13.0903 11.8701 12.3516 11.1314 12.3516 10.2235V8.54553ZM10.1641 14.9126C10.1641 14.1395 10.793 13.5108 11.5659 13.5108H16.4407C17.2136 13.5108 17.8423 14.1397 17.8423 14.9126V16.726H10.1641V14.9126Z" fill="#FFA500"/>
<path d="M18.9004 19.9873H9.34375C8.89066 19.9873 8.52344 20.3545 8.52344 20.8076C8.52344 21.2607 8.89066 21.6279 9.34375 21.6279H18.9004C19.3533 21.6279 19.7207 21.2607 19.7207 20.8076C19.7207 20.3545 19.3535 19.9873 18.9004 19.9873Z" fill="#FFA500"/>
<path d="M16.7129 22.7217H11.5312C11.0782 22.7217 10.7109 23.0889 10.7109 23.542C10.7109 23.9951 11.0782 24.3623 11.5312 24.3623H16.7129C17.1658 24.3623 17.5332 23.9951 17.5332 23.542C17.5332 23.0889 17.166 22.7217 16.7129 22.7217Z" fill="#FFA500"/>
</svg>
