<svg width="33" height="32" viewBox="0 0 33 32" fill="none" xmlns="http://www.w3.org/2000/svg">
<g clip-path="url(#clip0_1185_6028)">
<path d="M27.8125 20.1232H25.9375C25.4197 20.1232 25 20.543 25 21.0607C25 21.5785 25.4197 21.9982 25.9375 21.9982H27.8125C28.3303 21.9982 28.75 21.5785 28.75 21.0607C28.75 20.543 28.3303 20.1232 27.8125 20.1232Z" fill="#667085"/>
<path d="M27.8125 23.8732H20.3125C19.7947 23.8732 19.375 24.293 19.375 24.8107C19.375 25.3285 19.7947 25.7482 20.3125 25.7482H27.8125C28.3303 25.7482 28.75 25.3285 28.75 24.8107C28.75 24.293 28.3303 23.8732 27.8125 23.8732Z" fill="#667085"/>
<path d="M20.1875 6.25H16.4375C15.9197 6.25 15.5 6.66975 15.5 7.1875V8.75H13.625V4.6875C13.625 4.16975 13.2053 3.75 12.6875 3.75H8.9375C8.41975 3.75 8 4.16975 8 4.6875V11.25H5.1875C4.66975 11.25 4.25 11.6697 4.25 12.1875V15.9375C4.25 16.4553 4.66975 16.875 5.1875 16.875H20.1875C20.7053 16.875 21.125 16.4553 21.125 15.9375V7.1875C21.125 6.66975 20.7053 6.25 20.1875 6.25ZM8 15H6.125V13.125H8V15ZM11.75 15H9.875V5.625H11.75V15ZM15.5 15H13.625V10.625H15.5V15ZM19.25 15H17.375V8.125H19.25V15Z" fill="#667085"/>
<path d="M29.6875 16.3732H24.875V3.4375C24.875 1.539 23.336 0 21.4375 0H3.9375C2.039 0 0.5 1.539 0.5 3.4375V23.4375C0.5 24.2384 1.4395 24.6706 2.04762 24.1493L6.15931 20.625H15.625V26.6857C15.625 28.2391 16.8842 29.4982 18.4375 29.4982H28.1086L30.9768 31.7928C31.5906 32.2839 32.4999 31.8469 32.4999 31.0607V19.1857C32.5 17.6324 31.2408 16.3732 29.6875 16.3732ZM5.8125 18.75C5.58869 18.75 5.37231 18.8301 5.20237 18.9757L2.375 21.3992V3.4375C2.375 2.57456 3.07456 1.875 3.9375 1.875H21.4375C22.3004 1.875 23 2.57456 23 3.4375V17.1875C23 18.0504 22.3004 18.75 21.4375 18.75H5.8125ZM30.625 29.1102L29.0231 27.8287C28.8569 27.6957 28.6504 27.6232 28.4375 27.6232H18.4375C17.9197 27.6232 17.5 27.2035 17.5 26.6857V20.625H21.4375C22.9657 20.625 24.2603 19.6274 24.7074 18.2482H29.6875C30.2053 18.2482 30.625 18.668 30.625 19.1857V29.1102Z" fill="#667085"/>
</g>
<defs>
<clipPath id="clip0_1185_6028">
<rect width="32" height="32" fill="white" transform="translate(0.5)"/>
</clipPath>
</defs>
</svg>
