<svg width="32" height="32" viewBox="0 0 32 32" fill="none" xmlns="http://www.w3.org/2000/svg">
<g clip-path="url(#clip0_6634_15473)">
<path d="M31.7253 23.6809C31.5496 23.5051 31.311 23.4062 31.0625 23.4062H29.4646V7.40625C29.4646 6.88843 29.0449 6.46875 28.5271 6.46875H16.937V3.9375C16.937 3.41968 16.5173 3 15.9995 3H0.937745C0.420166 3 0.000244592 3.41968 0.000244592 3.9375V15.2373C0.000244592 15.7549 0.420166 16.1748 0.937745 16.1748H2.5354V23.4062H0.9375C0.688721 23.4062 0.450196 23.5051 0.274415 23.6809C0.0986333 23.8569 -0.00024369 24.0955 4.5104e-07 24.3442L0.000244592 24.9702C0.000977014 27.2095 1.82349 29.0312 4.06274 29.0312H27.9375C30.1775 29.0312 32 27.209 32 24.969V24.3438C32 24.0952 31.9014 23.8567 31.7253 23.6809V23.6809ZM1.87524 4.875H15.062V14.2998H1.87524V4.875ZM15.9995 16.1748C16.5173 16.1748 16.937 15.7551 16.937 15.2373V8.34375H27.5896V23.3772H25.75V20.5642C25.75 19.5103 25.1667 18.5903 24.3064 18.1086C24.5615 17.6658 24.7085 17.1528 24.7085 16.606C24.7085 14.9404 23.3533 13.5852 21.6875 13.5852C20.022 13.5852 18.6667 14.9402 18.6667 16.606C18.6667 17.1528 18.8135 17.6658 19.0686 18.1086C18.2083 18.5903 17.625 19.5103 17.625 20.5642V23.3772H4.4104V16.1748H15.9995ZM20.5417 16.606C20.5417 15.9741 21.0557 15.4602 21.6875 15.4602C22.3193 15.4602 22.8335 15.9741 22.8335 16.606C22.8335 17.2378 22.3193 17.7517 21.6875 17.7517C21.0557 17.7517 20.5417 17.2378 20.5417 16.606V16.606ZM19.5 20.5642C19.5 20.0474 19.9207 19.6267 20.4375 19.6267H22.9375C23.4546 19.6267 23.875 20.0474 23.875 20.5642V23.3572H19.5V20.5642ZM27.9375 27.1562H4.06274C2.96265 27.1562 2.04956 26.3398 1.89746 25.2812H30.1028C29.9507 26.3401 29.0376 27.1562 27.9375 27.1562V27.1562Z" fill="#667085"/>
<path d="M12.25 6.75024H4.6875C4.16992 6.75024 3.75 7.16992 3.75 7.68774C3.75 8.20532 4.16992 8.62524 4.6875 8.62524H12.25C12.7676 8.62524 13.1875 8.20532 13.1875 7.68774C13.1875 7.16992 12.7676 6.75024 12.25 6.75024Z" fill="#667085"/>
<path d="M9.75 10.5002H4.6875C4.16992 10.5002 3.75 10.9199 3.75 11.4377C3.75 11.9553 4.16992 12.3752 4.6875 12.3752H9.75C10.2676 12.3752 10.6875 11.9553 10.6875 11.4377C10.6875 10.9199 10.2676 10.5002 9.75 10.5002Z" fill="#667085"/>
</g>
<defs>
<clipPath id="clip0_6634_15473">
<rect width="32" height="32" fill="white"/>
</clipPath>
</defs>
</svg>
