<svg width="48" height="48" viewBox="0 0 48 48" fill="none" xmlns="http://www.w3.org/2000/svg">
<rect x="0.5" y="0.5" width="47" height="47" rx="5.5" fill="white" stroke="#E5EAF0"/>
<path d="M24.0026 12.3335C17.5696 12.3335 12.3359 17.5672 12.3359 24.0002C12.3359 30.4332 17.5696 35.6668 24.0026 35.6668C30.4356 35.6668 35.6693 30.4332 35.6693 24.0002C35.6693 17.5672 30.4356 12.3335 24.0026 12.3335ZM24.0026 33.3335C18.8564 33.3335 14.6693 29.1463 14.6693 24.0002C14.6693 18.854 18.8564 14.6668 24.0026 14.6668C29.1488 14.6668 33.3359 18.854 33.3359 24.0002C33.3359 29.1463 29.1488 33.3335 24.0026 33.3335Z" fill="#3AB8EB"/>
<path d="M19.9193 24.0002C20.8858 24.0002 21.6693 23.2167 21.6693 22.2502C21.6693 21.2837 20.8858 20.5002 19.9193 20.5002C18.9528 20.5002 18.1693 21.2837 18.1693 22.2502C18.1693 23.2167 18.9528 24.0002 19.9193 24.0002Z" fill="#3AB8EB"/>
<path d="M28.0778 23.9838C29.0398 23.9838 29.8196 23.204 29.8196 22.242C29.8196 21.28 29.0398 20.5002 28.0778 20.5002C27.1158 20.5002 26.3359 21.28 26.3359 22.242C26.3359 23.204 27.1158 23.9838 28.0778 23.9838Z" fill="#3AB8EB"/>
<path d="M24.0026 31.0002C28.6693 31.0002 29.8359 26.3335 29.8359 26.3335H18.1693C18.1693 26.3335 19.3359 31.0002 24.0026 31.0002Z" fill="#3AB8EB"/>
</svg>
