<svg width="32" height="30" viewBox="0 0 32 30" fill="none" xmlns="http://www.w3.org/2000/svg">
<path d="M23.5625 0.687012C18.9101 0.687012 15.125 4.47207 15.125 9.12451C15.125 13.7769 18.9101 17.562 23.5625 17.562C28.2149 17.562 32 13.7769 32 9.12451C32 4.47207 28.2149 0.687012 23.5625 0.687012ZM23.5625 15.687C19.9439 15.687 17 12.7431 17 9.12451C17 5.50595 19.9439 2.56201 23.5625 2.56201C27.1811 2.56201 30.125 5.50595 30.125 9.12451C30.125 12.7431 27.1811 15.687 23.5625 15.687Z" fill="#FF8D29"/>
<path d="M21.2188 7.24951C21.7365 7.24951 22.1562 6.82978 22.1562 6.31201C22.1562 5.79424 21.7365 5.37451 21.2188 5.37451C20.701 5.37451 20.2812 5.79424 20.2812 6.31201C20.2812 6.82978 20.701 7.24951 21.2188 7.24951Z" fill="#FF8D29"/>
<path d="M25.9062 12.8745C26.424 12.8745 26.8438 12.4548 26.8438 11.937C26.8438 11.4192 26.424 10.9995 25.9062 10.9995C25.3885 10.9995 24.9688 11.4192 24.9688 11.937C24.9688 12.4548 25.3885 12.8745 25.9062 12.8745Z" fill="#FF8D29"/>
<path d="M26.5064 5.59182C26.1087 5.26038 25.5175 5.31407 25.1861 5.71188L20.4986 11.3369C20.1671 11.7346 20.2209 12.3258 20.6186 12.6573C21.0154 12.9879 21.6068 12.9359 21.939 12.5372L26.6265 6.9122C26.9579 6.51445 26.9042 5.92332 26.5064 5.59182Z" fill="#FF8D29"/>
<path d="M27.5532 18.6834L23.4734 21.6967C23.0754 21.981 22.6392 22.1971 22.1828 22.3432C22.4252 21.6415 22.3841 20.8893 22.0631 20.2163C21.7311 19.5205 21.1456 19.003 20.4121 18.7585L12.2675 16.0638C9.81631 15.2465 6.51881 15.6 4.3175 17.5621H0.9375C0.41975 17.5621 0 17.9818 0 18.4996V27.8746C0 28.3923 0.41975 28.8121 0.9375 28.8121H4.6875C5.20525 28.8121 5.625 28.3923 5.625 27.8746V27.174L12.9781 28.8449C14.3191 29.1519 15.6934 29.3131 16.9651 29.3131C17.0232 29.3131 17.0812 29.3127 17.1389 29.3121C20.6971 29.2704 24.1337 28.1372 27.0772 26.0349L30.8225 23.2606C32.1338 22.3241 32.3909 20.4737 31.384 19.2151C30.4511 18.0489 28.7684 17.8154 27.5532 18.6834ZM3.75 26.937H1.875V19.437H3.75V26.937ZM29.7327 21.7347L25.9874 24.509C23.3574 26.3874 20.2901 27.3999 17.1169 27.4371C15.9438 27.4511 14.6566 27.3056 13.3951 27.0168L5.625 25.2512V18.9086C7.64506 17.1552 10.4337 17.4289 11.6766 17.8432L19.8211 20.5379C20.0649 20.6191 20.2601 20.7916 20.3707 21.0236C20.4814 21.2555 20.4926 21.5157 20.4024 21.7563C20.2245 22.2306 19.7088 22.4767 19.2281 22.3165C19.2272 22.3162 19.2262 22.316 19.2252 22.3157L13.4812 20.4217C12.9896 20.2596 12.4594 20.5267 12.2972 21.0184C12.1351 21.5102 12.4023 22.0402 12.894 22.2024L18.6735 24.1081C20.6587 24.7697 22.8604 24.4387 24.5631 23.2224L28.6429 20.2091C29.0479 19.9197 29.6088 19.9976 29.9197 20.3862C30.2549 20.8051 30.1725 21.4206 29.7327 21.7347Z" fill="#FF8D29"/>
</svg>
