<svg width="385" height="257" viewBox="0 0 385 257" fill="none" xmlns="http://www.w3.org/2000/svg">
<path opacity="0.04" d="M192.979 123.178C192 121.271 190.824 119.484 189.457 117.866C161.84 85.1761 114.516 70.2771 63.0492 54.3571C32.5348 44.9191 7.99991 37.5296 8 8M192.979 123.178C203.35 143.403 191.376 177.111 146.395 164.905C120.181 157.792 106.427 129.077 138.915 120.4C158.009 115.3 176.763 117.446 192.979 123.178ZM192.979 123.178C204.715 127.327 215.122 133.355 223.364 139.874C263.418 171.558 271.413 218.871 329.327 242.352C335.421 244.822 342.56 246.954 349.562 248.206C386.546 254.818 386.039 217.914 348.66 219.863" stroke="black" stroke-width="15" stroke-miterlimit="1.5" stroke-linecap="square" stroke-linejoin="round"/>
</svg>
