<svg width="421" height="260" viewBox="0 0 421 260" fill="none" xmlns="http://www.w3.org/2000/svg">
<g opacity="0.04">
<mask id="mask0_1094_5390" style="mask-type:alpha" maskUnits="userSpaceOnUse" x="0" y="0" width="421" height="260">
<rect width="421" height="260" rx="16" fill="#FFA500"/>
</mask>
<g mask="url(#mask0_1094_5390)">
<path d="M467 220L95.9504 157.385C65.7301 152.308 60.6267 117.531 88.5454 106.362L143.582 84.3615C161.595 77.1692 163.996 56.3538 148.085 46.2846C124.97 31.5615 92.4481 33.8462 72.4346 51.5308L70.3332 53.3923C62.5279 60.3308 64.129 71.5 73.5353 76.6615C79.8396 80.0462 87.945 79.8769 93.9491 76.1538C105.857 68.7077 105.257 53.4769 92.6482 46.7923L30.0061 13.7077C24.4023 10.7462 21 5.58462 21 0" stroke="black" stroke-width="15" stroke-miterlimit="10"/>
</g>
</g>
</svg>
