<svg width="53" height="54" viewBox="0 0 53 54" fill="none" xmlns="http://www.w3.org/2000/svg">
<path fill-rule="evenodd" clip-rule="evenodd" d="M0.185042 26.4027C11.693 3.2236 37.0684 -0.756086 48.2738 0.106757C49.3061 0.186243 50.0762 1.05963 49.994 2.05751C49.9118 3.0554 49.0083 3.79991 47.976 3.72042C37.5409 2.91689 14.1197 6.71364 3.56579 27.9713C3.11772 28.8738 1.99769 29.2543 1.06412 28.8211C0.130556 28.388 -0.263022 27.3052 0.185042 26.4027Z" fill="#FFCE45"/>
<path fill-rule="evenodd" clip-rule="evenodd" d="M8.77538 39.9695C13.1808 20.436 31.096 13.1611 39.4505 11.9307C40.458 11.7824 41.395 12.4788 41.5434 13.4863C41.6918 14.4938 40.9953 15.4308 39.9878 15.5791C32.3848 16.6989 16.3012 23.3624 12.3728 40.7808C12.1487 41.7742 11.1618 42.3979 10.1684 42.1739C9.17502 41.9498 8.55134 40.9629 8.77538 39.9695Z" fill="#FFCE45"/>
<path fill-rule="evenodd" clip-rule="evenodd" d="M25.6748 51.5389C23.9405 35.9437 35.3437 25.9952 41.2013 22.9547C42.1051 22.4855 43.2182 22.8379 43.6873 23.7417C44.1565 24.6455 43.8041 25.7586 42.9003 26.2277C37.7169 28.9183 27.8453 37.691 29.34 51.1313C29.4525 52.1434 28.7233 53.0551 27.7112 53.1677C26.6991 53.2802 25.7874 52.551 25.6748 51.5389Z" fill="#FFCE45"/>
</svg>
