<svg width="156" height="32" viewBox="0 0 156 32" fill="none" xmlns="http://www.w3.org/2000/svg">
<path d="M44.1906 4.4713C45.7484 6.24693 47.7909 8.67525 48.9932 10.6214M48.9932 10.6214C49.1318 10.8456 47.1017 11.1383 47.0063 11.1446C44.9142 11.2843 42.8478 11.1713 40.7416 11.0155M48.9932 10.6214C38.5016 2.7436 25.1211 2.08702 18.3951 7.63206C17.7285 8.18164 17.0036 8.78047 16.3455 9.43849M16.3455 9.43849C15.2974 10.4864 14.4185 11.6844 14.2136 13.0726C14.0246 14.3539 14.3842 16.1306 15.5974 17.0227C17.8639 18.6889 21.0034 17.0167 20.9943 14.5606C20.9864 12.4022 18.7044 9.83197 16.3455 9.43849ZM16.3455 9.43849C16.2957 9.43019 16.2459 9.42286 16.1961 9.41652C4.17457 7.88677 -1.16222 19.3679 1.80441 28" stroke="#FFA500" stroke-miterlimit="1.5" stroke-linecap="round" stroke-linejoin="round"/>
<path d="M63.3086 24.7148C63.3451 24.5326 63.5729 24.3594 63.9922 24.1953C64.4115 24.0312 64.931 23.8581 65.5508 23.6758C66.1706 23.4935 66.8542 23.293 67.6016 23.0742C68.349 22.8555 69.069 22.6094 69.7617 22.3359C70.4544 22.0625 71.0833 21.7526 71.6484 21.4062C72.2318 21.0599 72.6602 20.6589 72.9336 20.2031C72.9336 19.9297 72.7513 19.7201 72.3867 19.5742C72.0404 19.4284 71.5664 19.3099 70.9648 19.2188C70.3815 19.1094 69.707 19.0273 68.9414 18.9727C68.194 18.8997 67.4193 18.8086 66.6172 18.6992C65.8333 18.5716 65.0586 18.4258 64.293 18.2617C63.5456 18.0794 62.8711 17.8333 62.2695 17.5234C61.6862 17.1953 61.2122 16.7852 60.8477 16.293C60.5013 15.8008 60.3281 15.1992 60.3281 14.4883C60.3281 13.7773 60.4831 13.0755 60.793 12.3828C61.1029 11.6719 61.513 10.9883 62.0234 10.332C62.5521 9.67578 63.1445 9.0651 63.8008 8.5C64.4753 7.9349 65.1771 7.44271 65.9062 7.02344C66.6354 6.60417 67.3555 6.27604 68.0664 6.03906C68.7956 5.80208 69.4701 5.68359 70.0898 5.68359C70.2539 5.68359 70.4271 5.68359 70.6094 5.68359C70.7917 5.66536 70.9466 5.67448 71.0742 5.71094C71.2201 5.72917 71.3385 5.79297 71.4297 5.90234C71.5208 6.01172 71.5664 6.17578 71.5664 6.39453C71.5664 6.92318 71.3932 7.30599 71.0469 7.54297C70.7005 7.76172 70.2812 7.87109 69.7891 7.87109L68.7227 7.10547C68.3034 7.10547 67.8385 7.22396 67.3281 7.46094C66.8359 7.69792 66.3255 8.01693 65.7969 8.41797C65.2865 8.80078 64.7852 9.2474 64.293 9.75781C63.8008 10.2682 63.3633 10.7969 62.9805 11.3438C62.6159 11.8906 62.3151 12.4375 62.0781 12.9844C61.8594 13.5312 61.75 14.0234 61.75 14.4609C61.75 15.099 61.9232 15.6185 62.2695 16.0195C62.6341 16.4023 63.1081 16.7122 63.6914 16.9492C64.293 17.168 64.9766 17.332 65.7422 17.4414C66.5078 17.5508 67.2826 17.6419 68.0664 17.7148C68.8503 17.7878 69.625 17.8607 70.3906 17.9336C71.1562 17.9883 71.8307 18.0977 72.4141 18.2617C73.0156 18.4258 73.4896 18.6445 73.8359 18.918C74.2005 19.1914 74.3828 19.5651 74.3828 20.0391C74.5833 20.3307 74.5378 20.668 74.2461 21.0508C73.9727 21.4154 73.5352 21.7891 72.9336 22.1719C72.3503 22.5365 71.6484 22.9102 70.8281 23.293C70.026 23.6576 69.1966 23.9948 68.3398 24.3047C67.4831 24.5964 66.6536 24.8516 65.8516 25.0703C65.0495 25.2708 64.3659 25.3984 63.8008 25.4531C63.6367 25.4531 63.4909 25.3984 63.3633 25.2891C63.2539 25.1797 63.2357 24.9883 63.3086 24.7148ZM83.625 25.2891C83.5339 24.8151 83.4518 24.25 83.3789 23.5938C83.3242 22.9193 83.2604 22.2448 83.1875 21.5703C83.1146 20.8776 83.0234 20.2305 82.9141 19.6289C82.8229 19.0273 82.6771 18.5352 82.4766 18.1523C81.5469 20.0482 80.7266 21.543 80.0156 22.6367C79.3047 23.7122 78.6758 24.487 78.1289 24.9609C77.6003 25.4167 77.1536 25.6354 76.7891 25.6172C76.4245 25.599 76.1237 25.4349 75.8867 25.125C75.6497 24.8151 75.4766 24.4232 75.3672 23.9492C75.276 23.457 75.2122 23.0013 75.1758 22.582C75.1758 22.181 75.2669 21.6159 75.4492 20.8867C75.6315 20.1576 75.8776 19.3646 76.1875 18.5078C76.4974 17.6328 76.862 16.7487 77.2812 15.8555C77.7188 14.9622 78.1836 14.151 78.6758 13.4219C79.168 12.6927 79.6784 12.0911 80.207 11.6172C80.7357 11.1432 81.2643 10.9062 81.793 10.9062C82.5768 10.7786 83.151 10.9518 83.5156 11.4258C83.8984 11.8815 83.9714 12.6562 83.7344 13.75C83.7344 14.9531 83.7799 15.9831 83.8711 16.8398C83.9805 17.6966 84.0898 18.5169 84.1992 19.3008C84.3268 20.0846 84.4362 20.9049 84.5273 21.7617C84.6367 22.6185 84.6914 23.6484 84.6914 24.8516C84.6914 25.0703 84.6641 25.2617 84.6094 25.4258C84.5729 25.5716 84.3542 25.6445 83.9531 25.6445C83.8984 25.6445 83.8255 25.599 83.7344 25.5078C83.6615 25.4167 83.625 25.3438 83.625 25.2891ZM82.1484 13.0664C81.9479 12.7747 81.6745 12.7474 81.3281 12.9844C80.9818 13.2214 80.6172 13.6133 80.2344 14.1602C79.8516 14.707 79.4596 15.3633 79.0586 16.1289C78.6576 16.8945 78.2839 17.6693 77.9375 18.4531C77.5911 19.237 77.2904 19.9844 77.0352 20.6953C76.7799 21.388 76.6068 21.9622 76.5156 22.418C76.5156 23.0742 76.6159 23.4479 76.8164 23.5391C77.0169 23.612 77.263 23.5026 77.5547 23.2109C77.8464 22.9193 78.1745 22.5 78.5391 21.9531C78.9219 21.4062 79.2865 20.8229 79.6328 20.2031C79.9974 19.5833 80.3346 18.9818 80.6445 18.3984C80.9727 17.8151 81.2279 17.3411 81.4102 16.9766C81.5742 16.5938 81.7018 16.2383 81.793 15.9102C81.8841 15.582 81.957 15.2721 82.0117 14.9805C82.0846 14.6706 82.1211 14.3607 82.1211 14.0508C82.1393 13.7409 82.1484 13.4128 82.1484 13.0664ZM85.7578 14.8164C85.7578 14.7982 85.7487 14.7708 85.7305 14.7344C85.7305 14.6797 85.7305 14.6432 85.7305 14.625C85.7305 14.3516 85.8398 14.1966 86.0586 14.1602C86.2773 14.1055 86.4779 14.0781 86.6602 14.0781C86.8607 14.0781 87.0885 14.2513 87.3438 14.5977C87.599 14.9258 87.8815 15.3724 88.1914 15.9375C88.5195 16.4844 88.8477 17.0859 89.1758 17.7422C89.5221 18.3984 89.8685 19.0456 90.2148 19.6836C90.5794 20.3034 90.944 20.8685 91.3086 21.3789C91.6914 21.8893 92.056 22.263 92.4023 22.5C92.5117 20.8411 92.5938 19.4284 92.6484 18.2617C92.7031 17.0951 92.7396 16.1107 92.7578 15.3086C92.7943 14.5065 92.8125 13.8776 92.8125 13.4219C92.8125 12.9479 92.8034 12.5833 92.7852 12.3281C92.7852 12.0729 92.776 11.9089 92.7578 11.8359C92.7578 11.7448 92.7578 11.681 92.7578 11.6445C92.7578 11.3164 92.8125 11.1159 92.9219 11.043C93.0495 10.9701 93.2135 10.9336 93.4141 10.9336C93.651 10.9336 93.8971 10.9701 94.1523 11.043C94.4076 11.1159 94.5352 11.2982 94.5352 11.5898C94.5898 12.7747 94.5898 13.9779 94.5352 15.1992C94.4987 16.4023 94.4349 17.6055 94.3438 18.8086C94.2526 19.9935 94.1797 21.1602 94.125 22.3086C94.0703 23.457 94.0703 24.569 94.125 25.6445C94.0885 25.681 94.0065 25.7266 93.8789 25.7812C93.7513 25.8177 93.6146 25.8542 93.4688 25.8906C93.3229 25.9271 93.1771 25.9544 93.0312 25.9727C92.9036 25.9909 92.8125 26 92.7578 26C92.5755 25.9635 92.293 25.7174 91.9102 25.2617C91.5273 24.7878 91.099 24.1953 90.625 23.4844C90.151 22.7734 89.6589 21.9805 89.1484 21.1055C88.638 20.2305 88.1458 19.3828 87.6719 18.5625C87.2161 17.7422 86.8151 16.9948 86.4688 16.3203C86.1224 15.6458 85.8854 15.1445 85.7578 14.8164ZM96.832 20.0938C96.7409 20.112 96.6042 20.1393 96.4219 20.1758C96.2396 20.2122 96.0482 20.2214 95.8477 20.2031C95.6471 20.1849 95.474 20.1302 95.3281 20.0391C95.1641 19.9479 95.082 19.793 95.082 19.5742C95.082 19.4466 95.1094 19.3555 95.1641 19.3008C95.2188 19.2461 95.3099 19.1641 95.4375 19.0547C95.8385 18.7266 96.1758 18.3073 96.4492 17.7969C96.7409 17.2682 97.0052 16.7122 97.2422 16.1289C97.4792 15.5273 97.7253 14.9349 97.9805 14.3516C98.2539 13.75 98.5638 13.2122 98.9102 12.7383C99.2565 12.2643 99.6849 11.8815 100.195 11.5898C100.706 11.2982 101.335 11.1615 102.082 11.1797C102.392 11.1797 102.738 11.2526 103.121 11.3984C103.504 11.5443 103.859 11.7448 104.188 12C104.516 12.237 104.789 12.5286 105.008 12.875C105.227 13.2214 105.336 13.6042 105.336 14.0234C105.427 14.1693 105.336 14.3789 105.062 14.6523C104.807 14.9258 104.452 15.2266 103.996 15.5547C103.54 15.8646 103.021 16.1927 102.438 16.5391C101.872 16.8672 101.326 17.1771 100.797 17.4688C100.268 17.7604 99.8034 18.0156 99.4023 18.2344C99.0013 18.4531 98.737 18.6172 98.6094 18.7266C98.5182 18.9089 98.4453 19.1185 98.3906 19.3555C98.3359 19.5924 98.2904 19.8203 98.2539 20.0391C98.2357 20.2396 98.2174 20.431 98.1992 20.6133C98.1992 20.7773 98.1992 20.9049 98.1992 20.9961C98.1992 21.3424 98.181 21.7253 98.1445 22.1445C98.1263 22.5638 98.1445 22.9648 98.1992 23.3477C98.2721 23.7122 98.4271 24.0221 98.6641 24.2773C98.901 24.5143 99.3021 24.6328 99.8672 24.6328C100.469 24.6328 101.034 24.487 101.562 24.1953C102.091 23.8854 102.583 23.5117 103.039 23.0742C103.495 22.6367 103.905 22.1628 104.27 21.6523C104.652 21.1419 104.99 20.668 105.281 20.2305C105.591 19.7747 105.865 19.401 106.102 19.1094C106.339 18.8177 106.539 18.6719 106.703 18.6719C106.885 18.6719 107.077 18.7083 107.277 18.7812C107.496 18.8359 107.605 18.9818 107.605 19.2188C107.605 19.5469 107.469 19.9388 107.195 20.3945C106.94 20.8503 106.594 21.3333 106.156 21.8438C105.737 22.3542 105.245 22.8646 104.68 23.375C104.133 23.8672 103.577 24.3138 103.012 24.7148C102.447 25.0977 101.891 25.4167 101.344 25.6719C100.797 25.9089 100.314 26.0273 99.8945 26.0273C99.0742 26.0273 98.4544 25.8268 98.0352 25.4258C97.6159 25.0247 97.3151 24.5234 97.1328 23.9219C96.9688 23.3203 96.8776 22.6823 96.8594 22.0078C96.8594 21.3151 96.8503 20.6771 96.832 20.0938ZM101.863 12.7109C101.553 12.7109 101.225 12.8659 100.879 13.1758C100.533 13.4674 100.204 13.832 99.8945 14.2695C99.6029 14.6888 99.3568 15.1263 99.1562 15.582C98.974 16.0195 98.8828 16.3841 98.8828 16.6758C99.1562 16.6758 99.5482 16.5755 100.059 16.375C100.587 16.1562 101.107 15.8919 101.617 15.582C102.128 15.2721 102.574 14.944 102.957 14.5977C103.34 14.2513 103.531 13.9232 103.531 13.6133C103.531 13.4492 103.467 13.3125 103.34 13.2031C103.212 13.0938 103.057 13.0026 102.875 12.9297C102.711 12.8568 102.538 12.8021 102.355 12.7656C102.173 12.7292 102.009 12.7109 101.863 12.7109ZM125.516 25.125C125.516 24.8333 125.671 24.5326 125.98 24.2227C126.309 23.9128 126.701 23.5846 127.156 23.2383C127.63 22.8737 128.15 22.4909 128.715 22.0898C129.28 21.6706 129.79 21.224 130.246 20.75C130.72 20.2578 131.112 19.7383 131.422 19.1914C131.75 18.6263 131.914 18.0247 131.914 17.3867C131.914 16.931 131.814 16.5573 131.613 16.2656C131.431 15.9557 131.194 15.7188 130.902 15.5547C130.611 15.3906 130.273 15.2812 129.891 15.2266C129.526 15.1536 129.161 15.1172 128.797 15.1172C128.396 15.0807 128.013 15.1445 127.648 15.3086C127.302 15.4544 126.947 15.6367 126.582 15.8555C126.236 16.056 125.889 16.2747 125.543 16.5117C125.215 16.7305 124.887 16.9128 124.559 17.0586C124.249 17.1862 123.939 17.2318 123.629 17.1953C123.337 17.1589 123.036 16.9948 122.727 16.7031V16.6211C122.727 16.5664 122.736 16.5391 122.754 16.5391L127.621 10.9609C128.15 10.2318 128.414 9.66667 128.414 9.26562C128.432 8.86458 128.286 8.60026 127.977 8.47266C127.685 8.32682 127.275 8.29948 126.746 8.39062C126.217 8.48177 125.671 8.65495 125.105 8.91016C124.559 9.14714 124.03 9.44792 123.52 9.8125C123.009 10.1771 122.635 10.5599 122.398 10.9609C122.38 10.9609 122.344 10.9701 122.289 10.9883C122.253 10.9883 122.225 10.9883 122.207 10.9883C121.988 10.9883 121.779 10.8971 121.578 10.7148C121.396 10.5143 121.305 10.3047 121.305 10.0859C121.305 9.83073 121.451 9.57552 121.742 9.32031C122.034 9.04688 122.408 8.79167 122.863 8.55469C123.319 8.29948 123.829 8.0625 124.395 7.84375C124.96 7.625 125.516 7.43359 126.062 7.26953C126.609 7.10547 127.12 6.97786 127.594 6.88672C128.068 6.77734 128.432 6.72266 128.688 6.72266C129.161 6.95964 129.471 7.26953 129.617 7.65234C129.763 8.01693 129.79 8.4362 129.699 8.91016C129.626 9.36589 129.462 9.84896 129.207 10.3594C128.97 10.8698 128.688 11.3711 128.359 11.8633C128.049 12.3555 127.73 12.8294 127.402 13.2852C127.074 13.7409 126.801 14.1328 126.582 14.4609C126.965 14.224 127.375 14.1055 127.812 14.1055C128.268 14.0872 128.706 14.0781 129.125 14.0781C129.599 14.0781 130.082 14.1419 130.574 14.2695C131.066 14.3971 131.513 14.5977 131.914 14.8711C132.315 15.1263 132.643 15.4544 132.898 15.8555C133.154 16.2383 133.281 16.7031 133.281 17.25C133.281 18.1615 133.035 19.0365 132.543 19.875C132.051 20.7135 131.449 21.5065 130.738 22.2539C130.027 23.0013 129.262 23.694 128.441 24.332C127.621 24.9518 126.883 25.5078 126.227 26C126.062 25.9089 125.898 25.7904 125.734 25.6445C125.589 25.4987 125.516 25.3255 125.516 25.125ZM138.422 10.9062C139.206 11.0521 139.798 11.3802 140.199 11.8906C140.6 12.3828 140.883 12.9753 141.047 13.668C141.211 14.3424 141.311 15.0625 141.348 15.8281C141.402 16.5938 141.466 17.2956 141.539 17.9336C141.539 18.2435 141.521 18.6628 141.484 19.1914C141.466 19.7018 141.421 20.2578 141.348 20.8594C141.275 21.4427 141.165 22.0443 141.02 22.6641C140.874 23.2656 140.664 23.8216 140.391 24.332C140.135 24.8242 139.807 25.2253 139.406 25.5352C139.023 25.8451 138.559 26 138.012 26C137.684 26.1458 137.346 26.0638 137 25.7539C136.672 25.444 136.362 24.9792 136.07 24.3594C135.779 23.7396 135.514 23.0013 135.277 22.1445C135.059 21.2878 134.904 20.3945 134.812 19.4648C134.721 18.5169 134.703 17.5781 134.758 16.6484C134.831 15.7188 135.004 14.862 135.277 14.0781C135.551 13.276 135.943 12.5924 136.453 12.0273C136.964 11.4622 137.62 11.0885 138.422 10.9062ZM135.906 15.8281C135.906 17.7786 135.979 19.3737 136.125 20.6133C136.289 21.8529 136.49 22.8008 136.727 23.457C136.964 24.1133 137.228 24.5234 137.52 24.6875C137.829 24.8333 138.13 24.806 138.422 24.6055C138.732 24.4049 139.033 24.0586 139.324 23.5664C139.616 23.056 139.853 22.4727 140.035 21.8164C140.236 21.1602 140.382 20.4674 140.473 19.7383C140.564 18.9909 140.573 18.2799 140.5 17.6055C140.5 17.0768 140.464 16.5208 140.391 15.9375C140.336 15.3542 140.236 14.8073 140.09 14.2969C139.962 13.7682 139.771 13.3034 139.516 12.9023C139.26 12.4831 138.941 12.1823 138.559 12C138.23 12 137.902 12.1367 137.574 12.4102C137.264 12.6836 136.982 13.0117 136.727 13.3945C136.49 13.7773 136.289 14.1784 136.125 14.5977C135.961 15.0169 135.879 15.3724 135.879 15.6641V15.7734C135.879 15.7917 135.888 15.8099 135.906 15.8281ZM146.023 25.2891C146.023 25.2526 146.023 25.1979 146.023 25.125C146.042 25.0339 146.051 24.9701 146.051 24.9336C146.27 23.2747 146.516 21.5703 146.789 19.8203C147.081 18.0521 147.409 16.293 147.773 14.543C148.138 12.7747 148.557 11.0339 149.031 9.32031C149.505 7.58854 150.043 5.91146 150.645 4.28906C150.79 4.19792 150.927 4.125 151.055 4.07031C151.182 3.9974 151.337 3.96094 151.52 3.96094C151.647 3.96094 151.766 4.00651 151.875 4.09766C151.984 4.1888 152.039 4.31641 152.039 4.48047V4.58984C152.039 4.6263 152.03 4.65365 152.012 4.67188C151.428 6.42188 150.872 8.21745 150.344 10.0586C149.815 11.8815 149.323 13.7044 148.867 15.5273C148.43 17.332 148.02 19.1185 147.637 20.8867C147.254 22.6549 146.908 24.3685 146.598 26.0273C146.379 26.0273 146.224 25.9544 146.133 25.8086C146.06 25.6445 146.023 25.4714 146.023 25.2891ZM142.879 9.89453C142.879 9.47526 142.915 9.07422 142.988 8.69141C143.079 8.30859 143.225 7.97135 143.426 7.67969C143.626 7.38802 143.891 7.16016 144.219 6.99609C144.547 6.8138 144.957 6.72266 145.449 6.72266C145.668 6.72266 145.896 6.77734 146.133 6.88672C146.388 6.99609 146.616 7.14193 146.816 7.32422C147.017 7.50651 147.172 7.71615 147.281 7.95312C147.409 8.17188 147.473 8.40885 147.473 8.66406C147.473 9.01042 147.4 9.4388 147.254 9.94922C147.108 10.4414 146.898 10.9245 146.625 11.3984C146.37 11.8724 146.06 12.2734 145.695 12.6016C145.349 12.9297 144.957 13.0938 144.52 13.0938C144.1 13.0938 143.781 12.9753 143.562 12.7383C143.344 12.5013 143.18 12.2188 143.07 11.8906C142.979 11.5443 142.924 11.1979 142.906 10.8516C142.888 10.487 142.879 10.168 142.879 9.89453ZM151.273 19.0273C151.273 18.8451 151.264 18.5443 151.246 18.125C151.246 17.7057 151.273 17.2773 151.328 16.8398C151.401 16.3841 151.52 15.9922 151.684 15.6641C151.866 15.3177 152.148 15.1445 152.531 15.1445C152.859 15.1445 153.142 15.2357 153.379 15.418C153.634 15.582 153.835 15.8008 153.98 16.0742C154.145 16.3294 154.263 16.612 154.336 16.9219C154.427 17.2318 154.473 17.5143 154.473 17.7695C154.473 18.0977 154.418 18.4714 154.309 18.8906C154.217 19.3099 154.072 19.7201 153.871 20.1211C153.689 20.5221 153.452 20.8594 153.16 21.1328C152.868 21.388 152.54 21.5156 152.176 21.5156C151.866 21.5156 151.647 21.4245 151.52 21.2422C151.392 21.0599 151.301 20.8411 151.246 20.5859C151.21 20.3125 151.201 20.0391 151.219 19.7656C151.255 19.474 151.273 19.2279 151.273 19.0273ZM145.34 7.78906C145.048 7.78906 144.82 7.98047 144.656 8.36328C144.51 8.72786 144.401 9.14714 144.328 9.62109C144.273 10.0768 144.246 10.5234 144.246 10.9609V11.8633C144.556 11.8633 144.857 11.763 145.148 11.5625C145.458 11.362 145.732 11.1159 145.969 10.8242C146.206 10.5143 146.397 10.1862 146.543 9.83984C146.689 9.47526 146.762 9.14714 146.762 8.85547C146.762 8.67318 146.716 8.51823 146.625 8.39062C146.534 8.24479 146.415 8.13542 146.27 8.0625C146.124 7.97135 145.969 7.90755 145.805 7.87109C145.641 7.81641 145.486 7.78906 145.34 7.78906ZM152.34 19C152.34 19.1641 152.349 19.3099 152.367 19.4375C152.404 19.5469 152.522 19.638 152.723 19.7109C152.96 19.3464 153.133 19.0547 153.242 18.8359C153.37 18.599 153.434 18.3073 153.434 17.9609C153.434 17.7422 153.406 17.569 153.352 17.4414C153.315 17.2956 153.224 17.1133 153.078 16.8945C152.896 16.9857 152.75 17.1133 152.641 17.2773C152.549 17.4414 152.477 17.6237 152.422 17.8242C152.385 18.0247 152.358 18.2344 152.34 18.4531C152.34 18.6536 152.34 18.8359 152.34 19Z" fill="#FFA500"/>
</svg>
