<svg width="290" height="324" viewBox="0 0 290 324" fill="none" xmlns="http://www.w3.org/2000/svg">
<circle cx="145" cy="145" r="145" fill="#E6E9FE"/>
<rect x="8.5" y="51.5" width="173" height="79" rx="9.5" fill="white" stroke="#3B4B75" stroke-width="3"/>
<rect x="24" y="67" width="115" height="6" rx="3" fill="#6176F6" fill-opacity="0.3"/>
<rect x="24" y="79" width="82" height="6" rx="3" fill="#6176F6" fill-opacity="0.3"/>
<rect x="24" y="109" width="27" height="6" rx="3" fill="#E6E9FE"/>
<circle cx="149" cy="98" r="15" fill="#CCD2F9"/>
<rect x="68.5" y="147.5" width="173" height="79" rx="9.5" fill="white" stroke="#3B4B75" stroke-width="3"/>
<rect x="84" y="163" width="115" height="6" rx="3" fill="#6176F6" fill-opacity="0.3"/>
<rect x="84" y="175" width="82" height="6" rx="3" fill="#6176F6" fill-opacity="0.3"/>
<rect x="84" y="205" width="27" height="6" rx="3" fill="#E6E9FE"/>
<circle cx="209" cy="194" r="15" fill="#CCD2F9"/>
<rect x="8.5" y="243.5" width="173" height="79" rx="9.5" fill="white" stroke="#3B4B75" stroke-width="3"/>
<rect x="24" y="259" width="115" height="6" rx="3" fill="#6176F6" fill-opacity="0.3"/>
<rect x="24" y="271" width="82" height="6" rx="3" fill="#6176F6" fill-opacity="0.3"/>
<rect x="24" y="301" width="27" height="6" rx="3" fill="#E6E9FE"/>
<circle cx="149" cy="290" r="15" fill="#CCD2F9"/>
<rect x="211.25" y="52.2026" width="6.05088" height="20.1696" rx="3" transform="rotate(82.5 211.25 52.2026)" fill="#BEC7FC"/>
<rect x="156" y="18.79" width="6.05088" height="20.1696" rx="3" transform="rotate(-7.5 156 18.79)" fill="#BEC7FC"/>
<rect x="191.445" y="24.2944" width="6.05088" height="20.1696" rx="3" transform="rotate(37.5 191.445 24.2944)" fill="#BEC7FC"/>
</svg>
