<svg width="289" height="372" viewBox="0 0 289 372" fill="none" xmlns="http://www.w3.org/2000/svg">
<circle cx="144.213" cy="144.61" r="144.213" fill="#E6E9FE"/>
<rect x="87.1363" y="141.132" width="142.221" height="198.696" rx="6.5" transform="rotate(2.5 87.1363 141.132)" fill="white" stroke="#3B4B75" stroke-width="3"/>
<rect x="4.27798" y="130.293" width="148.221" height="204.696" rx="9.5" transform="rotate(-7.5 4.27798 130.293)" fill="#FAFAFA" stroke="#3B4B75" stroke-width="3"/>
<path d="M7.00515 139.516C6.42845 135.135 9.51202 131.116 13.8925 130.54L142.008 113.673C146.389 113.096 150.407 116.18 150.984 120.56L155.995 158.622L12.0161 177.577L7.00515 139.516Z" fill="#CCD2F9"/>
<rect x="181.25" y="118.678" width="6.05088" height="20.1696" rx="3" transform="rotate(82.5 181.25 118.678)" fill="#6176F6" fill-opacity="0.3"/>
<rect x="126" y="85.2654" width="6.05088" height="20.1696" rx="3" transform="rotate(-7.5 126 85.2654)" fill="#6176F6" fill-opacity="0.3"/>
<rect x="161.445" y="90.77" width="6.05088" height="20.1696" rx="3" transform="rotate(37.5 161.445 90.77)" fill="#6176F6" fill-opacity="0.3"/>
<rect x="27.0625" y="183.733" width="116.984" height="8.06784" rx="2" transform="rotate(-7.5 27.0625 183.733)" fill="#E6E9FE"/>
<rect x="32.3359" y="223.727" width="116.984" height="8.06784" rx="2" transform="rotate(-7.5 32.3359 223.727)" fill="#E6E9FE"/>
<rect x="37.5938" y="263.722" width="116.984" height="8.06784" rx="2" transform="rotate(-7.5 37.5938 263.722)" fill="#E6E9FE"/>
<rect x="29.1719" y="199.731" width="42.3561" height="8.06784" rx="2" transform="rotate(-7.5 29.1719 199.731)" fill="#6176F6" fill-opacity="0.3"/>
<rect x="34.4453" y="239.724" width="42.3561" height="8.06784" rx="2" transform="rotate(-7.5 34.4453 239.724)" fill="#6176F6" fill-opacity="0.3"/>
<rect x="39.7031" y="279.719" width="42.3561" height="8.06784" rx="2" transform="rotate(-7.5 39.7031 279.719)" fill="#6176F6" fill-opacity="0.3"/>
</svg>
