<svg width="33" height="32" viewBox="0 0 33 32" fill="none" xmlns="http://www.w3.org/2000/svg">
<g clip-path="url(#clip0_1185_6016)">
<path d="M29.6875 0.0625H3.3125C1.76169 0.0625 0.5 1.32419 0.5 2.875V25.375C0.5 26.9258 1.76169 28.1875 3.3125 28.1875C8.90719 28.1875 8.4055 28.1885 8.47656 28.1855L10.5339 30.2429C10.8997 30.6087 11.4937 30.609 11.8597 30.2429L12.8626 29.24C13.1314 29.3687 13.4066 29.4829 13.6874 29.5823V31C13.6874 31.5178 14.1072 31.9375 14.6249 31.9375H18.3749C18.8927 31.9375 19.3124 31.5178 19.3124 31V29.5823C19.5932 29.4829 19.8685 29.3687 20.1373 29.24L21.1401 30.2429C21.5059 30.6087 22.0999 30.609 22.4659 30.2429L24.5214 28.1875H29.6875C31.2383 28.1875 32.5 26.9258 32.5 25.375V2.875C32.5 1.32419 31.2383 0.0625 29.6875 0.0625ZM3.3125 1.9375H29.6875C30.2044 1.9375 30.625 2.35806 30.625 2.875V7.5625H2.375V2.875C2.375 2.35806 2.79556 1.9375 3.3125 1.9375ZM21.8031 28.2541L20.9723 27.4233C20.6695 27.1204 20.1999 27.0614 19.8317 27.2796C19.3038 27.5922 18.7351 27.8281 18.1416 27.9807C17.7272 28.0872 17.4375 28.4609 17.4375 28.8888V30.0625H15.5625V28.8888C15.5625 28.4609 15.2728 28.0873 14.8584 27.9808C14.2649 27.8282 13.6962 27.5923 13.1683 27.2796C12.7999 27.0613 12.3304 27.1206 12.0277 27.4234L11.1969 28.2542L9.87081 26.9281L10.7016 26.0973C11.0044 25.7946 11.0636 25.3251 10.8454 24.9567C10.5327 24.4288 10.2968 23.8601 10.1442 23.2666C10.0378 22.8522 9.66412 22.5625 9.23625 22.5625H8.0625V20.6875H9.23625C9.66412 20.6875 10.0377 20.3978 10.1442 19.9834C10.2968 19.3899 10.5327 18.8212 10.8454 18.2933C11.0636 17.9249 11.0044 17.4554 10.7016 17.1527L9.87081 16.3219L11.1969 14.9958L12.0277 15.8266C12.3304 16.1294 12.7999 16.1885 13.1683 15.9704C13.6962 15.6577 14.2649 15.4218 14.8584 15.2692C15.2728 15.1627 15.5625 14.7891 15.5625 14.3612V13.1875H17.4375V14.3612C17.4375 14.7891 17.7272 15.1627 18.1416 15.2692C18.7351 15.4218 19.3038 15.6577 19.8317 15.9704C20.2 16.1886 20.6695 16.1294 20.9723 15.8266L21.8031 14.9958L23.1292 16.3219L22.2984 17.1527C21.9956 17.4554 21.9364 17.9249 22.1546 18.2933C22.4673 18.8212 22.7032 19.3899 22.8558 19.9834C22.9623 20.3978 23.3359 20.6875 23.7638 20.6875H24.9375V22.5625H23.7638C23.3359 22.5625 22.9623 22.8522 22.8558 23.2666C22.7032 23.8601 22.4673 24.4288 22.1546 24.9567C21.9364 25.3251 21.9956 25.7946 22.2984 26.0973L23.1292 26.9281L21.8031 28.2541ZM29.6875 26.3125H25.1607C25.1132 26.2581 25.2148 26.3621 24.1151 25.2624C24.2438 24.9936 24.358 24.7183 24.4573 24.4375H25.875C26.3928 24.4375 26.8125 24.0178 26.8125 23.5V19.75C26.8125 19.2322 26.3928 18.8125 25.875 18.8125H24.4573C24.3579 18.5317 24.2437 18.2564 24.115 17.9876L25.1179 16.9848C25.4837 16.6191 25.484 16.025 25.1179 15.659L22.4659 13.0071C22.1002 12.6412 21.5061 12.6409 21.1401 13.0071L20.1373 14.0099C19.8685 13.8812 19.5932 13.767 19.3124 13.6677V12.25C19.3124 11.7322 18.8927 11.3125 18.3749 11.3125H14.6249C14.1072 11.3125 13.6874 11.7322 13.6874 12.25V13.6678C13.4066 13.7671 13.1314 13.8813 12.8626 14.01L11.8597 13.0071C11.494 12.6412 10.8999 12.641 10.5339 13.0071L7.882 15.6591C7.51612 16.0248 7.51587 16.6189 7.882 16.9849L8.88488 17.9877C8.75613 18.2565 8.64194 18.5318 8.54263 18.8126H7.125C6.60725 18.8126 6.1875 19.2323 6.1875 19.7501V23.5001C6.1875 24.0178 6.60725 24.4376 7.125 24.4376H8.54275C8.64206 24.7184 8.75625 24.9936 8.885 25.2624C7.78525 26.3621 7.88681 26.2581 7.83931 26.3126H3.3125C2.79556 26.3126 2.375 25.892 2.375 25.3751V9.4375H30.625V25.375C30.625 25.8919 30.2044 26.3125 29.6875 26.3125Z" fill="#667085"/>
<path d="M16.5 16.9375C13.9153 16.9375 11.8125 19.0403 11.8125 21.625C11.8125 24.2097 13.9153 26.3125 16.5 26.3125C19.0847 26.3125 21.1875 24.2097 21.1875 21.625C21.1875 19.0403 19.0847 16.9375 16.5 16.9375ZM16.5 24.4375C14.9492 24.4375 13.6875 23.1758 13.6875 21.625C13.6875 20.0742 14.9492 18.8125 16.5 18.8125C18.0508 18.8125 19.3125 20.0742 19.3125 21.625C19.3125 23.1758 18.0508 24.4375 16.5 24.4375Z" fill="#667085"/>
<path d="M5.25 5.6875C5.76777 5.6875 6.1875 5.26777 6.1875 4.75C6.1875 4.23223 5.76777 3.8125 5.25 3.8125C4.73223 3.8125 4.3125 4.23223 4.3125 4.75C4.3125 5.26777 4.73223 5.6875 5.25 5.6875Z" fill="#667085"/>
<path d="M9 5.6875C9.51777 5.6875 9.9375 5.26777 9.9375 4.75C9.9375 4.23223 9.51777 3.8125 9 3.8125C8.48223 3.8125 8.0625 4.23223 8.0625 4.75C8.0625 5.26777 8.48223 5.6875 9 5.6875Z" fill="#667085"/>
<path d="M12.75 5.6875C13.2678 5.6875 13.6875 5.26777 13.6875 4.75C13.6875 4.23223 13.2678 3.8125 12.75 3.8125C12.2322 3.8125 11.8125 4.23223 11.8125 4.75C11.8125 5.26777 12.2322 5.6875 12.75 5.6875Z" fill="#667085"/>
<path d="M22.125 5.6875H27.75C28.2678 5.6875 28.6875 5.26775 28.6875 4.75C28.6875 4.23225 28.2678 3.8125 27.75 3.8125H22.125C21.6072 3.8125 21.1875 4.23225 21.1875 4.75C21.1875 5.26775 21.6072 5.6875 22.125 5.6875Z" fill="#667085"/>
</g>
<defs>
<clipPath id="clip0_1185_6016">
<rect width="32" height="32" fill="white" transform="translate(0.5)"/>
</clipPath>
</defs>
</svg>
