<svg width="32" height="32" viewBox="0 0 32 32" fill="none" xmlns="http://www.w3.org/2000/svg">
<g clip-path="url(#clip0_1576_9201)">
<path d="M16.3796 9.28125C16.811 9.28125 17.1608 8.93144 17.1608 8.5C17.1608 8.06856 16.811 7.71875 16.3796 7.71875H13.7461C13.3147 7.71875 12.9648 8.06856 12.9648 8.5V14.75C12.9648 15.1814 13.3147 15.5312 13.7461 15.5312H16.3796C16.811 15.5312 17.1608 15.1814 17.1608 14.75C17.1608 14.3186 16.811 13.9688 16.3796 13.9688H14.5273V12.4062H16.1854C16.6168 12.4062 16.9667 12.0565 16.9667 11.625C16.9667 11.1935 16.6168 10.8438 16.1854 10.8438H14.5273V9.28125H16.3796Z" fill="#667085"/>
<path d="M22.125 7.71875C19.9711 7.71875 18.2188 9.47112 18.2188 11.625C18.2188 13.7789 19.9711 15.5312 22.125 15.5312C24.2789 15.5312 26.0312 13.7789 26.0312 11.625C26.0312 9.47112 24.2789 7.71875 22.125 7.71875ZM22.125 13.9688C20.8326 13.9688 19.7812 12.9174 19.7812 11.625C19.7812 10.3326 20.8326 9.28125 22.125 9.28125C23.4174 9.28125 24.4688 10.3326 24.4688 11.625C24.4688 12.9174 23.4174 13.9688 22.125 13.9688Z" fill="#667085"/>
<path d="M9.73492 10.9482C8.96929 10.6658 8.25642 10.3582 8.03736 10.2623C7.86854 10.1264 7.87423 9.93718 7.88554 9.85831C7.90129 9.74856 7.98104 9.48037 8.38029 9.36012C9.17086 9.12193 9.81298 9.49337 9.97029 9.62662C10.1981 9.92843 10.6177 10.028 10.9617 9.84418C11.3422 9.64081 11.4858 9.16743 11.2824 8.78687C10.9804 8.22187 9.52329 7.38387 7.92954 7.864C7.06798 8.12356 6.45848 8.80262 6.33879 9.63625C6.22654 10.4185 6.56561 11.1709 7.22373 11.5999C7.25823 11.6224 7.29448 11.6422 7.33211 11.6589C7.36817 11.675 8.22698 12.0573 9.19417 12.4141C9.46717 12.5147 10.0932 12.7989 10.0106 13.2611C9.94848 13.6088 9.52473 13.9686 8.92304 13.9686C8.30373 13.9686 7.70779 13.719 7.32892 13.3009C7.03923 12.9812 6.54517 12.9568 6.22542 13.2466C5.90567 13.5363 5.88136 14.0304 6.17111 14.3501C6.84129 15.0896 7.87004 15.5311 8.92311 15.5311C10.2381 15.5311 11.3424 14.6919 11.5489 13.5356C11.7042 12.6657 11.3093 11.5289 9.73492 10.9482V10.9482Z" fill="#667085"/>
<path d="M31.9403 25.0458L30.125 20.205V4.75C30.125 3.19919 28.8633 1.9375 27.3125 1.9375H4.6875C3.13669 1.9375 1.875 3.19919 1.875 4.75V20.205L0.0596875 25.0458C0.02025 25.1511 0 25.2626 0 25.375V27.25C0 28.8008 1.26169 30.0625 2.8125 30.0625H29.1875C30.7383 30.0625 32 28.8008 32 27.25V25.375C32 25.2626 31.9798 25.1511 31.9403 25.0458V25.0458ZM3.75 4.75C3.75 4.23306 4.17056 3.8125 4.6875 3.8125H27.3125C27.8294 3.8125 28.25 4.23306 28.25 4.75V19.4375H3.75V4.75ZM3.46219 21.3125H28.5378L29.7097 24.4375H2.29031L3.46219 21.3125ZM30.125 27.25C30.125 27.7669 29.7044 28.1875 29.1875 28.1875H2.8125C2.29556 28.1875 1.875 27.7669 1.875 27.25V26.3125H30.125V27.25Z" fill="#667085"/>
</g>
<defs>
<clipPath id="clip0_1576_9201">
<rect width="32" height="32" fill="white"/>
</clipPath>
</defs>
</svg>
