<svg width="48" height="48" viewBox="0 0 48 48" fill="none" xmlns="http://www.w3.org/2000/svg">
<g clip-path="url(#clip0_1056_5383)">
<path d="M40.9688 30.1848H38.1562C37.3796 30.1848 36.75 30.8144 36.75 31.5911C36.75 32.3677 37.3796 32.9973 38.1562 32.9973H40.9688C41.7454 32.9973 42.375 32.3677 42.375 31.5911C42.375 30.8144 41.7454 30.1848 40.9688 30.1848Z" fill="#7D1E6A"/>
<path d="M40.9688 35.8098H29.7188C28.9421 35.8098 28.3125 36.4394 28.3125 37.2161C28.3125 37.9927 28.9421 38.6223 29.7188 38.6223H40.9688C41.7454 38.6223 42.375 37.9927 42.375 37.2161C42.375 36.4394 41.7454 35.8098 40.9688 35.8098Z" fill="#7D1E6A"/>
<path d="M29.5312 9.375H23.9062C23.1296 9.375 22.5 10.0046 22.5 10.7812V13.125H19.6875V7.03125C19.6875 6.25462 19.0579 5.625 18.2812 5.625H12.6562C11.8796 5.625 11.25 6.25462 11.25 7.03125V16.875H7.03125C6.25462 16.875 5.625 17.5046 5.625 18.2812V23.9062C5.625 24.6829 6.25462 25.3125 7.03125 25.3125H29.5312C30.3079 25.3125 30.9375 24.6829 30.9375 23.9062V10.7812C30.9375 10.0046 30.3079 9.375 29.5312 9.375ZM11.25 22.5H8.4375V19.6875H11.25V22.5ZM16.875 22.5H14.0625V8.4375H16.875V22.5ZM22.5 22.5H19.6875V15.9375H22.5V22.5ZM28.125 22.5H25.3125V12.1875H28.125V22.5Z" fill="#7D1E6A"/>
<path d="M43.7812 24.5599H36.5625V5.15625C36.5625 2.3085 34.254 0 31.4062 0H5.15625C2.3085 0 0 2.3085 0 5.15625V35.1562C0 36.3577 1.40925 37.0058 2.32144 36.224L8.48897 30.9375H22.6875V40.0286C22.6875 42.3586 24.5763 44.2474 26.9062 44.2474H41.4129L45.7152 47.6892C46.6359 48.4258 47.9999 47.7703 47.9999 46.5911V28.7786C48 26.4487 46.1112 24.5599 43.7812 24.5599ZM7.96875 28.125C7.63303 28.125 7.30847 28.2451 7.05356 28.4635L2.8125 32.0988V5.15625C2.8125 3.86184 3.86184 2.8125 5.15625 2.8125H31.4062C32.7007 2.8125 33.75 3.86184 33.75 5.15625V25.7812C33.75 27.0757 32.7007 28.125 31.4062 28.125H7.96875ZM45.1875 43.6653L42.7847 41.743C42.5353 41.5435 42.2256 41.4349 41.9062 41.4349H26.9062C26.1296 41.4349 25.5 40.8052 25.5 40.0286V30.9375H31.4062C33.6985 30.9375 35.6405 29.4412 36.3112 27.3724H43.7812C44.5579 27.3724 45.1875 28.002 45.1875 28.7786V43.6653Z" fill="#7D1E6A"/>
</g>
<defs>
<clipPath id="clip0_1056_5383">
<rect width="48" height="48" fill="white"/>
</clipPath>
</defs>
</svg>
