<svg width="24" height="24" viewBox="0 0 24 24" fill="none" xmlns="http://www.w3.org/2000/svg">
<path d="M16.7004 19.73H7.30042C6.56042 19.73 5.81042 19.2 5.56042 18.51L1.42042 6.92C0.910423 5.46 1.28042 4.79 1.68042 4.49C2.08042 4.19 2.83042 4.01 4.09042 4.91L7.99042 7.7C8.11042 7.77 8.22042 7.8 8.30042 7.78C8.39042 7.75 8.46042 7.67 8.51042 7.53L10.2704 2.84C10.8004 1.44 11.5804 1.23 12.0004 1.23C12.4204 1.23 13.2004 1.44 13.7304 2.84L15.4904 7.53C15.5404 7.66 15.6104 7.75 15.7004 7.78C15.7904 7.81 15.9004 7.78 16.0104 7.69L19.6704 5.08C21.0104 4.12 21.7904 4.31 22.2204 4.62C22.6404 4.94 23.0304 5.65 22.4804 7.2L18.4404 18.51C18.1904 19.2 17.4404 19.73 16.7004 19.73ZM2.68042 5.81C2.70042 5.95 2.74042 6.15 2.84042 6.41L6.98042 18C7.02042 18.1 7.20042 18.23 7.30042 18.23H16.7004C16.8104 18.23 16.9904 18.1 17.0204 18L21.0604 6.7C21.2004 6.32 21.2404 6.06 21.2504 5.91C21.1004 5.96 20.8704 6.07 20.5404 6.31L16.8804 8.92C16.3804 9.27 15.7904 9.38 15.2604 9.22C14.7304 9.06 14.3004 8.64 14.0804 8.07L12.3204 3.38C12.1904 3.03 12.0704 2.86 12.0004 2.78C11.9304 2.86 11.8104 3.03 11.6804 3.37L9.92042 8.06C9.71042 8.63 9.28042 9.05 8.74042 9.21C8.21042 9.37 7.61042 9.26 7.12042 8.91L3.22042 6.12C2.99042 5.96 2.81042 5.86 2.68042 5.81Z" fill="#667085"/>
<path d="M17.5 22.75H6.5C6.09 22.75 5.75 22.41 5.75 22C5.75 21.59 6.09 21.25 6.5 21.25H17.5C17.91 21.25 18.25 21.59 18.25 22C18.25 22.41 17.91 22.75 17.5 22.75Z" fill="#667085"/>
<path d="M14.5 14.75H9.5C9.09 14.75 8.75 14.41 8.75 14C8.75 13.59 9.09 13.25 9.5 13.25H14.5C14.91 13.25 15.25 13.59 15.25 14C15.25 14.41 14.91 14.75 14.5 14.75Z" fill="#667085"/>
</svg>
