<svg width="32" height="32" viewBox="0 0 32 32" fill="none" xmlns="http://www.w3.org/2000/svg">
<path d="M27.9587 1.33331H24.0387C22.8787 1.33331 22.0254 1.81331 21.6387 2.66665C21.4254 3.05331 21.332 3.50665 21.332 4.03998V7.95998C21.332 9.65331 22.3454 10.6666 24.0387 10.6666H27.9587C28.492 10.6666 28.9454 10.5733 29.332 10.36C30.1854 9.97331 30.6654 9.11998 30.6654 7.95998V4.03998C30.6654 2.34665 29.652 1.33331 27.9587 1.33331ZM29.212 6.57331C29.0787 6.70665 28.8787 6.79998 28.6654 6.81331H26.7854V7.49331L26.7987 8.66665C26.7854 8.89331 26.7054 9.07998 26.5454 9.23998C26.412 9.37331 26.212 9.46665 25.9987 9.46665C25.5587 9.46665 25.1987 9.10665 25.1987 8.66665V6.79998L23.332 6.81331C22.892 6.81331 22.532 6.43998 22.532 5.99998C22.532 5.55998 22.892 5.19998 23.332 5.19998L24.5054 5.21331H25.1987V3.34665C25.1987 2.90665 25.5587 2.53331 25.9987 2.53331C26.4387 2.53331 26.7987 2.90665 26.7987 3.34665L26.7854 4.29331V5.19998H28.6654C29.1054 5.19998 29.4654 5.55998 29.4654 5.99998C29.452 6.22665 29.3587 6.41331 29.212 6.57331Z" fill="#98A2B3"/>
<path d="M12.0015 13.84C13.754 13.84 15.1748 12.4193 15.1748 10.6667C15.1748 8.9141 13.754 7.49335 12.0015 7.49335C10.2489 7.49335 8.82812 8.9141 8.82812 10.6667C8.82812 12.4193 10.2489 13.84 12.0015 13.84Z" fill="#98A2B3"/>
<path d="M27.9613 10.6667H27.3346V16.8134L27.1613 16.6667C26.1213 15.7734 24.4413 15.7734 23.4013 16.6667L17.8546 21.4267C16.8146 22.32 15.1346 22.32 14.0946 21.4267L13.6413 21.0534C12.6946 20.2267 11.188 20.1467 10.1213 20.8667L5.13464 24.2134C4.8413 23.4667 4.66797 22.6 4.66797 21.5867V10.4134C4.66797 6.65335 6.65464 4.66669 10.4146 4.66669H21.3346V4.04002C21.3346 3.50669 21.428 3.05335 21.6413 2.66669H10.4146C5.5613 2.66669 2.66797 5.56002 2.66797 10.4134V21.5867C2.66797 23.04 2.9213 24.3067 3.41464 25.3734C4.5613 27.9067 7.01464 29.3334 10.4146 29.3334H21.588C26.4413 29.3334 29.3346 26.44 29.3346 21.5867V10.36C28.948 10.5734 28.4946 10.6667 27.9613 10.6667Z" fill="#98A2B3"/>
</svg>
