<svg width="40" height="40" viewBox="0 0 40 40" fill="none" xmlns="http://www.w3.org/2000/svg">
<path d="M31.6641 14.5833C28.2141 14.5833 25.4141 11.7833 25.4141 8.33325C25.4141 4.88325 28.2141 2.08325 31.6641 2.08325C35.1141 2.08325 37.9141 4.88325 37.9141 8.33325C37.9141 11.7833 35.1141 14.5833 31.6641 14.5833ZM31.6641 4.58325C29.5974 4.58325 27.9141 6.26659 27.9141 8.33325C27.9141 10.3999 29.5974 12.0833 31.6641 12.0833C33.7307 12.0833 35.4141 10.3999 35.4141 8.33325C35.4141 6.26659 33.7307 4.58325 31.6641 4.58325Z" fill="white"/>
<path d="M19.9974 22.9167H11.6641C10.9807 22.9167 10.4141 22.3501 10.4141 21.6667C10.4141 20.9834 10.9807 20.4167 11.6641 20.4167H19.9974C20.6807 20.4167 21.2474 20.9834 21.2474 21.6667C21.2474 22.3501 20.6807 22.9167 19.9974 22.9167Z" fill="white"/>
<path d="M26.6641 29.5833H11.6641C10.9807 29.5833 10.4141 29.0166 10.4141 28.3333C10.4141 27.6499 10.9807 27.0833 11.6641 27.0833H26.6641C27.3474 27.0833 27.9141 27.6499 27.9141 28.3333C27.9141 29.0166 27.3474 29.5833 26.6641 29.5833Z" fill="white"/>
<path d="M25.0026 37.9166H15.0026C5.9526 37.9166 2.08594 34.0499 2.08594 24.9999V14.9999C2.08594 5.94992 5.9526 2.08325 15.0026 2.08325H23.3359C24.0193 2.08325 24.5859 2.64992 24.5859 3.33325C24.5859 4.01659 24.0193 4.58325 23.3359 4.58325H15.0026C7.31927 4.58325 4.58594 7.31659 4.58594 14.9999V24.9999C4.58594 32.6833 7.31927 35.4166 15.0026 35.4166H25.0026C32.6859 35.4166 35.4193 32.6833 35.4193 24.9999V16.6666C35.4193 15.9833 35.9859 15.4166 36.6693 15.4166C37.3526 15.4166 37.9193 15.9833 37.9193 16.6666V24.9999C37.9193 34.0499 34.0526 37.9166 25.0026 37.9166Z" fill="white"/>
</svg>
