<svg width="28" height="28" viewBox="0 0 28 28" fill="none" xmlns="http://www.w3.org/2000/svg">
<path d="M26.0859 16.5156H24.1719V14.0547C24.1719 13.6017 23.8046 13.2344 23.3516 13.2344H21.3281V5.46875H23.7891C24.2421 5.46875 24.6094 5.10147 24.6094 4.64844V2.46094C24.6094 1.10398 23.5054 0 22.1484 0H2.46094C1.10398 0 0 1.10398 0 2.46094V27.1797C0 27.6327 0.367281 28 0.820312 28H26.0859C27.1414 28 28 27.1414 28 26.0859V18.4297C28 17.3743 27.1414 16.5156 26.0859 16.5156ZM21.3281 2.46094C21.3281 2.00862 21.6961 1.64062 22.1484 1.64062C22.6008 1.64062 22.9688 2.00862 22.9688 2.46094V3.82812H21.3281V2.46094ZM22.5312 14.875V16.5156H19.7969V14.875H22.5312ZM14.348 26.3594H1.64062V2.46094C1.64062 2.00862 2.00862 1.64062 2.46094 1.64062H19.8286C19.7375 1.89738 19.6875 2.17339 19.6875 2.46094V13.2344H18.9766C18.5235 13.2344 18.1562 13.6017 18.1562 14.0547V16.5156H16.2422C15.1868 16.5156 14.3281 17.3743 14.3281 18.4297V26.0859C14.3281 26.1788 14.3351 26.27 14.348 26.3594ZM26.3594 26.0859C26.3594 26.2367 26.2367 26.3594 26.0859 26.3594H16.2422C16.0914 26.3594 15.9688 26.2367 15.9688 26.0859V21.4375H17.3359V22.2578C17.3359 22.7108 17.7032 23.0781 18.1562 23.0781C18.6093 23.0781 18.9766 22.7108 18.9766 22.2578V21.4375H23.3516V22.2578C23.3516 22.7108 23.7188 23.0781 24.1719 23.0781C24.6249 23.0781 24.9922 22.7108 24.9922 22.2578V21.4375H26.3594V26.0859ZM26.3594 19.7969H15.9688V18.4297C15.9688 18.2789 16.0914 18.1562 16.2422 18.1562H26.0859C26.2367 18.1562 26.3594 18.2789 26.3594 18.4297V19.7969Z" fill="#A760FF"/>
<path d="M16.4062 14V13.4531C16.4062 11.48 15.1699 9.7912 13.4317 9.11772C13.9235 8.50784 14.2188 7.73325 14.2188 6.89062C14.2188 4.93057 12.6241 3.33594 10.6641 3.33594C8.70401 3.33594 7.10938 4.93057 7.10938 6.89062C7.10938 7.73325 7.40463 8.50784 7.89638 9.11772C6.1582 9.7912 4.92188 11.48 4.92188 13.4531V14C4.92188 14.453 5.28916 14.8203 5.74219 14.8203H15.5859C16.039 14.8203 16.4062 14.453 16.4062 14ZM10.6641 4.97656C11.7195 4.97656 12.5781 5.83521 12.5781 6.89062C12.5781 7.94604 11.7195 8.80469 10.6641 8.80469C9.60865 8.80469 8.75 7.94604 8.75 6.89062C8.75 5.83521 9.60865 4.97656 10.6641 4.97656ZM6.5748 13.1797C6.71333 11.6488 8.0039 10.4453 9.57031 10.4453H11.7578C13.3242 10.4453 14.6148 11.6488 14.7533 13.1797H6.5748Z" fill="#A760FF"/>
<path d="M5.19531 16.4609H4.10156C3.64853 16.4609 3.28125 16.8282 3.28125 17.2812C3.28125 17.7343 3.64853 18.1016 4.10156 18.1016H5.19531C5.64834 18.1016 6.01562 17.7343 6.01562 17.2812C6.01562 16.8282 5.64834 16.4609 5.19531 16.4609Z" fill="#A760FF"/>
<path d="M11.7578 16.4609H8.47656C8.02353 16.4609 7.65625 16.8282 7.65625 17.2812C7.65625 17.7343 8.02353 18.1016 8.47656 18.1016H11.7578C12.2108 18.1016 12.5781 17.7343 12.5781 17.2812C12.5781 16.8282 12.2108 16.4609 11.7578 16.4609Z" fill="#A760FF"/>
<path d="M5.19531 19.7422H4.10156C3.64853 19.7422 3.28125 20.1095 3.28125 20.5625C3.28125 21.0155 3.64853 21.3828 4.10156 21.3828H5.19531C5.64834 21.3828 6.01562 21.0155 6.01562 20.5625C6.01562 20.1095 5.64834 19.7422 5.19531 19.7422Z" fill="#A760FF"/>
<path d="M11.7578 19.7422H8.47656C8.02353 19.7422 7.65625 20.1095 7.65625 20.5625C7.65625 21.0155 8.02353 21.3828 8.47656 21.3828H11.7578C12.2108 21.3828 12.5781 21.0155 12.5781 20.5625C12.5781 20.1095 12.2108 19.7422 11.7578 19.7422Z" fill="#A760FF"/>
<path d="M5.19531 23.0234H4.10156C3.64853 23.0234 3.28125 23.3907 3.28125 23.8438C3.28125 24.2968 3.64853 24.6641 4.10156 24.6641H5.19531C5.64834 24.6641 6.01562 24.2968 6.01562 23.8438C6.01562 23.3907 5.64834 23.0234 5.19531 23.0234Z" fill="#A760FF"/>
<path d="M11.7578 23.0234H8.47656C8.02353 23.0234 7.65625 23.3907 7.65625 23.8438C7.65625 24.2968 8.02353 24.6641 8.47656 24.6641H11.7578C12.2108 24.6641 12.5781 24.2968 12.5781 23.8438C12.5781 23.3907 12.2108 23.0234 11.7578 23.0234Z" fill="#A760FF"/>
</svg>
