<svg width="32" height="32" viewBox="0 0 32 32" fill="none" xmlns="http://www.w3.org/2000/svg">
<path d="M22.2522 30.3333H9.74552C4.18552 30.3333 2.49219 28.64 2.49219 23.08V22.4667C2.49219 21.92 2.94552 21.4667 3.49219 21.4667C4.66552 21.4667 5.62552 20.5067 5.62552 19.3333C5.62552 18.16 4.66552 17.2 3.49219 17.2C2.94552 17.2 2.49219 16.7467 2.49219 16.2V15.5867C2.49219 10.0267 4.18552 8.33334 9.74552 8.33334H22.2522C27.8122 8.33334 29.5055 10.0267 29.5055 15.5867V16.84C29.5055 17.3867 29.0522 17.84 28.5055 17.84C27.3322 17.84 26.3722 18.8 26.3722 19.9733C26.3722 21.1467 27.3322 22.0933 28.5055 22.0933C29.0522 22.0933 29.5055 22.5467 29.5055 23.0933C29.4922 28.64 27.7989 30.3333 22.2522 30.3333ZM4.50552 23.3467C4.53219 27.5867 5.37219 28.3333 9.75885 28.3333H22.2655C26.4255 28.3333 27.3855 27.6533 27.5055 23.96C25.7189 23.5067 24.3855 21.8933 24.3855 19.96C24.3855 18.0267 25.7189 16.4 27.5189 15.9467V15.5733C27.5189 11.1067 26.7322 10.32 22.2655 10.32H9.74552C5.37219 10.32 4.53219 11.08 4.49219 15.3067C6.29219 15.76 7.62552 17.3867 7.62552 19.32C7.62552 21.2533 6.29219 22.8933 4.50552 23.3467Z" fill="#6176F6"/>
<path d="M13.332 13.6667C12.7854 13.6667 12.332 13.2133 12.332 12.6667V9.33334C12.332 8.78668 12.7854 8.33334 13.332 8.33334C13.8787 8.33334 14.332 8.78668 14.332 9.33334V12.6667C14.332 13.2133 13.8787 13.6667 13.332 13.6667Z" fill="#6176F6"/>
<path d="M13.332 22.56C12.7854 22.56 12.332 22.1067 12.332 21.56V17.12C12.332 16.5733 12.7854 16.12 13.332 16.12C13.8787 16.12 14.332 16.5733 14.332 17.12V21.56C14.332 22.1067 13.8787 22.56 13.332 22.56Z" fill="#6176F6"/>
<path d="M13.332 30.3333C12.7854 30.3333 12.332 29.88 12.332 29.3333V26C12.332 25.4533 12.7854 25 13.332 25C13.8787 25 14.332 25.4533 14.332 26V29.3333C14.332 29.88 13.8787 30.3333 13.332 30.3333Z" fill="#6176F6"/>
<path d="M21.7723 10.3333H9.65226C9.25226 10.3333 8.87893 10.0933 8.73226 9.71999C8.5856 9.34666 8.6656 8.90666 8.9456 8.62666L12.8523 4.71999C16.4523 1.11999 18.6523 1.11999 22.2389 4.71999L23.0389 5.51999C23.2256 5.70666 23.3323 5.95999 23.3323 6.22666C23.3323 6.49332 23.2256 6.74666 23.0389 6.93332C22.5056 7.46666 22.3589 8.25332 22.6656 8.93332C22.8123 9.23999 22.7856 9.59999 22.5989 9.89332C22.4256 10.16 22.1056 10.3333 21.7723 10.3333ZM12.0656 8.33332H20.5056C20.4789 7.62666 20.6523 6.91999 21.0123 6.30666L20.8389 6.13332C18.0523 3.34666 17.0656 3.34666 14.2789 6.13332L12.0656 8.33332Z" fill="#6176F6"/>
</svg>
