<svg width="24" height="24" viewBox="0 0 24 24" fill="none" xmlns="http://www.w3.org/2000/svg">
<path d="M12 12.75C8.83 12.75 6.25 10.17 6.25 7C6.25 3.83 8.83 1.25 12 1.25C15.17 1.25 17.75 3.83 17.75 7C17.75 10.17 15.17 12.75 12 12.75ZM12 2.75C9.66 2.75 7.75 4.66 7.75 7C7.75 9.34 9.66 11.25 12 11.25C14.34 11.25 16.25 9.34 16.25 7C16.25 4.66 14.34 2.75 12 2.75Z" fill="#667085"/>
<path d="M15.8201 22.7504C15.4401 22.7504 15.0801 22.6103 14.8201 22.3503C14.5101 22.0403 14.3701 21.5904 14.4401 21.1204L14.6301 19.7704C14.6801 19.4204 14.8901 19.0104 15.1401 18.7504L18.68 15.2104C20.1 13.7904 21.3501 14.6004 21.9601 15.2104C22.4801 15.7304 22.7501 16.2903 22.7501 16.8503C22.7501 17.4203 22.4901 17.9503 21.9601 18.4803L18.42 22.0204C18.17 22.2704 17.7501 22.4804 17.4001 22.5304L16.05 22.7203C15.97 22.7403 15.9001 22.7504 15.8201 22.7504ZM20.31 15.9203C20.13 15.9203 19.97 16.0404 19.74 16.2704L16.2001 19.8104C16.1701 19.8404 16.12 19.9403 16.12 19.9803L15.9401 21.2303L17.1901 21.0504C17.2301 21.0404 17.33 20.9904 17.36 20.9604L20.9001 17.4203C21.0601 17.2603 21.2501 17.0303 21.2501 16.8503C21.2501 16.7003 21.1301 16.4904 20.9001 16.2704C20.6601 16.0304 20.48 15.9203 20.31 15.9203Z" fill="#667085"/>
<path d="M20.9201 19.2203C20.8501 19.2203 20.7801 19.2104 20.7201 19.1904C19.4001 18.8204 18.3501 17.7704 17.9801 16.4504C17.8701 16.0504 18.1001 15.6404 18.5001 15.5304C18.9001 15.4204 19.3101 15.6503 19.4201 16.0503C19.6501 16.8703 20.3001 17.5204 21.1201 17.7504C21.5201 17.8604 21.7501 18.2803 21.6401 18.6703C21.5501 19.0003 21.2501 19.2203 20.9201 19.2203Z" fill="#667085"/>
<path d="M3.41016 22.75C3.00016 22.75 2.66016 22.41 2.66016 22C2.66016 17.73 6.85018 14.25 12.0002 14.25C13.0902 14.25 14.1702 14.41 15.1802 14.71C15.5802 14.83 15.8002 15.25 15.6802 15.64C15.5602 16.04 15.1402 16.26 14.7502 16.14C13.8702 15.88 12.9502 15.74 12.0002 15.74C7.68018 15.74 4.16016 18.54 4.16016 21.99C4.16016 22.41 3.82016 22.75 3.41016 22.75Z" fill="#667085"/>
</svg>
