<svg width="33" height="32" viewBox="0 0 33 32" fill="none" xmlns="http://www.w3.org/2000/svg">
<path d="M28.4357 12.6196L17.8319 2.01581C16.7357 0.919565 14.9518 0.919502 13.8555 2.01581C12.87 3.00125 12.7851 4.50418 13.5129 5.57737L13.4981 5.65118C12.7336 9.47399 10.8724 12.9517 8.11564 15.7085L3.25196 20.5722C2.15309 21.6711 2.1529 23.4496 3.25196 24.5485L5.90283 27.1994C7.00164 28.2983 8.78026 28.2983 9.8792 27.1994L10.5419 26.5366L15.1811 31.1758C16.2799 32.2747 18.0584 32.2748 19.1574 31.1758C20.2537 30.0795 20.2537 28.2957 19.1574 27.1995L17.1692 25.2113L17.8319 24.5485C18.9308 23.4497 18.9309 21.6712 17.8319 20.5722L17.3816 20.1218C19.5971 18.5706 22.1133 17.4907 24.8004 16.9532L24.8751 16.9383C25.9722 17.679 27.4716 17.5599 28.4357 16.5958H28.4357C29.5318 15.4997 29.5318 13.7159 28.4357 12.6196ZM8.55376 25.874C8.18751 26.2401 7.59451 26.2402 7.22826 25.8739L4.57739 23.223C4.21108 22.8566 4.21108 22.2639 4.57739 21.8976L9.21645 17.2585L13.1928 21.2348C12.7389 21.6887 9.01882 25.4088 8.55376 25.874ZM17.8319 28.5248C18.1972 28.8902 18.1972 29.4848 17.8319 29.8503C17.4665 30.2156 16.8718 30.2156 16.5064 29.8503L11.8673 25.2111L13.1928 23.8857L17.8319 28.5248ZM14.5183 22.5603C14.8 22.2785 15.2217 21.847 15.8874 21.2785L16.5064 21.8976C16.8727 22.2639 16.8727 22.8566 16.5064 23.223L15.8437 23.8858L14.5183 22.5603ZM14.5581 19.9493L10.5019 15.8932C12.6756 13.3832 14.2323 10.4204 15.0651 7.20168L23.2495 15.3862C20.0308 16.2189 17.0681 17.7755 14.5581 19.9493ZM27.11 15.2704C26.7437 15.6366 26.1509 15.6366 25.7846 15.2704L15.1809 4.66668C14.8146 4.30031 14.8146 3.70756 15.1809 3.34125C15.5472 2.97494 16.1401 2.97494 16.5064 3.34125L27.11 13.9449C27.4754 14.3103 27.4754 14.9049 27.11 15.2704Z" fill="#667085"/>
<path d="M9.88045 20.5721C9.51451 20.2061 8.92101 20.2061 8.55501 20.5721L7.22958 21.8975C6.86358 22.2635 6.86358 22.8569 7.22958 23.2229C7.59551 23.5889 8.18908 23.5889 8.55501 23.2229L9.88045 21.8975C10.2464 21.5315 10.2464 20.9381 9.88045 20.5721Z" fill="#667085"/>
<path d="M22.1365 0C21.6188 0 21.1992 0.419624 21.1992 0.937248V2.81174C21.1992 3.32937 21.6188 3.74899 22.1365 3.74899C22.6541 3.74899 23.0737 3.32937 23.0737 2.81174V0.937248C23.0737 0.419624 22.6541 0 22.1365 0Z" fill="#667085"/>
<path d="M29.634 7.49786H27.7595C27.2419 7.49786 26.8223 7.91749 26.8223 8.43511C26.8223 8.95274 27.2419 9.37236 27.7595 9.37236H29.634C30.1516 9.37236 30.5713 8.95274 30.5713 8.43511C30.5713 7.91749 30.1516 7.49786 29.634 7.49786Z" fill="#667085"/>
<path d="M28.4236 2.14892C28.0577 1.78292 27.4642 1.78292 27.0982 2.14892L25.2237 4.02342C24.8577 4.38942 24.8577 4.98285 25.2237 5.34885C25.5897 5.71485 26.1832 5.71491 26.5492 5.34885L28.4236 3.47435C28.7896 3.10836 28.7896 2.51498 28.4236 2.14892Z" fill="#344054"/>
</svg>
