<svg width="32" height="32" viewBox="0 0 32 32" fill="none" xmlns="http://www.w3.org/2000/svg">
<g clip-path="url(#clip0_1576_9188)">
<path d="M31.1775 22.8237L27.3644 19.0107C28.8746 15.8379 28.2431 12.0175 25.7184 9.493C24.8583 8.63288 23.8439 7.98331 22.7379 7.56906V0.9375C22.7379 0.41975 22.3181 0 21.8003 0H6.31156C6.06869 0 5.8265 0.0966875 5.6485 0.27475C5.6275 0.29575 0.273875 5.64913 0.273875 5.64913C0.0965 5.82694 0 6.06869 0 6.31156V31.0625C0 31.5803 0.41975 32 0.937563 32H21.8003C22.3181 32 22.7379 31.5803 22.7379 31.0625V23.2641C22.9566 23.1819 23.1727 23.0892 23.3862 22.9876L27.2 26.8013C28.2966 27.8978 30.0809 27.8979 31.1776 26.8013C32.2742 25.7046 32.2742 23.9204 31.1775 22.8237V22.8237ZM24.3921 20.0161C21.8418 22.5666 17.7269 22.5488 15.1945 20.0166C12.6586 17.4808 12.6586 13.3546 15.1945 10.8188C17.7217 8.29175 21.8371 8.2635 24.3926 10.8188C26.9231 13.3492 26.9446 17.4636 24.3921 20.0161ZM5.374 3.20081V5.37375H3.20094C3.51575 5.05894 5.05919 3.51563 5.374 3.20081V3.20081ZM20.8627 30.125H1.87506V7.24875H6.3115C6.82931 7.24875 7.24906 6.829 7.24906 6.31125V1.875H20.8627V7.10638C20.5108 7.06181 20.1538 7.03888 19.7933 7.03894C17.5552 7.039 15.4511 7.91056 13.8686 9.49306C10.6016 12.7599 10.6016 18.0755 13.8686 21.3424C15.4844 22.9581 17.6307 23.7984 19.7984 23.7983C20.1534 23.7983 20.5089 23.7754 20.8627 23.7301V30.125ZM29.8516 25.4754C29.4861 25.8409 28.8914 25.8409 28.5257 25.4754L25.0182 21.968C25.4847 21.5952 25.9482 21.1375 26.3441 20.6422L29.8516 24.1496C30.2172 24.5151 30.2172 25.1099 29.8516 25.4754Z" fill="#667085"/>
<path d="M20.5787 15.9542L18.768 14.1436C18.4021 13.7776 17.8081 13.7775 17.4421 14.1436L14.9114 16.6742C14.5452 17.0404 14.5452 17.6339 14.9114 18.0001C15.2774 18.3662 15.8711 18.3662 16.2372 18.0001L18.105 16.1323L19.9157 17.9429C20.2816 18.3089 20.8756 18.309 21.2416 17.9429L24.7865 14.3981C25.1527 14.032 25.1527 13.4384 24.7865 13.0723C24.4204 12.7062 23.8268 12.7062 23.4607 13.0723L20.5787 15.9542Z" fill="#667085"/>
<path d="M8.60169 15.0625H4.68756C4.16975 15.0625 3.75 15.4822 3.75 16C3.75 16.5178 4.16975 16.9375 4.68756 16.9375H8.60169C9.1195 16.9375 9.53925 16.5178 9.53925 16C9.53925 15.4822 9.11944 15.0625 8.60169 15.0625Z" fill="#667085"/>
<path d="M8.60169 18.8125H4.68756C4.16975 18.8125 3.75 19.2322 3.75 19.75C3.75 20.2678 4.16975 20.6875 4.68756 20.6875H8.60169C9.1195 20.6875 9.53925 20.2678 9.53925 19.75C9.53925 19.2322 9.11944 18.8125 8.60169 18.8125Z" fill="#667085"/>
<path d="M8.60169 22.5625H4.68756C4.16975 22.5625 3.75 22.9822 3.75 23.5C3.75 24.0178 4.16975 24.4375 4.68756 24.4375H8.60169C9.1195 24.4375 9.53925 24.0178 9.53925 23.5C9.53925 22.9822 9.11944 22.5625 8.60169 22.5625Z" fill="#667085"/>
<path d="M8.60169 11.3125H4.68756C4.16975 11.3125 3.75 11.7322 3.75 12.25C3.75 12.7678 4.16975 13.1875 4.68756 13.1875H8.60169C9.1195 13.1875 9.53925 12.7678 9.53925 12.25C9.53925 11.7322 9.11944 11.3125 8.60169 11.3125Z" fill="#667085"/>
</g>
<defs>
<clipPath id="clip0_1576_9188">
<rect width="32" height="32" fill="white"/>
</clipPath>
</defs>
</svg>
