<svg width="48" height="48" viewBox="0 0 48 48" fill="none" xmlns="http://www.w3.org/2000/svg">
<g clip-path="url(#clip0_1056_5389)">
<path d="M46.7663 34.2356L41.0466 28.5161C43.3118 23.7568 42.3646 18.0262 38.5777 14.2395C37.2875 12.9493 35.7658 11.975 34.1068 11.3536V1.40625C34.1068 0.629625 33.4772 0 32.7005 0H9.46734C9.10303 0 8.73975 0.145031 8.47275 0.412125C8.44125 0.443625 0.410812 8.47369 0.410812 8.47369C0.14475 8.74041 0 9.10303 0 9.46734V46.5938C0 47.3704 0.629625 48 1.40634 48H32.7005C33.4772 48 34.1068 47.3704 34.1068 46.5938V34.8962C34.4349 34.7728 34.7591 34.6338 35.0793 34.4814L40.8 40.202C42.4448 41.8467 45.1214 41.8468 46.7663 40.202C48.4113 38.5569 48.4113 35.8806 46.7663 34.2356ZM36.5881 30.0242C32.7627 33.8499 26.5903 33.8232 22.7917 30.0248C18.9879 26.2211 18.9879 20.0319 22.7917 16.2282C26.5825 12.4376 32.7556 12.3953 36.5888 16.2282C40.3846 20.0239 40.4169 26.1954 36.5881 30.0242ZM8.061 4.80122V8.06063H4.80141C5.27362 7.58841 7.58878 5.27344 8.061 4.80122ZM31.2941 45.1875H2.81259V10.8731H9.46725C10.244 10.8731 10.8736 10.2435 10.8736 9.46688V2.8125H31.2941V10.6596C30.7662 10.5927 30.2307 10.5583 29.69 10.5584C26.3329 10.5585 23.1767 11.8658 20.8029 14.2396C15.9024 19.1399 15.9024 27.1132 20.8029 32.0136C23.2266 34.4371 26.4461 35.6976 29.6977 35.6975C30.2301 35.6975 30.7633 35.6631 31.2941 35.5951V45.1875ZM44.7774 38.2131C44.2292 38.7614 43.3371 38.7613 42.7886 38.2131L37.5274 32.952C38.227 32.3928 38.9223 31.7062 39.5162 30.9633L44.7774 36.2243C45.3258 36.7727 45.3258 37.6648 44.7774 38.2131Z" fill="#035397"/>
<path d="M30.8673 23.9312L28.1512 21.2153C27.6024 20.6664 26.7114 20.6662 26.1624 21.2153L22.3663 25.0113C21.817 25.5605 21.817 26.4509 22.3663 27C22.9154 27.5492 23.8059 27.5493 24.3551 27L27.1568 24.1984L29.8729 26.9144C30.4217 27.4633 31.3127 27.4635 31.8617 26.9144L37.1791 21.5971C37.7284 21.048 37.7284 20.1576 37.1791 19.6084C36.6299 19.0592 35.7395 19.0592 35.1903 19.6084L30.8673 23.9312Z" fill="#035397"/>
<path d="M12.9028 22.5938H7.03159C6.25487 22.5938 5.62524 23.2234 5.62524 24C5.62524 24.7766 6.25487 25.4062 7.03159 25.4062H12.9028C13.6795 25.4062 14.3091 24.7766 14.3091 24C14.3091 23.2234 13.6794 22.5938 12.9028 22.5938Z" fill="#035397"/>
<path d="M12.9028 28.2188H7.03159C6.25487 28.2188 5.62524 28.8484 5.62524 29.625C5.62524 30.4016 6.25487 31.0312 7.03159 31.0312H12.9028C13.6795 31.0312 14.3091 30.4016 14.3091 29.625C14.3091 28.8484 13.6794 28.2188 12.9028 28.2188Z" fill="#035397"/>
<path d="M12.9028 33.8438H7.03159C6.25487 33.8438 5.62524 34.4734 5.62524 35.25C5.62524 36.0266 6.25487 36.6562 7.03159 36.6562H12.9028C13.6795 36.6562 14.3091 36.0266 14.3091 35.25C14.3091 34.4734 13.6794 33.8438 12.9028 33.8438Z" fill="#035397"/>
<path d="M12.9028 16.9688H7.03159C6.25487 16.9688 5.62524 17.5984 5.62524 18.375C5.62524 19.1516 6.25487 19.7812 7.03159 19.7812H12.9028C13.6795 19.7812 14.3091 19.1516 14.3091 18.375C14.3091 17.5984 13.6794 16.9688 12.9028 16.9688Z" fill="#035397"/>
</g>
<defs>
<clipPath id="clip0_1056_5389">
<rect width="48" height="48" fill="white"/>
</clipPath>
</defs>
</svg>
