<svg width="48" height="48" viewBox="0 0 48 48" fill="none" xmlns="http://www.w3.org/2000/svg">
<path d="M47.9996 45.8855C47.9993 44.1914 46.9918 42.668 45.4329 42.0048L33.4753 36.9174V33.936C34.7413 32.3467 35.5419 30.4537 35.8099 28.4213H38.2544C40.5806 28.4213 42.4731 26.5287 42.4731 24.2025V18.1545C42.4731 16.0276 40.8904 14.2643 38.8411 13.9775C38.5371 4.82776 33.4215 0 24 0C14.5785 0 9.46289 4.82776 9.15894 13.9775C7.10962 14.2643 5.52686 16.0276 5.52686 18.1545V24.2025C5.52686 26.5287 7.41943 28.4213 9.74561 28.4213H12.1901C12.4581 30.4541 13.2587 32.347 14.5247 33.936V36.9174L2.5675 42.0048C1.00818 42.668 0.000732422 44.1914 0 45.8859V46.593C0 46.9662 0.147949 47.324 0.411987 47.5876C0.675659 47.8513 1.03345 47.9996 1.40625 47.9996H46.5938C46.9669 47.9996 47.3247 47.8513 47.5884 47.5876C47.8521 47.3236 48 46.9658 48 46.593L47.9996 45.8855ZM30.6643 37.9039C30.6654 37.9376 30.7441 41.3507 28.7281 43.4502C27.6211 44.6027 26.0303 45.1868 24 45.1868C21.9771 45.1868 20.3903 44.6067 19.2839 43.4626C17.2438 41.3522 17.335 37.9336 17.3357 37.9039C17.3368 37.8849 17.3372 37.8662 17.3372 37.8472V36.4548C19.2627 37.6732 21.5596 38.3276 24 38.3276C26.4404 38.3276 28.7373 37.6732 30.6628 36.4548V37.8472C30.6628 37.8662 30.6632 37.8849 30.6643 37.9039ZM33.0981 26.2625L30.423 28.0463C29.5734 28.6128 28.5842 28.9124 27.5625 28.9124H25.184C24.4076 28.9124 23.7777 29.5419 23.7777 30.3186C23.7777 31.0953 24.4076 31.7249 25.184 31.7249H27.5625C29.1412 31.7249 30.6702 31.262 31.9834 30.386L32.5217 30.0271C31.2528 33.3014 28.0074 35.5151 24 35.5151C18.8134 35.5151 14.9019 31.8073 14.9019 26.8901V15.4896C15.4563 12.9122 16.2594 11.2742 17.2277 10.749C18.1919 10.2253 19.593 10.7699 20.948 11.2961C22.0038 11.7059 23.001 12.0934 24 12.0934C25.0082 12.0934 25.9933 11.7019 27.0366 11.2877C28.3931 10.7487 29.6744 10.2396 30.6237 10.7347C31.3154 11.0955 32.3016 12.2186 33.0981 15.5076V26.2625ZM39.6606 18.1545V24.2025C39.6606 24.9778 39.0297 25.6088 38.2544 25.6088H35.9106V16.7483H38.2544C39.0297 16.7483 39.6606 17.3793 39.6606 18.1545ZM14.4785 6.25745C16.426 3.97156 19.6293 2.8125 24 2.8125C28.3707 2.8125 31.574 3.97156 33.5215 6.25745C35.0548 8.05737 35.8949 10.6381 36.0249 13.9358H35.5935C34.7443 10.9197 33.5658 9.09705 31.9241 8.24084C29.8326 7.15027 27.7064 7.99475 25.998 8.67371C25.2466 8.97217 24.4695 9.28088 23.9996 9.28088C23.5276 9.28088 22.7336 8.97253 21.9661 8.67444C20.1973 7.98706 17.9956 7.13196 15.8859 8.27673C14.295 9.14026 13.1433 10.9973 12.3805 13.9358H11.9751C12.1047 10.6381 12.9452 8.05737 14.4785 6.25745ZM8.33936 24.2025V18.1545C8.33936 17.3793 8.97034 16.7483 9.74561 16.7483H12.0894V25.6088H9.74561C8.97034 25.6088 8.33936 24.9778 8.33936 24.2025ZM3.66833 44.5928L14.6858 39.9053C14.9326 41.4313 15.5457 43.5077 17.0486 45.1871H2.99854C3.14758 44.9268 3.37976 44.7155 3.66833 44.5928ZM30.9514 45.1871C32.4543 43.5077 33.0674 41.4313 33.3142 39.9053L44.3317 44.5928C44.6202 44.7155 44.8521 44.9268 45.0015 45.1871H30.9514Z" fill="#A760FF"/>
</svg>
