<svg width="62" height="80" viewBox="0 0 62 80" fill="none" xmlns="http://www.w3.org/2000/svg">
<path d="M57.4738 56.8037C54.8975 53.6169 51.272 51.3891 47.265 50.5305L39.5938 48.8866V44.4384C43.6458 41.9366 46.5327 37.7223 47.2381 32.8125H48.1875C52.0645 32.8125 55.2188 29.6583 55.2188 25.7812C55.2188 21.9042 52.0645 18.75 48.1875 18.75H47.4062V8.59375C47.4062 3.85516 43.5511 0 38.8125 0H20.0625C13.6008 0 8.34375 5.25703 8.34375 11.7188C8.34375 14.6011 9.39172 17.242 11.1241 19.2853C8.57719 20.3433 6.78125 22.8559 6.78125 25.7812C6.78125 29.6583 9.93547 32.8125 13.8125 32.8125H14.7619C15.4673 37.7223 18.3542 41.9366 22.4062 44.4384V48.8866L14.735 50.5305C10.728 51.3891 7.1025 53.617 4.52625 56.8037C1.95 59.9905 0.53125 64.0023 0.53125 68.1003V77.6562C0.53125 78.9506 1.58062 80 2.875 80H59.125C60.4194 80 61.4688 78.9506 61.4688 77.6562V68.1003C61.4688 64.0023 60.05 59.9905 57.4738 56.8037ZM47.4062 23.4375H48.1875C49.4798 23.4375 50.5312 24.4889 50.5312 25.7812C50.5312 27.0736 49.4798 28.125 48.1875 28.125H47.4062V23.4375ZM14.5938 28.125H13.8125C12.5202 28.125 11.4688 27.0736 11.4688 25.7812C11.4688 24.4889 12.5202 23.4375 13.8125 23.4375H14.5938V28.125ZM17.7188 14.8438V18.3484C14.9905 17.3813 13.0312 14.7745 13.0312 11.7188C13.0312 7.84172 16.1855 4.6875 20.0625 4.6875H38.8125C40.9664 4.6875 42.7188 6.43984 42.7188 8.59375V12.5H20.0625C18.7681 12.5 17.7188 13.5494 17.7188 14.8438ZM19.2812 30.4688V23.4086C19.5398 23.4258 19.7997 23.4375 20.0625 23.4375C21.3569 23.4375 22.4062 22.3881 22.4062 21.0938V17.1875H42.7188V30.4688C42.7188 36.9305 37.4617 42.1875 31 42.1875C24.5383 42.1875 19.2812 36.9305 19.2812 30.4688ZM22.7877 75.3125H5.21875V68.1003C5.21875 61.8791 9.63406 56.4173 15.717 55.1139L23.1898 53.5125L25.4628 60.3314L22.7877 75.3125ZM27.5494 75.3125L29.8373 62.5H32.1627L34.4506 75.3125H27.5494ZM28.4223 54.3867C29.2756 54.5219 30.1377 54.5913 31 54.5913C31.8623 54.5913 32.7244 54.522 33.5777 54.3867L32.4356 57.8125H29.5642L28.4223 54.3867ZM34.9062 49.2355C32.3877 50.1292 29.6123 50.1292 27.0938 49.2355V46.4039C28.3463 46.7109 29.6542 46.875 31 46.875C32.3458 46.875 33.6538 46.7109 34.9062 46.4039V49.2355ZM56.7812 75.3125H39.2123L36.5372 60.3314L38.8102 53.5125L46.283 55.1139C52.3659 56.4173 56.7812 61.8789 56.7812 68.1003V75.3125Z" fill="#667085"/>
</svg>
