<svg width="24" height="24" viewBox="0 0 24 24" fill="none" xmlns="http://www.w3.org/2000/svg">
<path d="M13.3962 17.42H10.8863C9.24625 17.42 7.91625 16.04 7.91625 14.34C7.91625 13.93 8.25625 13.59 8.66625 13.59C9.07625 13.59 9.41625 13.93 9.41625 14.34C9.41625 15.21 10.0763 15.92 10.8863 15.92H13.3962C14.0462 15.92 14.5863 15.34 14.5863 14.64C14.5863 13.77 14.2763 13.6 13.7663 13.42L9.73625 12C8.95625 11.73 7.90625 11.15 7.90625 9.36C7.90625 7.82 9.11625 6.58 10.5963 6.58H13.1062C14.7462 6.58 16.0763 7.96 16.0763 9.66C16.0763 10.07 15.7362 10.41 15.3263 10.41C14.9163 10.41 14.5763 10.07 14.5763 9.66C14.5763 8.79 13.9162 8.08 13.1062 8.08H10.5963C9.94625 8.08 9.40625 8.66 9.40625 9.36C9.40625 10.23 9.71625 10.4 10.2262 10.58L14.2563 12C15.0363 12.27 16.0863 12.85 16.0863 14.64C16.0763 16.17 14.8762 17.42 13.3962 17.42Z" fill="#667085"/>
<path d="M12 18.75C11.59 18.75 11.25 18.41 11.25 18V6C11.25 5.59 11.59 5.25 12 5.25C12.41 5.25 12.75 5.59 12.75 6V18C12.75 18.41 12.41 18.75 12 18.75Z" fill="#667085"/>
<path d="M15 22.75H9C3.57 22.75 1.25 20.43 1.25 15V9C1.25 3.57 3.57 1.25 9 1.25H15C20.43 1.25 22.75 3.57 22.75 9V15C22.75 20.43 20.43 22.75 15 22.75ZM9 2.75C4.39 2.75 2.75 4.39 2.75 9V15C2.75 19.61 4.39 21.25 9 21.25H15C19.61 21.25 21.25 19.61 21.25 15V9C21.25 4.39 19.61 2.75 15 2.75H9Z" fill="#667085"/>
</svg>
