<svg width="80" height="80" viewBox="0 0 80 80" fill="none" xmlns="http://www.w3.org/2000/svg">
<path d="M40 70.625C41.2944 70.625 42.3438 69.5757 42.3438 68.2812C42.3438 66.9868 41.2944 65.9375 40 65.9375C38.7056 65.9375 37.6562 66.9868 37.6562 68.2812C37.6562 69.5757 38.7056 70.625 40 70.625Z" fill="#6176F6"/>
<path d="M2.34375 80H77.6562C78.9506 80 80 78.9506 80 77.6562V75.3125C80 70.09 75.6075 65.9375 70.4688 65.9375C69.6594 65.9375 68.8623 66.0442 68.0941 66.2456L70.4238 54.5192C70.5605 53.8311 70.3817 53.1178 69.9366 52.5755C69.4914 52.0331 68.8267 51.7188 68.125 51.7188H65.7812V49.375C65.7812 42.9133 60.5242 37.6562 54.0625 37.6562H49.375C48.0827 37.6562 47.0312 36.6048 47.0312 35.3125V35.3061C49.8756 33.1659 51.7188 29.7631 51.7188 25.9375C51.7188 24.4055 51.7188 13.3697 51.7188 11.7188C51.7188 7.84172 48.5645 4.6875 44.6875 4.6875H37.6562C36.3639 4.6875 35.3125 3.63609 35.3125 2.34375C35.3125 1.04937 34.2631 0 32.9688 0H30.625C25.4556 0 21.25 4.20563 21.25 9.375C21.25 13.7353 24.2423 17.41 28.2812 18.4533V25.9375C28.2812 29.7631 30.1244 33.1659 32.9688 35.3061V35.3125C32.9688 36.6048 31.9173 37.6562 30.625 37.6562H25.9375C19.4758 37.6562 14.2188 42.9133 14.2188 49.375V51.7188H11.875C11.1733 51.7188 10.5086 52.0331 10.0634 52.5755C9.61828 53.1178 9.43953 53.8311 9.57625 54.5192L11.9059 66.2456C11.1377 66.0442 10.3406 65.9375 9.53125 65.9375C4.39141 65.9375 0 70.0912 0 75.3125V77.6562C0 78.9506 1.04937 80 2.34375 80V80ZM65.2698 56.4062L61.5136 75.3125H18.4864L14.7302 56.4062H65.2698ZM70.4688 70.625C73.0944 70.625 75.3125 72.7716 75.3125 75.3125H66.2927L66.897 72.2706C67.932 71.1598 69.108 70.625 70.4688 70.625ZM40 32.9688C36.123 32.9688 32.9688 29.8145 32.9688 25.9375V18.75H47.0312V25.9375C47.0312 29.8145 43.877 32.9688 40 32.9688ZM25.9375 9.375C25.9375 6.79031 28.0403 4.6875 30.625 4.6875H31.0266C31.9939 7.41578 34.6006 9.375 37.6562 9.375H44.6875C45.9798 9.375 47.0312 10.4264 47.0312 11.7188V14.0625H30.625C28.0403 14.0625 25.9375 11.9597 25.9375 9.375ZM40 37.6562C40.9102 37.6562 41.7952 37.5486 42.6463 37.3513C43.2692 39.4036 44.8073 41.0602 46.7834 41.8467C45.9702 44.8305 43.238 47.0312 40 47.0312C36.762 47.0312 34.0298 44.8305 33.2166 41.8467C35.1927 41.0602 36.7308 39.4036 37.3537 37.3513C38.2048 37.5486 39.0898 37.6562 40 37.6562ZM18.9062 49.375C18.9062 45.498 22.0605 42.3438 25.9375 42.3438H28.517C29.6058 47.6863 34.3408 51.7188 40 51.7188C45.6592 51.7188 50.3941 47.6863 51.483 42.3438H54.0625C57.9395 42.3438 61.0938 45.498 61.0938 49.375V51.7188H18.9062V49.375ZM9.53125 70.625C10.8784 70.625 12.0572 71.1489 13.103 72.2706L13.7073 75.3125H4.6875C4.6875 72.7716 6.90562 70.625 9.53125 70.625V70.625Z" fill="#667085"/>
</svg>
