<svg width="24" height="24" viewBox="0 0 24 24" fill="none" xmlns="http://www.w3.org/2000/svg">
<path d="M15 22.75H9C3.57 22.75 1.25 20.43 1.25 15V9C1.25 3.57 3.57 1.25 9 1.25H15C20.43 1.25 22.75 3.57 22.75 9V15C22.75 20.43 20.43 22.75 15 22.75ZM9 2.75C4.39 2.75 2.75 4.39 2.75 9V15C2.75 19.61 4.39 21.25 9 21.25H15C19.61 21.25 21.25 19.61 21.25 15V9C21.25 4.39 19.61 2.75 15 2.75H9Z" fill="#667085"/>
<path d="M8.56781 16.02C8.37781 16.02 8.18781 15.95 8.03781 15.8C7.74781 15.51 7.74781 15.03 8.03781 14.74L14.5878 8.19003C14.8778 7.90003 15.3578 7.90003 15.6478 8.19003C15.9378 8.48003 15.9378 8.96003 15.6478 9.25003L9.09781 15.8C8.94781 15.95 8.75781 16.02 8.56781 16.02Z" fill="#667085"/>
<path d="M8.98001 11.11C7.89001 11.11 7 10.22 7 9.13004C7 8.04004 7.89001 7.15002 8.98001 7.15002C10.07 7.15002 10.96 8.04004 10.96 9.13004C10.96 10.22 10.07 11.11 8.98001 11.11ZM8.98001 8.66003C8.72001 8.66003 8.5 8.87005 8.5 9.14005C8.5 9.41005 8.71001 9.62003 8.98001 9.62003C9.25001 9.62003 9.45999 9.41005 9.45999 9.14005C9.45999 8.87005 9.24001 8.66003 8.98001 8.66003Z" fill="#667085"/>
<path d="M15.519 16.84C14.429 16.84 13.5391 15.95 13.5391 14.86C13.5391 13.77 14.429 12.88 15.519 12.88C16.609 12.88 17.4991 13.77 17.4991 14.86C17.4991 15.95 16.609 16.84 15.519 16.84ZM15.519 14.39C15.259 14.39 15.0391 14.6 15.0391 14.87C15.0391 15.14 15.249 15.35 15.519 15.35C15.789 15.35 15.9991 15.14 15.9991 14.87C15.9991 14.6 15.789 14.39 15.519 14.39Z" fill="#667085"/>
</svg>
