<svg width="24" height="24" viewBox="0 0 24 24" fill="none" xmlns="http://www.w3.org/2000/svg">
<path d="M12.0199 20.53C9.68987 20.53 7.35987 20.16 5.14987 19.42C4.30987 19.13 3.66987 18.54 3.38987 17.77C3.09987 17 3.19987 16.15 3.65987 15.39L4.80987 13.48C5.04987 13.08 5.26987 12.28 5.26987 11.81V8.92001C5.26987 5.20001 8.29987 2.17001 12.0199 2.17001C15.7399 2.17001 18.7699 5.20001 18.7699 8.92001V11.81C18.7699 12.27 18.9899 13.08 19.2299 13.49L20.3699 15.39C20.7999 16.11 20.8799 16.98 20.5899 17.77C20.2999 18.56 19.6699 19.16 18.8799 19.42C16.6799 20.16 14.3499 20.53 12.0199 20.53ZM12.0199 3.67001C9.12987 3.67001 6.76987 6.02001 6.76987 8.92001V11.81C6.76987 12.54 6.46987 13.62 6.09987 14.25L4.94987 16.16C4.72987 16.53 4.66987 16.92 4.79987 17.25C4.91987 17.59 5.21987 17.85 5.62987 17.99C9.80987 19.39 14.2399 19.39 18.4199 17.99C18.7799 17.87 19.0599 17.6 19.1899 17.24C19.3199 16.88 19.2899 16.49 19.0899 16.16L17.9399 14.25C17.5599 13.6 17.2699 12.53 17.2699 11.8V8.92001C17.2699 6.02001 14.9199 3.67001 12.0199 3.67001Z" fill="#667085"/>
<path d="M13.8767 3.93999C13.8067 3.93999 13.7367 3.92999 13.6667 3.90999C13.3767 3.82999 13.0967 3.76999 12.8267 3.72999C11.9767 3.61999 11.1567 3.67999 10.3867 3.90999C10.1067 3.99999 9.8067 3.90999 9.6167 3.69999C9.4267 3.48999 9.3667 3.18999 9.4767 2.91999C9.8867 1.86999 10.8867 1.17999 12.0267 1.17999C13.1667 1.17999 14.1667 1.85999 14.5767 2.91999C14.6767 3.18999 14.6267 3.48999 14.4367 3.69999C14.2867 3.85999 14.0767 3.93999 13.8767 3.93999Z" fill="#667085"/>
<path d="M12.0234 22.81C11.0334 22.81 10.0734 22.41 9.37344 21.71C8.67344 21.01 8.27344 20.05 8.27344 19.06H9.77344C9.77344 19.65 10.0134 20.23 10.4334 20.65C10.8534 21.07 11.4334 21.31 12.0234 21.31C13.2634 21.31 14.2734 20.3 14.2734 19.06H15.7734C15.7734 21.13 14.0934 22.81 12.0234 22.81Z" fill="#667085"/>
</svg>
