<svg width="20" height="20" viewBox="0 0 20 20" fill="none" xmlns="http://www.w3.org/2000/svg">
<path d="M3.72454 19.1878L3.72459 19.1877L3.71307 19.184C2.67927 18.8516 1.88623 18.2538 1.34694 17.4309C0.804893 16.6039 0.5 15.5195 0.5 14.19V5.81C0.5 4.08944 1.01093 2.77618 1.89355 1.89355C2.77618 1.01093 4.08944 0.5 5.81 0.5H14.19C15.9106 0.5 17.2238 1.01093 18.1064 1.89355C18.9891 2.77618 19.5 4.08944 19.5 5.81V14.19C19.5 15.5195 19.1951 16.6039 18.6531 17.4309C18.1138 18.2538 17.3207 18.8516 16.2869 19.184L16.2869 19.1839L16.2755 19.1878C15.68 19.3954 14.9777 19.5 14.19 19.5H5.81C5.02226 19.5 4.32004 19.3954 3.72454 19.1878ZM15.5242 18.4664L15.719 18.8499L16.1273 18.7146C17.0692 18.4025 17.8026 17.8579 18.2929 17.0722C18.7781 16.2947 19 15.322 19 14.19V5.81C19 4.31593 18.6043 3.09221 17.7561 2.24395C16.9078 1.39568 15.6841 1 14.19 1H5.81C4.31593 1 3.09221 1.39568 2.24395 2.24395C1.39568 3.09221 1 4.31593 1 5.81V14.2C1 15.3328 1.22467 16.3077 1.70957 17.0847C2.19959 17.8699 2.93096 18.4133 3.86617 18.7157L3.94117 18.74H4.02H4.03H4.33616L4.47534 18.4673C5.35636 16.7412 7.45607 15.47 10 15.47C12.5441 15.47 14.6532 16.7513 15.5242 18.4664Z" fill="#667085" stroke="#667085"/>
<path d="M10.0019 6C8.02187 6 6.42188 7.6 6.42188 9.58C6.42188 11.56 8.02187 13.17 10.0019 13.17C11.9819 13.17 13.5819 11.56 13.5819 9.58C13.5819 7.6 11.9819 6 10.0019 6Z" fill="#667085"/>
</svg>
