<svg width="28" height="28" viewBox="0 0 28 28" fill="none" xmlns="http://www.w3.org/2000/svg">
<path d="M13.9987 26.5416C7.08036 26.5416 1.45703 20.9183 1.45703 14C1.45703 7.08165 7.08036 1.45831 13.9987 1.45831C20.917 1.45831 26.5404 7.08165 26.5404 14C26.5404 20.9183 20.917 26.5416 13.9987 26.5416ZM13.9987 3.20831C8.0487 3.20831 3.20703 8.04998 3.20703 14C3.20703 19.95 8.0487 24.7916 13.9987 24.7916C19.9487 24.7916 24.7904 19.95 24.7904 14C24.7904 8.04998 19.9487 3.20831 13.9987 3.20831Z" fill="#65C18C"/>
<path d="M12.3417 18.1767C12.1084 18.1767 11.8867 18.0833 11.7234 17.92L8.42172 14.6183C8.08339 14.28 8.08339 13.72 8.42172 13.3817C8.76005 13.0433 9.32005 13.0433 9.65839 13.3817L12.3417 16.065L18.3384 10.0683C18.6767 9.72999 19.2367 9.72999 19.5751 10.0683C19.9134 10.4067 19.9134 10.9667 19.5751 11.305L12.9601 17.92C12.7967 18.0833 12.5751 18.1767 12.3417 18.1767Z" fill="#65C18C"/>
</svg>
