<svg width="28" height="28" viewBox="0 0 28 28" fill="none" xmlns="http://www.w3.org/2000/svg">
<g clip-path="url(#clip0_1607_10429)">
<path d="M24.9832 0H3.017C1.3533 0 0 1.3533 0 3.017V24.9832C0 26.6467 1.3533 28 3.017 28H24.9832C26.6467 28 28 26.6467 28 24.9832V3.017C28 1.3533 26.6467 0 24.9832 0V0ZM3.017 1.64062H24.9832C25.742 1.64062 26.3594 2.258 26.3594 3.017V8.78653H1.64062V3.017C1.64062 2.258 2.258 1.64062 3.017 1.64062ZM24.9832 26.3594H3.017C2.258 26.3594 1.64062 25.742 1.64062 24.9832V10.4272H26.3594V24.9832C26.3594 25.742 25.742 26.3594 24.9832 26.3594Z" fill="#65C18C"/>
<path d="M22.7838 21.9663H5.21094C4.75784 21.9663 4.39062 22.3335 4.39062 22.7866C4.39062 23.2395 4.75784 23.6069 5.21094 23.6069H22.7838C23.2367 23.6069 23.6041 23.2395 23.6041 22.7866C23.6041 22.3335 23.2367 21.9663 22.7838 21.9663Z" fill="#65C18C"/>
<path d="M22.7891 6.03369C23.005 6.03369 23.2161 5.94632 23.3686 5.79379C23.5218 5.64105 23.6094 5.42957 23.6094 5.21338C23.6094 4.99741 23.5218 4.78635 23.3686 4.63382C23.2161 4.48065 23.005 4.39307 22.7891 4.39307C22.5729 4.39307 22.3614 4.48065 22.2086 4.63382C22.0561 4.78635 21.9688 4.99741 21.9688 5.21338C21.9688 5.42957 22.0561 5.64105 22.2086 5.79379C22.3614 5.94632 22.5729 6.03369 22.7891 6.03369Z" fill="#65C18C"/>
<path d="M18.3906 6.03369C18.6068 6.03369 18.8183 5.94632 18.971 5.79379C19.1236 5.64105 19.2109 5.42957 19.2109 5.21338C19.2109 4.99741 19.1236 4.78635 18.971 4.63382C18.8183 4.48065 18.6068 4.39307 18.3906 4.39307C18.1753 4.39307 17.9636 4.48065 17.8111 4.63382C17.6585 4.78635 17.5703 4.99741 17.5703 5.21338C17.5703 5.42957 17.6585 5.64105 17.8111 5.79379C17.9636 5.94632 18.1747 6.03369 18.3906 6.03369Z" fill="#65C18C"/>
<path d="M14 6.03369C14.216 6.03369 14.427 5.94632 14.5802 5.79379C14.7327 5.64105 14.8203 5.42957 14.8203 5.21338C14.8203 4.99741 14.7327 4.78635 14.5802 4.63382C14.427 4.48065 14.216 4.39307 14 4.39307C13.784 4.39307 13.573 4.48065 13.4198 4.63382C13.2673 4.78635 13.1797 4.99741 13.1797 5.21338C13.1797 5.42957 13.2673 5.64105 13.4198 5.79379C13.5723 5.94632 13.784 6.03369 14 6.03369Z" fill="#65C18C"/>
<path d="M5.21094 6.03369H9.6041C10.057 6.03369 10.4244 5.66647 10.4244 5.21338C10.4244 4.7605 10.057 4.39307 9.6041 4.39307H5.21094C4.75784 4.39307 4.39062 4.7605 4.39062 5.21338C4.39062 5.66647 4.75784 6.03369 5.21094 6.03369Z" fill="#65C18C"/>
<path d="M7.40741 19.2137C9.07089 19.2137 10.4244 17.8602 10.4244 16.1967C10.4244 14.533 9.07089 13.1797 7.40741 13.1797C5.74393 13.1797 4.39062 14.533 4.39062 16.1967C4.39062 17.8602 5.74393 19.2137 7.40741 19.2137ZM7.40741 14.8203C8.16641 14.8203 8.78378 15.4377 8.78378 16.1967C8.78378 16.9555 8.16641 17.5731 7.40741 17.5731C6.64841 17.5731 6.03125 16.9555 6.03125 16.1967C6.03125 15.4377 6.64841 14.8203 7.40741 14.8203Z" fill="#65C18C"/>
<path d="M22.7865 13.1797H14C13.5469 13.1797 13.1797 13.5469 13.1797 14C13.1797 14.4531 13.5469 14.8203 14 14.8203H22.7865C23.2394 14.8203 23.6068 14.4531 23.6068 14C23.6068 13.5469 23.2394 13.1797 22.7865 13.1797Z" fill="#65C18C"/>
<path d="M22.7865 17.573H14C13.5469 17.573 13.1797 17.9402 13.1797 18.3933C13.1797 18.8462 13.5469 19.2136 14 19.2136H22.7865C23.2394 19.2136 23.6068 18.8462 23.6068 18.3933C23.6068 17.9402 23.2394 17.573 22.7865 17.573Z" fill="#65C18C"/>
</g>
<defs>
<clipPath id="clip0_1607_10429">
<rect width="28" height="28" fill="white"/>
</clipPath>
</defs>
</svg>
