<svg width="26" height="28" viewBox="0 0 26 28" fill="none" xmlns="http://www.w3.org/2000/svg">
<path d="M22.1654 5.8737C20.1589 3.86721 17.6103 2.60027 14.85 2.20821L15.6578 1.40031C15.9782 1.07996 15.9782 0.560588 15.6578 0.240228C15.3375 -0.0800762 14.8181 -0.0800762 14.4977 0.240228L12.4203 2.31764C12.1 2.63795 12.1 3.15737 12.4203 3.47773L14.4977 5.55509C14.6579 5.71527 14.8678 5.79538 15.0777 5.79538C15.2876 5.79538 15.4976 5.71527 15.6577 5.55509C15.9781 5.23478 15.9781 4.71536 15.6577 4.395L15.1949 3.93224C20.3904 4.95708 24.321 9.54717 24.321 15.0387C24.3211 21.2809 19.2426 26.3594 13.0004 26.3594C6.75819 26.3594 1.67969 21.2809 1.67969 15.0387C1.67969 12.6568 2.4107 10.3783 3.79374 8.44959C5.14808 6.56085 7.01511 5.15149 9.19315 4.37395C9.61982 4.22159 9.84218 3.75226 9.68987 3.32553C9.53757 2.89886 9.06813 2.6765 8.64146 2.82881C6.14755 3.71917 4.0102 5.33224 2.46041 7.49354C0.876328 9.7027 0.0390625 12.3118 0.0390625 15.0388C0.0390625 18.5009 1.38727 21.7557 3.83536 24.2038C6.28345 26.6517 9.53828 28 13.0004 28C16.4625 28 19.7173 26.6518 22.1654 24.2037C24.6135 21.7557 25.9617 18.5008 25.9617 15.0387C25.9617 11.5766 24.6134 8.32173 22.1654 5.8737Z" fill="#EB4747"/>
<path d="M4.57031 15.0386C4.57031 19.6859 8.35119 23.4668 12.9985 23.4668C17.6458 23.4668 21.4267 19.6859 21.4267 15.0386C21.4267 10.3913 17.6458 6.61035 12.9985 6.61035C8.35113 6.61035 4.57031 10.3913 4.57031 15.0386ZM12.9985 8.25098C16.7412 8.25098 19.7861 11.2959 19.7861 15.0386C19.7861 18.7812 16.7412 21.8262 12.9985 21.8262C9.25588 21.8262 6.21094 18.7813 6.21094 15.0386C6.21094 11.296 9.25583 8.25098 12.9985 8.25098Z" fill="#EB4747"/>
<path d="M14 14.2247C13.351 13.9953 12.6342 13.7189 12.2382 13.4082C12.1391 13.3305 12.0968 13.1335 12.1353 12.9292C12.1555 12.822 12.2494 12.4639 12.6101 12.3553C13.2448 12.164 13.6773 12.4156 13.8338 12.5324C14.1968 12.8038 14.7108 12.7295 14.982 12.3666C15.2533 12.0037 15.179 11.4897 14.8162 11.2184C14.6658 11.106 14.299 10.8655 13.7742 10.735V10.5149C13.7742 10.0619 13.4069 9.69458 12.9538 9.69458C12.5008 9.69458 12.1335 10.0619 12.1335 10.5149V10.7855C11.3067 11.036 10.6897 11.7405 10.523 12.6253C10.3689 13.4436 10.6381 14.2382 11.2258 14.6991C11.8069 15.155 12.6397 15.4839 13.4531 15.7715C14.0948 15.9982 14.1137 16.4896 14.0679 16.7623C13.9914 17.2174 13.6084 17.7094 12.9484 17.7138C12.2592 17.7183 12.0631 17.6873 11.543 17.3469C11.1638 17.0988 10.6554 17.2051 10.4074 17.5843C10.1594 17.9635 10.2656 18.4719 10.6448 18.7199C11.2106 19.0901 11.6346 19.2515 12.1335 19.3161V19.5622C12.1335 20.0153 12.5008 20.3825 12.9538 20.3825C13.4069 20.3825 13.7742 20.0153 13.7742 19.5622V19.2322C14.1607 19.1147 14.5139 18.9138 14.8184 18.6341C15.2748 18.2147 15.5828 17.6465 15.6858 17.0342C15.8959 15.7845 15.2184 14.6554 14 14.2247Z" fill="#EB4747"/>
</svg>
