<?xml version="1.0" encoding="UTF-8"?>
<svg xmlns="http://www.w3.org/2000/svg" version="1.1" width="200" height="200" viewBox="0 0 200 200"><rect x="0" y="0" width="200" height="200" fill="#fefefe"/><g transform="scale(4.082)"><g transform="translate(4,4)"><path fill-rule="evenodd" d="M10 0L10 1L11 1L11 2L10 2L10 3L8 3L8 4L9 4L9 5L8 5L8 7L9 7L9 6L10 6L10 7L11 7L11 6L12 6L12 10L11 10L11 11L12 11L12 12L9 12L9 10L8 10L8 9L11 9L11 8L6 8L6 9L7 9L7 10L6 10L6 11L7 11L7 12L5 12L5 10L3 10L3 9L5 9L5 8L0 8L0 11L2 11L2 12L0 12L0 13L2 13L2 14L1 14L1 15L0 15L0 17L3 17L3 18L4 18L4 19L3 19L3 20L4 20L4 21L5 21L5 20L4 20L4 19L5 19L5 18L6 18L6 19L10 19L10 18L11 18L11 17L12 17L12 15L13 15L13 18L12 18L12 19L13 19L13 20L14 20L14 21L15 21L15 23L14 23L14 22L13 22L13 21L12 21L12 22L13 22L13 23L12 23L12 25L11 25L11 23L9 23L9 22L8 22L8 21L9 21L9 20L8 20L8 21L7 21L7 20L6 20L6 21L7 21L7 22L6 22L6 23L7 23L7 24L6 24L6 25L7 25L7 24L8 24L8 25L9 25L9 26L11 26L11 27L8 27L8 26L6 26L6 27L7 27L7 28L6 28L6 29L5 29L5 28L4 28L4 29L2 29L2 28L0 28L0 33L1 33L1 29L2 29L2 31L3 31L3 32L2 32L2 33L3 33L3 32L4 32L4 33L5 33L5 32L4 32L4 31L8 31L8 35L9 35L9 34L10 34L10 36L8 36L8 41L10 41L10 40L11 40L11 38L10 38L10 37L11 37L11 33L12 33L12 34L13 34L13 36L14 36L14 37L15 37L15 38L14 38L14 39L15 39L15 40L13 40L13 39L12 39L12 40L13 40L13 41L16 41L16 39L17 39L17 40L18 40L18 41L19 41L19 40L20 40L20 41L21 41L21 39L17 39L17 38L16 38L16 37L17 37L17 36L20 36L20 38L22 38L22 39L23 39L23 40L22 40L22 41L23 41L23 40L24 40L24 39L26 39L26 38L24 38L24 39L23 39L23 38L22 38L22 36L24 36L24 37L27 37L27 38L28 38L28 37L30 37L30 38L29 38L29 39L28 39L28 40L26 40L26 41L29 41L29 39L30 39L30 38L31 38L31 40L32 40L32 41L38 41L38 39L40 39L40 40L41 40L41 39L40 39L40 38L38 38L38 35L39 35L39 36L40 36L40 35L39 35L39 34L41 34L41 31L39 31L39 30L40 30L40 29L39 29L39 30L38 30L38 28L37 28L37 27L33 27L33 26L34 26L34 25L33 25L33 26L32 26L32 27L30 27L30 26L28 26L28 27L29 27L29 29L28 29L28 28L27 28L27 27L26 27L26 26L25 26L25 25L28 25L28 24L30 24L30 25L31 25L31 24L33 24L33 20L35 20L35 23L34 23L34 24L35 24L35 23L36 23L36 25L37 25L37 26L38 26L38 27L39 27L39 26L38 26L38 25L39 25L39 24L37 24L37 23L39 23L39 22L38 22L38 21L37 21L37 19L39 19L39 21L40 21L40 20L41 20L41 19L39 19L39 18L41 18L41 17L39 17L39 16L41 16L41 13L40 13L40 15L39 15L39 14L38 14L38 13L37 13L37 12L38 12L38 11L39 11L39 12L41 12L41 10L38 10L38 8L37 8L37 11L36 11L36 13L37 13L37 15L36 15L36 14L35 14L35 13L34 13L34 14L32 14L32 13L33 13L33 12L35 12L35 11L33 11L33 10L31 10L31 11L30 11L30 10L29 10L29 11L28 11L28 10L27 10L27 9L29 9L29 8L27 8L27 9L26 9L26 11L25 11L25 10L23 10L23 9L22 9L22 8L21 8L21 6L20 6L20 7L19 7L19 6L18 6L18 5L16 5L16 4L17 4L17 3L18 3L18 2L19 2L19 3L24 3L24 4L26 4L26 5L25 5L25 6L24 6L24 7L23 7L23 4L20 4L20 5L22 5L22 7L23 7L23 8L24 8L24 7L25 7L25 8L26 8L26 7L27 7L27 5L28 5L28 7L29 7L29 6L30 6L30 8L32 8L32 7L33 7L33 6L32 6L32 7L31 7L31 6L30 6L30 5L29 5L29 2L30 2L30 4L31 4L31 5L33 5L33 4L31 4L31 3L33 3L33 2L30 2L30 1L29 1L29 0L27 0L27 1L26 1L26 3L24 3L24 2L25 2L25 0L24 0L24 2L23 2L23 0L21 0L21 1L22 1L22 2L19 2L19 1L20 1L20 0L19 0L19 1L16 1L16 0L15 0L15 1L14 1L14 0L13 0L13 1L11 1L11 0ZM31 0L31 1L33 1L33 0ZM8 1L8 2L9 2L9 1ZM27 1L27 3L26 3L26 4L27 4L27 3L28 3L28 2L29 2L29 1ZM14 2L14 3L13 3L13 8L15 8L15 7L16 7L16 8L19 8L19 11L17 11L17 10L18 10L18 9L15 9L15 10L14 10L14 9L13 9L13 13L11 13L11 14L10 14L10 13L8 13L8 14L7 14L7 13L6 13L6 14L5 14L5 13L4 13L4 12L3 12L3 13L4 13L4 16L3 16L3 14L2 14L2 15L1 15L1 16L3 16L3 17L4 17L4 16L5 16L5 15L6 15L6 16L7 16L7 15L9 15L9 16L8 16L8 17L9 17L9 18L10 18L10 17L9 17L9 16L10 16L10 15L11 15L11 14L13 14L13 15L14 15L14 16L15 16L15 17L14 17L14 18L15 18L15 19L14 19L14 20L15 20L15 19L17 19L17 21L16 21L16 22L18 22L18 23L16 23L16 25L17 25L17 28L16 28L16 29L17 29L17 30L15 30L15 33L16 33L16 35L17 35L17 33L18 33L18 35L19 35L19 34L20 34L20 35L22 35L22 34L20 34L20 32L19 32L19 31L20 31L20 30L21 30L21 31L22 31L22 32L21 32L21 33L23 33L23 35L25 35L25 36L28 36L28 35L27 35L27 34L30 34L30 35L29 35L29 36L31 36L31 37L32 37L32 36L31 36L31 35L32 35L32 32L30 32L30 33L26 33L26 31L24 31L24 32L23 32L23 31L22 31L22 30L24 30L24 29L25 29L25 30L26 30L26 29L27 29L27 28L26 28L26 27L25 27L25 26L24 26L24 24L25 24L25 23L24 23L24 22L26 22L26 21L27 21L27 20L28 20L28 22L27 22L27 23L26 23L26 24L28 24L28 23L29 23L29 22L30 22L30 23L32 23L32 20L33 20L33 19L35 19L35 20L36 20L36 19L37 19L37 16L39 16L39 15L37 15L37 16L35 16L35 18L34 18L34 16L33 16L33 18L32 18L32 20L30 20L30 19L31 19L31 18L30 18L30 17L32 17L32 16L30 16L30 17L29 17L29 16L28 16L28 15L29 15L29 14L30 14L30 15L32 15L32 14L30 14L30 13L32 13L32 12L29 12L29 14L27 14L27 12L28 12L28 11L26 11L26 12L25 12L25 11L24 11L24 12L23 12L23 14L24 14L24 13L25 13L25 14L27 14L27 15L24 15L24 16L23 16L23 15L22 15L22 14L20 14L20 15L21 15L21 16L23 16L23 17L22 17L22 18L21 18L21 17L20 17L20 16L18 16L18 15L19 15L19 13L20 13L20 12L19 12L19 11L21 11L21 12L22 12L22 11L23 11L23 10L20 10L20 8L19 8L19 7L18 7L18 6L17 6L17 7L16 7L16 6L15 6L15 7L14 7L14 5L15 5L15 4L14 4L14 3L15 3L15 2ZM10 3L10 6L11 6L11 5L12 5L12 3ZM25 6L25 7L26 7L26 6ZM33 8L33 9L34 9L34 10L36 10L36 8L35 8L35 9L34 9L34 8ZM39 8L39 9L40 9L40 8ZM1 9L1 10L2 10L2 9ZM7 10L7 11L8 11L8 10ZM15 10L15 11L14 11L14 12L15 12L15 13L14 13L14 15L15 15L15 14L17 14L17 15L16 15L16 17L17 17L17 15L18 15L18 14L17 14L17 13L19 13L19 12L17 12L17 11L16 11L16 10ZM16 12L16 13L17 13L17 12ZM6 14L6 15L7 15L7 14ZM34 14L34 15L35 15L35 14ZM26 16L26 19L28 19L28 20L29 20L29 21L30 21L30 20L29 20L29 19L30 19L30 18L29 18L29 17L28 17L28 16ZM6 17L6 18L7 18L7 17ZM19 17L19 18L17 18L17 19L19 19L19 20L18 20L18 22L19 22L19 24L20 24L20 25L18 25L18 30L17 30L17 31L16 31L16 33L17 33L17 32L18 32L18 31L19 31L19 30L20 30L20 29L19 29L19 28L20 28L20 27L21 27L21 28L22 28L22 29L21 29L21 30L22 30L22 29L23 29L23 28L25 28L25 27L23 27L23 28L22 28L22 27L21 27L21 26L22 26L22 25L23 25L23 24L24 24L24 23L23 23L23 24L22 24L22 25L21 25L21 23L20 23L20 22L19 22L19 20L20 20L20 21L21 21L21 22L22 22L22 21L23 21L23 22L24 22L24 21L23 21L23 20L24 20L24 19L25 19L25 18L24 18L24 17L23 17L23 18L24 18L24 19L21 19L21 18L20 18L20 17ZM38 17L38 18L39 18L39 17ZM0 18L0 21L1 21L1 23L2 23L2 24L1 24L1 26L3 26L3 25L4 25L4 27L5 27L5 24L4 24L4 23L5 23L5 22L3 22L3 21L1 21L1 20L2 20L2 18ZM19 18L19 19L20 19L20 18ZM35 18L35 19L36 19L36 18ZM10 20L10 21L11 21L11 20ZM21 20L21 21L22 21L22 20ZM36 21L36 23L37 23L37 21ZM7 22L7 23L8 23L8 22ZM13 23L13 27L11 27L11 28L10 28L10 29L11 29L11 30L9 30L9 29L8 29L8 28L7 28L7 29L6 29L6 30L7 30L7 29L8 29L8 30L9 30L9 31L10 31L10 33L11 33L11 30L13 30L13 31L12 31L12 32L14 32L14 29L15 29L15 28L14 28L14 27L15 27L15 26L14 26L14 23ZM40 23L40 24L41 24L41 23ZM2 24L2 25L3 25L3 24ZM12 28L12 29L13 29L13 28ZM30 28L30 29L29 29L29 30L30 30L30 31L31 31L31 29L32 29L32 28ZM33 28L33 29L34 29L34 28ZM35 28L35 30L32 30L32 31L35 31L35 30L36 30L36 31L37 31L37 30L36 30L36 29L37 29L37 28ZM4 29L4 30L5 30L5 29ZM27 31L27 32L28 32L28 31ZM38 31L38 34L39 34L39 31ZM6 32L6 33L7 33L7 32ZM24 32L24 33L25 33L25 32ZM33 33L33 36L36 36L36 33ZM25 34L25 35L26 35L26 34ZM34 34L34 35L35 35L35 34ZM14 35L14 36L15 36L15 35ZM12 37L12 38L13 38L13 37ZM18 37L18 38L19 38L19 37ZM33 37L33 38L32 38L32 40L35 40L35 39L34 39L34 37ZM35 37L35 38L36 38L36 37ZM37 38L37 39L36 39L36 40L37 40L37 39L38 39L38 38ZM9 39L9 40L10 40L10 39ZM0 0L0 7L7 7L7 0ZM1 1L1 6L6 6L6 1ZM2 2L2 5L5 5L5 2ZM34 0L34 7L41 7L41 0ZM35 1L35 6L40 6L40 1ZM36 2L36 5L39 5L39 2ZM0 34L0 41L7 41L7 34ZM1 35L1 40L6 40L6 35ZM2 36L2 39L5 39L5 36Z" fill="#000000"/></g></g></svg>
