<svg width="24" height="24" viewBox="0 0 24 24" fill="none" xmlns="http://www.w3.org/2000/svg">
<path d="M11.9984 22.76C10.9084 22.76 9.82844 22.44 8.97844 21.81L4.67844 18.6C3.53844 17.75 2.64844 15.97 2.64844 14.56V7.12C2.64844 5.58 3.77844 3.94 5.22844 3.4L10.2184 1.53C11.2084 1.16 12.7684 1.16 13.7584 1.53L18.7484 3.4C20.1984 3.94 21.3284 5.58 21.3284 7.12V14.55C21.3284 15.97 20.4384 17.74 19.2984 18.59L14.9984 21.8C14.1684 22.44 13.0884 22.76 11.9984 22.76ZM10.7484 2.94L5.75844 4.81C4.90844 5.13 4.15844 6.21 4.15844 7.13V14.56C4.15844 15.51 4.82844 16.84 5.57844 17.4L9.87844 20.61C11.0284 21.47 12.9684 21.47 14.1284 20.61L18.4284 17.4C19.1884 16.83 19.8484 15.51 19.8484 14.56V7.12C19.8484 6.21 19.0984 5.13 18.2484 4.8L13.2584 2.93C12.5784 2.69 11.4184 2.69 10.7484 2.94Z" fill="#667085"/>
<path d="M10.6622 14.23C10.4722 14.23 10.2822 14.16 10.1322 14.01L8.52219 12.4C8.23219 12.11 8.23219 11.63 8.52219 11.34C8.81219 11.05 9.29219 11.05 9.58219 11.34L10.6622 12.42L14.4322 8.65C14.7222 8.36 15.2022 8.36 15.4922 8.65C15.7822 8.94 15.7822 9.42 15.4922 9.71L11.1922 14.01C11.0422 14.16 10.8522 14.23 10.6622 14.23Z" fill="#667085"/>
</svg>
