<svg width="24" height="24" viewBox="0 0 24 24" fill="none" xmlns="http://www.w3.org/2000/svg">
<path d="M16.0022 22.75H8.00218C3.38218 22.75 2.52218 20.6 2.30218 18.51L1.55218 10.5C1.44218 9.45001 1.41218 7.90001 2.45218 6.74001C3.35218 5.74001 4.84218 5.26001 7.00218 5.26001H17.0022C19.1722 5.26001 20.6622 5.75001 21.5522 6.74001C22.5922 7.90001 22.5622 9.45001 22.4522 10.51L21.7022 18.5C21.4822 20.6 20.6222 22.75 16.0022 22.75ZM7.00218 6.75001C5.31218 6.75001 4.15218 7.08001 3.56218 7.74001C3.07218 8.28001 2.91218 9.11001 3.04218 10.35L3.79218 18.36C3.96218 19.94 4.39218 21.25 8.00218 21.25H16.0022C19.6022 21.25 20.0422 19.94 20.2122 18.35L20.9622 10.36C21.0922 9.11001 20.9322 8.28001 20.4422 7.74001C19.8522 7.08001 18.6922 6.75001 17.0022 6.75001H7.00218Z" fill="#667085"/>
<path d="M16 6.75C15.59 6.75 15.25 6.41 15.25 6V5.2C15.25 3.42 15.25 2.75 12.8 2.75H11.2C8.75 2.75 8.75 3.42 8.75 5.2V6C8.75 6.41 8.41 6.75 8 6.75C7.59 6.75 7.25 6.41 7.25 6V5.2C7.25 3.44 7.25 1.25 11.2 1.25H12.8C16.75 1.25 16.75 3.44 16.75 5.2V6C16.75 6.41 16.41 6.75 16 6.75Z" fill="#667085"/>
<path d="M12 16.75C9.25 16.75 9.25 15.05 9.25 14.03V13C9.25 11.59 9.59 11.25 11 11.25H13C14.41 11.25 14.75 11.59 14.75 13V14C14.75 15.04 14.75 16.75 12 16.75ZM10.75 12.75C10.75 12.83 10.75 12.92 10.75 13V14.03C10.75 15.06 10.75 15.25 12 15.25C13.25 15.25 13.25 15.09 13.25 14.02V13C13.25 12.92 13.25 12.83 13.25 12.75C13.17 12.75 13.08 12.75 13 12.75H11C10.92 12.75 10.83 12.75 10.75 12.75Z" fill="#667085"/>
<path d="M14.0034 14.77C13.6334 14.77 13.3034 14.49 13.2634 14.11C13.2134 13.7 13.5034 13.32 13.9134 13.27C16.5534 12.94 19.0834 11.94 21.2134 10.39C21.5434 10.14 22.0134 10.22 22.2634 10.56C22.5034 10.89 22.4334 11.36 22.0934 11.61C19.7534 13.31 16.9934 14.4 14.0934 14.77C14.0634 14.77 14.0334 14.77 14.0034 14.77Z" fill="#667085"/>
<path d="M9.99682 14.78C9.96682 14.78 9.93682 14.78 9.90682 14.78C7.16682 14.47 4.49682 13.47 2.18682 11.89C1.84682 11.66 1.75682 11.19 1.98682 10.85C2.21682 10.51 2.68682 10.42 3.02682 10.65C5.13682 12.09 7.56682 13 10.0668 13.29C10.4768 13.34 10.7768 13.71 10.7268 14.12C10.6968 14.5 10.3768 14.78 9.99682 14.78Z" fill="#667085"/>
</svg>
