<svg width="32" height="32" viewBox="0 0 32 32" fill="none" xmlns="http://www.w3.org/2000/svg">
<path d="M31.0625 4.63469H11.2946C10.7954 1.99931 8.47563 6.10352e-05 5.69719 6.10352e-05C2.55575 6.10352e-05 6.25e-05 2.55581 6.25e-05 5.69725C6.25e-05 6.06256 0.0350625 6.41981 0.101062 6.76619C0.0369375 6.893 0 7.036 0 7.18787V31.0624C0 31.5802 0.41975 31.9999 0.9375 31.9999H31.0625C31.5802 31.9999 32 31.5802 32 31.0624V5.57219C32 5.05444 31.5802 4.63469 31.0625 4.63469ZM11.3362 6.50969H30.125V22.2441H24.2276C23.8679 19.5169 21.9612 17.2708 19.4206 16.4188C20.1791 15.5921 20.6429 14.491 20.6429 13.2833C20.6429 10.7234 18.5602 8.64075 16.0003 8.64075C13.4404 8.64075 11.3577 10.7234 11.3577 13.2833C11.3577 14.491 11.8216 15.5921 12.5801 16.4188C10.0394 17.2708 8.13275 19.5169 7.773 22.2441H1.875V9.91831C2.8865 10.8351 4.22775 11.3944 5.69719 11.3944C8.56281 11.3944 10.9406 9.26762 11.3362 6.50969ZM16.0003 16.0509C14.4743 16.0509 13.2327 14.8094 13.2327 13.2834C13.2327 11.7574 14.4743 10.5158 16.0003 10.5158C17.5264 10.5158 18.7679 11.7573 18.7679 13.2834C18.7679 14.8094 17.5264 16.0509 16.0003 16.0509ZM14.8421 17.9259H17.1586C19.7366 17.9259 21.8871 19.7919 22.3306 22.2442H9.67006C10.1135 19.7919 12.2641 17.9259 14.8421 17.9259ZM5.69719 1.87506C7.80475 1.87506 9.51937 3.58969 9.51937 5.69725C9.51937 7.80481 7.80475 9.51944 5.69719 9.51944C3.58962 9.51944 1.87506 7.80481 1.87506 5.69725C1.87506 3.58969 3.58969 1.87506 5.69719 1.87506ZM1.875 30.1249V24.1191H30.125V30.1249H1.875Z" fill="#A760FF"/>
<path d="M4.34356 7.49715C4.51937 7.67296 4.75781 7.77177 5.0065 7.77177C5.25512 7.77177 5.49356 7.67302 5.66937 7.49721L7.94344 5.22315C8.30956 4.85702 8.30956 4.26346 7.94344 3.89734C7.57737 3.53121 6.98375 3.53121 6.61762 3.89734L5.0065 5.50846L4.65187 5.15377C4.28575 4.78765 3.69219 4.78765 3.32606 5.15377C2.95994 5.5199 2.95994 6.11346 3.32606 6.47959L4.34356 7.49715Z" fill="#A760FF"/>
<path d="M4.75 26.1846C4.25962 26.1846 3.78981 26.6158 3.8125 27.1221C3.83525 27.63 4.22443 28.0596 4.75 28.0596C5.24037 28.0596 5.71018 27.6284 5.6875 27.1221C5.66475 26.6141 5.27562 26.1846 4.75 26.1846Z" fill="#A760FF"/>
<path d="M7.87325 26.1846C7.38287 26.1846 6.91306 26.6158 6.93575 27.1221C6.9585 27.63 7.34769 28.0596 7.87325 28.0596C8.36362 28.0596 8.83344 27.6284 8.81075 27.1221C8.788 26.6141 8.39881 26.1846 7.87325 26.1846Z" fill="#A760FF"/>
<path d="M17.7689 26.1846H14.2318C13.7141 26.1846 13.2943 26.6043 13.2943 27.1221C13.2943 27.6398 13.7141 28.0596 14.2318 28.0596H17.7689C18.2866 28.0596 18.7064 27.6398 18.7064 27.1221C18.7064 26.6043 18.2866 26.1846 17.7689 26.1846Z" fill="#A760FF"/>
</svg>
