<svg width="32" height="32" viewBox="0 0 32 32" fill="none" xmlns="http://www.w3.org/2000/svg">
<path d="M31.0625 1.56195H0.9375C0.41975 1.56195 0 1.9817 0 2.49945V25.9994C0 26.5172 0.41975 26.9369 0.9375 26.9369H13.0625V29.4994C13.0625 30.1941 13.7951 30.6499 14.4192 30.338L16 29.5476L17.5807 30.338C18.2029 30.6491 18.9375 30.1961 18.9375 29.4994V26.9369H31.0625C31.5802 26.9369 32 26.5172 32 25.9994V2.49945C32 1.9817 31.5802 1.56195 31.0625 1.56195ZM17.0625 27.9826L16.4193 27.6609C16.1553 27.529 15.8447 27.529 15.5808 27.6609L14.9375 27.9826V26.2359C14.9724 26.1016 14.9804 25.9603 14.9496 25.8103C15.6574 25.9828 16.3774 25.9766 17.0625 25.8075V27.9826ZM16 24.0619C14.5871 24.0619 13.4375 22.9124 13.4375 21.4994C13.4375 20.0865 14.5871 18.9369 16 18.9369C17.4129 18.9369 18.5625 20.0865 18.5625 21.4994C18.5625 22.9124 17.4129 24.0619 16 24.0619ZM16 17.0619C13.5378 17.0619 11.5279 19.0814 11.5641 21.5619H7.28412C6.99144 20.695 6.3045 20.008 5.4375 19.7153V8.78358C6.3045 8.49089 6.99144 7.80395 7.28412 6.93695H24.7159C25.0086 7.80395 25.6955 8.49089 26.5625 8.78358V19.7153C25.6955 20.008 25.0086 20.695 24.7159 21.5619H20.4359C20.4721 19.0805 18.4614 17.0619 16 17.0619ZM30.125 25.0619H18.9375V24.8214C19.3736 24.4354 19.7336 23.9657 19.9914 23.4369H25.5C26.0177 23.4369 26.4375 23.0172 26.4375 22.4994C26.4375 21.9136 26.9141 21.4369 27.5 21.4369C28.0177 21.4369 28.4375 21.0172 28.4375 20.4994V7.99945C28.4375 7.4817 28.0177 7.06195 27.5 7.06195C26.9141 7.06195 26.4375 6.58533 26.4375 5.99945C26.4375 5.4817 26.0177 5.06195 25.5 5.06195H6.5C5.98225 5.06195 5.5625 5.4817 5.5625 5.99945C5.5625 6.58533 5.08588 7.06195 4.5 7.06195C3.98225 7.06195 3.5625 7.4817 3.5625 7.99945V20.4994C3.5625 21.0172 3.98225 21.4369 4.5 21.4369C5.08588 21.4369 5.5625 21.9136 5.5625 22.4994C5.5625 23.0172 5.98225 23.4369 6.5 23.4369H12.0086C12.2664 23.9657 12.6264 24.4354 13.0625 24.8214V25.0619H1.875V3.43695H30.125V25.0619Z" fill="#6BCB77"/>
<path d="M12.5 11.437H19.5C20.0177 11.437 20.4375 11.0172 20.4375 10.4995C20.4375 9.9817 20.0177 9.56195 19.5 9.56195H12.5C11.9822 9.56195 11.5625 9.9817 11.5625 10.4995C11.5625 11.0172 11.9822 11.437 12.5 11.437Z" fill="#6BCB77"/>
<path d="M23.4375 13.9995C23.4375 13.4817 23.0177 13.062 22.5 13.062H9.5C8.98225 13.062 8.5625 13.4817 8.5625 13.9995C8.5625 14.5172 8.98225 14.937 9.5 14.937H22.5C23.0177 14.937 23.4375 14.5173 23.4375 13.9995Z" fill="#6BCB77"/>
<path d="M21.5625 17.9995C21.5625 18.5172 21.9822 18.937 22.5 18.937H23.5C24.0178 18.937 24.4375 18.5172 24.4375 17.9995C24.4375 17.4817 24.0178 17.062 23.5 17.062H22.5C21.9822 17.062 21.5625 17.4817 21.5625 17.9995Z" fill="#6BCB77"/>
<path d="M9.5 17.062H8.5C7.98225 17.062 7.5625 17.4817 7.5625 17.9995C7.5625 18.5172 7.98225 18.937 8.5 18.937H9.5C10.0178 18.937 10.4375 18.5172 10.4375 17.9995C10.4375 17.4817 10.0178 17.062 9.5 17.062Z" fill="#6BCB77"/>
<path d="M16 22.4371C16.5178 22.4371 16.9375 22.0174 16.9375 21.4996C16.9375 20.9819 16.5178 20.5621 16 20.5621C15.4822 20.5621 15.0625 20.9819 15.0625 21.4996C15.0625 22.0174 15.4822 22.4371 16 22.4371Z" fill="#6BCB77"/>
</svg>
