<svg width="32" height="32" viewBox="0 0 32 32" fill="none" xmlns="http://www.w3.org/2000/svg">
<path d="M31.9999 10.3722C31.9991 10.1163 31.8914 9.87806 31.7253 9.712L26.1006 4.08731C25.9208 3.90763 25.6764 3.8125 25.4372 3.8125C25.2756 3.8125 10.6355 3.8125 10.3125 3.8125C9.79475 3.8125 9.375 4.23225 9.375 4.75V6.07775C8.608 6.29563 7.86869 6.604 7.16475 6.99969L6.22131 6.05625C5.85525 5.69013 5.26163 5.69013 4.8955 6.05625L2.24375 8.708C1.87788 9.07381 1.87769 9.66775 2.24375 10.0338L3.18712 10.9771C2.79156 11.6811 2.48319 12.4204 2.26525 13.1875H0.9375C0.41975 13.1875 0 13.6073 0 14.125V17.875C0 18.3927 0.41975 18.8125 0.9375 18.8125H2.26525C2.48319 19.5796 2.7915 20.3188 3.18719 21.0228L2.24375 21.9662C1.87781 22.3321 1.87769 22.926 2.24375 23.292L4.89544 25.9436C5.26156 26.3097 5.85512 26.3097 6.22125 25.9436L7.16456 25.0003C7.86856 25.396 8.60787 25.7044 9.37494 25.9223V27.25C9.37494 27.7677 9.79469 28.1875 10.3124 28.1875H31.0624C31.5802 28.1875 31.9999 27.7677 31.9999 27.25V10.375C32 10.3741 31.9999 10.3732 31.9999 10.3722ZM26.375 7.01331L28.7992 9.4375H26.375V7.01331ZM13.125 16.0005C13.1247 16.5172 12.7043 16.9374 12.1875 16.9374C11.6706 16.9374 11.25 16.5169 11.25 15.9999C11.25 15.483 11.6706 15.0624 12.1875 15.0624C12.7043 15.0624 13.1247 15.4827 13.125 15.9993V16.0005ZM13.125 13.3487C12.8316 13.2446 12.5161 13.1874 12.1875 13.1874C10.6367 13.1874 9.375 14.4491 9.375 15.9999C9.375 17.5507 10.6367 18.8124 12.1875 18.8124C12.5161 18.8124 12.8316 18.7552 13.125 18.6512V20.5931C12.8182 20.6553 12.5049 20.6875 12.1875 20.6875C9.60281 20.6875 7.5 18.5847 7.5 16C7.5 13.4153 9.60281 11.3125 12.1875 11.3125C12.5049 11.3125 12.8182 11.3447 13.125 11.4069V13.3487ZM10.499 24.2673C9.4505 24.0544 8.45519 23.6396 7.54075 23.0341C7.16913 22.7881 6.67556 22.8377 6.36031 23.1529L5.55837 23.9549L4.2325 22.6291L5.03456 21.827C5.34975 21.5118 5.39944 21.0182 5.15331 20.6465C4.54794 19.7322 4.13306 18.7369 3.92019 17.6884C3.8315 17.2515 3.44731 16.9375 3.00144 16.9375H1.875V15.0625H3.00144C3.44731 15.0625 3.8315 14.7485 3.92019 14.3115C4.13306 13.2629 4.54794 12.2676 5.15331 11.3532C5.39944 10.9816 5.34975 10.4879 5.0345 10.1728L4.2325 9.37081L5.55831 8.045L6.36037 8.84706C6.67556 9.16231 7.16913 9.21187 7.54081 8.96581C8.45525 8.36038 9.4505 7.9455 10.4989 7.73269C10.9359 7.644 11.2499 7.25981 11.2499 6.81394V5.6875H13.1249V9.50537C12.8159 9.46112 12.503 9.4375 12.1874 9.4375C8.56887 9.4375 5.62494 12.3814 5.62494 16C5.62494 19.6186 8.56887 22.5625 12.1874 22.5625C12.503 22.5625 12.8159 22.5389 13.1249 22.4946V26.3125H11.2499V25.1861C11.25 24.7402 10.936 24.356 10.499 24.2673ZM30.125 26.3125H15V5.6875H24.5V10.375C24.5 10.8927 24.9198 11.3125 25.4375 11.3125H30.125V26.3125Z" fill="#6176F6"/>
<path d="M17.8125 11.3125H21.6875C22.2052 11.3125 22.625 10.8928 22.625 10.375C22.625 9.85725 22.2052 9.4375 21.6875 9.4375H17.8125C17.2947 9.4375 16.875 9.85725 16.875 10.375C16.875 10.8928 17.2947 11.3125 17.8125 11.3125Z" fill="#6176F6"/>
<path d="M16.875 14.125C16.875 14.6428 17.2947 15.0625 17.8125 15.0625H27.3125C27.8302 15.0625 28.25 14.6428 28.25 14.125C28.25 13.6072 27.8302 13.1875 27.3125 13.1875H17.8125C17.2947 13.1875 16.875 13.6072 16.875 14.125Z" fill="#6176F6"/>
<path d="M27.3125 16.9375H17.8125C17.2947 16.9375 16.875 17.3572 16.875 17.875C16.875 18.3928 17.2947 18.8125 17.8125 18.8125H27.3125C27.8302 18.8125 28.25 18.3928 28.25 17.875C28.25 17.3572 27.8302 16.9375 27.3125 16.9375Z" fill="#6176F6"/>
<path d="M27.3125 20.6875H17.8125C17.2947 20.6875 16.875 21.1072 16.875 21.625C16.875 22.1428 17.2947 22.5625 17.8125 22.5625H27.3125C27.8302 22.5625 28.25 22.1428 28.25 21.625C28.25 21.1072 27.8302 20.6875 27.3125 20.6875Z" fill="#6176F6"/>
</svg>
