<svg width="38" height="56" viewBox="0 0 38 56" fill="none" xmlns="http://www.w3.org/2000/svg">
<path fill-rule="evenodd" clip-rule="evenodd" d="M14.3169 3.29004C14.333 7.72869 12.8235 15.7577 24.4357 17.6983C17.2272 18.7387 14.4726 24.3104 14.3183 31.4571C14.1415 26.0625 14.8814 19.8334 3.05566 18.126C14.4057 17.2286 14.2483 7.85151 14.3169 3.29004Z" fill="#FFA500" stroke="#FFA500" stroke-width="2.5" stroke-miterlimit="1.5" stroke-linecap="round" stroke-linejoin="round"/>
<path fill-rule="evenodd" clip-rule="evenodd" d="M25.5869 24.944C25.603 29.3826 22.5795 37.624 34.1917 39.5646C26.9832 40.6051 25.7426 45.9643 25.5883 53.111C25.4115 47.7162 25.05 41.4398 16.8474 39.6394C24.7981 38.6906 24.664 31.0011 25.5869 24.944Z" fill="#FFA500" stroke="#FFA500" stroke-width="2.5" stroke-miterlimit="1.5" stroke-linecap="round" stroke-linejoin="round"/>
<path fill-rule="evenodd" clip-rule="evenodd" d="M2 2C3.87427 4.16836 5.36035 6.6836 7.28375 8.80512L2 2Z" fill="#FFA500"/>
<path d="M2 2C3.87427 4.16836 5.36035 6.6836 7.28375 8.80512" stroke="#FFA500" stroke-width="2.5" stroke-miterlimit="1.5" stroke-linecap="round" stroke-linejoin="round"/>
<path fill-rule="evenodd" clip-rule="evenodd" d="M20.1917 10.4095C21.5947 9.25326 22.9213 7.93675 24.0581 6.51562L20.1917 10.4095Z" fill="#FFA500"/>
<path d="M20.1917 10.4095C21.5947 9.25326 22.9213 7.93675 24.0581 6.51562" stroke="#FFA500" stroke-width="2.5" stroke-miterlimit="1.5" stroke-linecap="round" stroke-linejoin="round"/>
<path fill-rule="evenodd" clip-rule="evenodd" d="M7.7648 25.3479C5.87882 27.0959 4.12739 29.042 2.42163 30.9663L7.7648 25.3479Z" fill="#FFA500"/>
<path d="M7.7648 25.3479C5.87882 27.0959 4.12739 29.042 2.42163 30.9663" stroke="#FFA500" stroke-width="2.5" stroke-miterlimit="1.5" stroke-linecap="round" stroke-linejoin="round"/>
<path fill-rule="evenodd" clip-rule="evenodd" d="M19.4915 29.3564C19.6973 29.6712 19.9457 29.9581 20.17 30.2601L19.4915 29.3564Z" fill="#FFA500"/>
<path d="M19.4915 29.3564C19.6973 29.6712 19.9457 29.9581 20.17 30.2601" stroke="#FFA500" stroke-width="2.5" stroke-miterlimit="1.5" stroke-linecap="round" stroke-linejoin="round"/>
<path fill-rule="evenodd" clip-rule="evenodd" d="M17.1545 47.3123C17.6033 46.8654 18.0679 46.4347 18.5098 45.9807L17.1545 47.3123Z" fill="#FFA500"/>
<path d="M17.1545 47.3123C17.6033 46.8654 18.0679 46.4347 18.5098 45.9807" stroke="#FFA500" stroke-width="2.5" stroke-miterlimit="1.5" stroke-linecap="round" stroke-linejoin="round"/>
<path fill-rule="evenodd" clip-rule="evenodd" d="M30.355 32.7724C32.3408 30.9753 34.0682 29.0009 35.7402 26.9138L30.355 32.7724Z" fill="#FFA500"/>
<path d="M30.355 32.7724C32.3408 30.9753 34.0682 29.0009 35.7402 26.9138" stroke="#FFA500" stroke-width="2.5" stroke-miterlimit="1.5" stroke-linecap="round" stroke-linejoin="round"/>
<path fill-rule="evenodd" clip-rule="evenodd" d="M30.8394 47.4677C33.1806 48.9244 34.8099 51.9238 36.4298 54.1149L30.8394 47.4677Z" fill="#FFA500"/>
<path d="M30.8394 47.4677C33.1806 48.9244 34.8099 51.9238 36.4298 54.1149" stroke="#FFA500" stroke-width="2.5" stroke-miterlimit="1.5" stroke-linecap="round" stroke-linejoin="round"/>
</svg>
