<svg width="74" height="73" viewBox="0 0 74 73" fill="none" xmlns="http://www.w3.org/2000/svg">
<path fill-rule="evenodd" clip-rule="evenodd" d="M33.4544 63.9444C32.9465 63.042 33.3219 61.8658 34.2929 61.3174C42.3239 56.7811 50.5255 52.6129 58.6962 48.4603C59.7361 47.9318 60.7756 47.4035 61.8141 46.8747C62.8077 46.3688 63.9878 46.7102 64.45 47.6372C64.9122 48.5641 64.4814 49.7256 63.4878 50.2315C62.4466 50.7616 61.4063 51.2904 60.3671 51.8185C52.1864 55.9763 44.0743 60.0993 36.1322 64.5853C35.1612 65.1337 33.9623 64.8468 33.4544 63.9444Z" fill="#FFA500"/>
<path fill-rule="evenodd" clip-rule="evenodd" d="M59.3577 20.9279C60.1341 21.7458 60.1263 23.0308 59.3404 23.798C57.8571 25.2458 56.3736 26.6906 54.8913 28.1343C46.2281 36.5715 37.6053 44.9692 29.3149 53.7063C28.5585 54.5035 27.2925 54.5104 26.4873 53.7218C25.682 52.9331 25.6425 51.6475 26.399 50.8503C34.7465 42.053 43.431 33.5953 52.092 25.1604C53.5722 23.7189 55.0517 22.278 56.5287 20.8363C57.3147 20.069 58.5812 20.1101 59.3577 20.9279Z" fill="#FFA500"/>
<path fill-rule="evenodd" clip-rule="evenodd" d="M26.8345 13.3421C27.8361 13.7303 28.3389 14.8579 27.9574 15.8606L15.5165 48.5621C15.135 49.5648 14.0139 50.0629 13.0123 49.6746C12.0107 49.2863 11.5079 48.1587 11.8894 47.1561L24.3303 14.4545C24.7117 13.4519 25.8329 12.9538 26.8345 13.3421Z" fill="#FFA500"/>
</svg>
