<svg width="118" height="57" viewBox="0 0 118 57" fill="none" xmlns="http://www.w3.org/2000/svg">
<path fill-rule="evenodd" clip-rule="evenodd" d="M80.5577 4.62737C80.3972 4.66974 80.2359 4.7123 80.0739 4.75501C66.2201 8.4083 27.7895 20.6049 9.4249 26.4333C6.17693 27.4641 3.55662 28.2957 1.81094 28.8456C1.08098 29.0755 0.299912 28.6793 0.0663706 27.9606C-0.16717 27.2419 0.235254 26.4728 0.965211 26.2429C2.69518 25.6979 5.29867 24.8716 8.53022 23.846C26.8662 18.0266 65.4222 5.78975 79.3559 2.11538C79.5206 2.07196 79.685 2.02855 79.8491 1.98525C81.6991 1.49701 83.5032 1.02087 85.0597 0.66075C86.7081 0.279357 88.2426 -0.0132721 89.2921 0.000448066C89.5674 0.00404648 89.8706 0.0283858 90.164 0.103845C90.444 0.175875 90.8444 0.327376 91.1665 0.678709C91.534 1.0795 91.653 1.578 91.6015 2.03445C91.5563 2.43562 91.3863 2.77506 91.2298 3.02418C90.9157 3.52411 90.4009 4.05401 89.7697 4.61079C89.1175 5.186 88.2575 5.86144 87.1738 6.64921C83.1195 9.59651 78.8994 12.3288 74.7214 15.0339C72.8994 16.2134 71.0855 17.3879 69.2969 18.5726C63.3728 22.4967 57.658 26.576 52.5462 31.4833C52.5465 31.4829 52.5445 31.485 52.5401 31.4895C52.5145 31.5159 52.4078 31.626 52.2161 31.8285C52.0069 32.0496 51.7202 32.3557 51.3864 32.7183C50.7175 33.445 49.867 34.3905 49.0753 35.3291C48.5685 35.93 48.1033 36.5073 47.7291 37.0118C48.5322 36.9647 49.3535 36.8527 50.2016 36.7038C50.9517 36.5721 51.7046 36.415 52.4818 36.2527L52.4932 36.2503C53.2593 36.0904 54.0497 35.9253 54.8423 35.7863C67.3196 33.5978 79.6811 30.8608 92.083 28.1145C93.1208 27.8847 94.2037 27.6409 95.3175 27.3902C100.447 26.2354 106.231 24.9333 111.27 24.1728C111.613 24.1211 111.957 24.0607 112.322 23.9968L112.468 23.9712C112.88 23.8991 113.316 23.8244 113.757 23.7641C114.638 23.6438 115.603 23.5716 116.598 23.6984C117.366 23.7961 117.78 24.3548 117.921 24.8148C118.039 25.1982 118.001 25.5582 117.958 25.7803C117.911 26.0286 117.825 26.2747 117.711 26.4946C117.609 26.6947 117.428 26.982 117.133 27.2099C116.578 27.6381 115.478 28.2542 114.268 28.8917C113.015 29.5524 111.516 30.3013 110.072 31.0078C108.626 31.7151 107.227 32.3839 106.171 32.885C105.643 33.1357 105.2 33.3446 104.879 33.4955L104.496 33.676L104.384 33.7289C104.371 33.7349 104.362 33.7394 104.356 33.7425L104.343 33.7486C102.799 34.5067 101.238 35.2537 99.6731 36.0024C93.3483 39.0292 86.9684 42.0823 81.431 45.9958C81.4003 46.0175 81.3683 46.04 81.3352 46.0633C81.1329 46.2055 80.8882 46.3776 80.6368 46.5795C80.5322 46.6634 80.4368 46.7446 80.3515 46.8218C83.1868 47.5437 86.5152 47.6785 89.969 47.5861C91.7328 47.5389 93.5035 47.4336 95.2367 47.3246C95.4357 47.312 95.6344 47.2995 95.8326 47.2869C97.351 47.1907 98.8403 47.0964 100.235 47.0451C100.418 47.0384 100.984 47.0103 101.789 46.9703C104.951 46.8133 111.803 46.473 113.576 46.5279C114.282 46.5497 115.014 46.6753 115.599 47.073C116.288 47.5412 116.578 48.2479 116.561 48.9524C116.547 49.5607 116.31 50.1311 116.072 50.5809C115.821 51.0538 115.491 51.5322 115.146 51.985C114.606 52.6951 113.949 53.4431 113.371 54.1016C113.22 54.2737 113.074 54.4397 112.938 54.5973C112.595 54.9923 112.307 55.3338 112.091 55.6202C111.875 55.9078 111.806 56.0431 111.796 56.0629C111.795 56.0651 111.794 56.0659 111.795 56.0654C111.552 56.7812 110.766 57.1681 110.039 56.9295C109.312 56.6909 108.919 55.9171 109.162 55.2012C109.311 54.7597 109.61 54.3272 109.862 53.9922C110.139 53.6245 110.48 53.2221 110.828 52.8214C110.987 52.6386 111.148 52.4552 111.309 52.2719C111.879 51.622 112.449 50.9721 112.925 50.3461C113.227 49.9497 113.459 49.6039 113.612 49.3158C113.621 49.2988 113.629 49.2824 113.637 49.2666C113.592 49.2634 113.543 49.2609 113.489 49.2592C111.857 49.2087 105.492 49.5238 102.215 49.6861C101.272 49.7328 100.584 49.7668 100.339 49.7759C98.984 49.8257 97.5349 49.9175 96.0108 50.0139C95.813 50.0265 95.614 50.0391 95.4137 50.0517C93.6794 50.1608 91.8639 50.269 90.0444 50.3177C86.423 50.4146 82.6817 50.2804 79.398 49.3998C78.6038 49.1869 77.6801 48.7668 77.3205 47.8345C76.9519 46.8785 77.423 46.042 77.7242 45.6259C78.0625 45.1584 78.5181 44.7546 78.8826 44.4618C79.2093 44.1995 79.532 43.973 79.7315 43.8329C79.7614 43.8119 79.7886 43.7928 79.8126 43.7758C85.5623 39.7123 92.2162 36.5297 98.5593 33.4958C100.098 32.7596 101.619 32.0322 103.104 31.303C103.141 31.2851 103.29 31.2151 103.524 31.1045C103.857 30.948 104.361 30.7102 104.966 30.4233C106.017 29.9249 107.405 29.2613 108.837 28.5606C110.075 27.9549 111.34 27.3243 112.446 26.7503C112.198 26.7932 111.944 26.8357 111.69 26.8739C106.762 27.6177 101.105 28.8911 95.9757 30.0454C94.8513 30.2985 93.7523 30.5458 92.692 30.7806L92.6766 30.784C80.2899 33.5269 67.8728 36.2765 55.329 38.4766C54.5848 38.6071 53.835 38.7636 53.0576 38.9259L53.0476 38.928C52.281 39.0881 51.4874 39.2538 50.6889 39.394C49.0859 39.6755 47.3902 39.8684 45.6534 39.7141C45.2368 39.6771 44.6713 39.4699 44.3561 38.8838C44.098 38.4037 44.1623 37.933 44.2094 37.7084C44.3084 37.237 44.5767 36.7565 44.8101 36.3826C45.3183 35.5684 46.1259 34.5485 46.9403 33.5832C48.5775 31.6422 50.4527 29.6764 50.6086 29.5267C55.9021 24.445 61.7825 20.2566 67.7477 16.3053C69.5891 15.0856 71.4323 13.8923 73.2694 12.7029C77.4173 10.0176 81.5336 7.35266 85.5253 4.45083C86.3275 3.86764 86.9755 3.36776 87.4877 2.94271C86.9694 3.03797 86.3699 3.16469 85.6946 3.32095C84.1826 3.67079 82.4205 4.13579 80.5577 4.62737ZM88.8891 1.5522C88.8892 1.55218 88.8881 1.55458 88.8855 1.5595C88.8876 1.55469 88.889 1.55223 88.8891 1.5522ZM79.9268 47.3045C79.926 47.3047 79.9287 47.2978 79.9372 47.2831C79.9318 47.297 79.9275 47.3044 79.9268 47.3045Z" fill="#D3E4CD"/>
</svg>
