<svg width="30" height="40" viewBox="0 0 30 40" fill="none" xmlns="http://www.w3.org/2000/svg">
<path fill-rule="evenodd" clip-rule="evenodd" d="M26.912 35.9584C27.5357 36.1216 28.1259 36.2761 28.6746 36.4277C29.6334 36.6927 30.1981 37.6927 29.9357 38.6612C29.6734 39.6298 28.6834 40.2001 27.7245 39.9351C27.2323 39.7991 26.6812 39.6562 26.0815 39.5008C21.7271 38.372 14.8086 36.5785 9.24142 31.9071C2.71169 26.4279 -1.74438 17.2413 0.660848 1.54039C0.812863 0.548061 1.73252 -0.131905 2.71496 0.021637C3.6974 0.175182 4.37059 1.1041 4.21858 2.09642C1.97157 16.7645 6.15091 24.5864 11.5419 29.11C16.4356 33.2164 22.5081 34.8057 26.912 35.9584Z" fill="#2FDD92"/>
</svg>
