<svg width="44" height="44" viewBox="0 0 44 44" fill="none" xmlns="http://www.w3.org/2000/svg">
<path fill-rule="evenodd" clip-rule="evenodd" d="M36.3509 7.15661C30.2393 1.19122 20.542 0.772604 13.6894 4.00533C1.87989 9.57596 -1.37174 26.2983 5.72766 34.745C13.5559 44.0595 25.6865 43.3184 32.1996 38.596C40.6416 32.4756 45.16 21.3919 39.452 12.1621" fill="white"/>
<path d="M36.3509 7.15661C30.2393 1.19122 20.542 0.772604 13.6894 4.00533C1.87989 9.57596 -1.37174 26.2983 5.72766 34.745C13.5559 44.0595 25.6865 43.3184 32.1996 38.596C40.6416 32.4756 45.16 21.3919 39.452 12.1621" stroke="#6176F6" stroke-width="2.2" stroke-miterlimit="1.5" stroke-linecap="round" stroke-linejoin="round"/>
<path d="M15.6169 14.7661C15.6169 15.3341 15.6169 15.9003 15.6169 16.4682" stroke="#6176F6" stroke-width="2.2" stroke-miterlimit="1.5" stroke-linecap="round" stroke-linejoin="round"/>
<path d="M27.5319 14.7661C27.5319 15.3335 27.5319 15.9002 27.5319 16.4682" stroke="#6176F6" stroke-width="2.2" stroke-miterlimit="1.5" stroke-linecap="round" stroke-linejoin="round"/>
<path fill-rule="evenodd" clip-rule="evenodd" d="M24.7954 23.421C24.262 22.6271 23.2728 21.7956 22.2647 21.6325C16.9133 20.7672 15.7525 29.8135 19.5301 32.0921C21.4926 33.2765 23.7227 32.4189 24.893 30.6282C26.1372 28.7254 26.179 25.4782 24.7954 23.421V23.421Z" stroke="#6176F6" stroke-width="2.2" stroke-miterlimit="1.5" stroke-linecap="round" stroke-linejoin="round"/>
</svg>
