<svg width="33" height="32" viewBox="0 0 33 32" fill="none" xmlns="http://www.w3.org/2000/svg">
<g clip-path="url(#clip0_1576_9205)">
<path d="M32.2253 23.6809C32.0496 23.5051 31.811 23.4062 31.5625 23.4062H29.9646V7.40625C29.9646 6.88843 29.5449 6.46875 29.0271 6.46875H17.437V3.9375C17.437 3.41968 17.0173 3 16.4995 3H1.43774C0.920166 3 0.500245 3.41968 0.500245 3.9375V15.2373C0.500245 15.7549 0.920166 16.1748 1.43774 16.1748H3.0354V23.4062H1.4375C1.18872 23.4062 0.950196 23.5051 0.774415 23.6809C0.598633 23.8569 0.499756 24.0955 0.5 24.3442L0.500245 24.9702C0.500977 27.2095 2.32349 29.0312 4.56274 29.0312H28.4375C30.6775 29.0312 32.5 27.209 32.5 24.969V24.3438C32.5 24.0952 32.4014 23.8567 32.2253 23.6809V23.6809ZM2.37524 4.875H15.562V14.2998H2.37524V4.875ZM16.4995 16.1748C17.0173 16.1748 17.437 15.7551 17.437 15.2373V8.34375H28.0896V23.3772H26.25V20.5642C26.25 19.5103 25.6667 18.5903 24.8064 18.1086C25.0615 17.6658 25.2085 17.1528 25.2085 16.606C25.2085 14.9404 23.8533 13.5852 22.1875 13.5852C20.522 13.5852 19.1667 14.9402 19.1667 16.606C19.1667 17.1528 19.3135 17.6658 19.5686 18.1086C18.7083 18.5903 18.125 19.5103 18.125 20.5642V23.3772H4.9104V16.1748H16.4995ZM21.0417 16.606C21.0417 15.9741 21.5557 15.4602 22.1875 15.4602C22.8193 15.4602 23.3335 15.9741 23.3335 16.606C23.3335 17.2378 22.8193 17.7517 22.1875 17.7517C21.5557 17.7517 21.0417 17.2378 21.0417 16.606V16.606ZM20 20.5642C20 20.0474 20.4207 19.6267 20.9375 19.6267H23.4375C23.9546 19.6267 24.375 20.0474 24.375 20.5642V23.3572H20V20.5642ZM28.4375 27.1562H4.56274C3.46265 27.1562 2.54956 26.3398 2.39746 25.2812H30.6028C30.4507 26.3401 29.5376 27.1562 28.4375 27.1562V27.1562Z" fill="#667085"/>
<path d="M12.75 6.75024H5.1875C4.66992 6.75024 4.25 7.16992 4.25 7.68774C4.25 8.20532 4.66992 8.62524 5.1875 8.62524H12.75C13.2676 8.62524 13.6875 8.20532 13.6875 7.68774C13.6875 7.16992 13.2676 6.75024 12.75 6.75024Z" fill="#667085"/>
<path d="M10.25 10.5002H5.1875C4.66992 10.5002 4.25 10.9199 4.25 11.4377C4.25 11.9553 4.66992 12.3752 5.1875 12.3752H10.25C10.7676 12.3752 11.1875 11.9553 11.1875 11.4377C11.1875 10.9199 10.7676 10.5002 10.25 10.5002Z" fill="#667085"/>
</g>
<defs>
<clipPath id="clip0_1576_9205">
<rect width="32" height="32" fill="white" transform="translate(0.5)"/>
</clipPath>
</defs>
</svg>
