<svg width="33" height="32" viewBox="0 0 33 32" fill="none" xmlns="http://www.w3.org/2000/svg">
<g clip-path="url(#clip0_1185_6012)">
<path d="M31.5625 0H27.8125C27.2947 0 26.875 0.41975 26.875 0.9375V1.875H19.1513C18.7643 0.783875 17.7222 0 16.5 0C15.2778 0 14.2358 0.783875 13.8488 1.875H6.125V0.9375C6.125 0.41975 5.70525 0 5.1875 0H1.4375C0.91975 0 0.5 0.41975 0.5 0.9375V4.6875C0.5 5.20525 0.91975 5.625 1.4375 5.625H5.1875C5.70525 5.625 6.125 5.20525 6.125 4.6875V3.7375H10.0236C6.64131 5.87962 4.58531 9.49844 4.338 13.3401C3.23363 13.7199 2.4375 14.7684 2.4375 16C2.4375 17.5508 3.69919 18.8125 5.25 18.8125C6.80081 18.8125 8.0625 17.5508 8.0625 16C8.0625 14.7888 7.29281 13.7539 6.21688 13.3588C6.54975 8.94331 9.72925 5.14038 13.981 4.06138C14.4419 4.98713 15.3976 5.625 16.5 5.625C17.6024 5.625 18.5581 4.98713 19.019 4.06144C23.2708 5.14044 26.4502 8.94337 26.7831 13.3588C25.7072 13.7539 24.9375 14.7888 24.9375 16C24.9375 17.5508 26.1992 18.8125 27.75 18.8125C29.3008 18.8125 30.5625 17.5508 30.5625 16C30.5625 14.7684 29.7664 13.7199 28.662 13.3401C28.4142 9.49075 26.3521 5.88794 22.9764 3.75H26.875V4.6875C26.875 5.20525 27.2947 5.625 27.8125 5.625H31.5625C32.0803 5.625 32.5 5.20525 32.5 4.6875V0.9375C32.5 0.41975 32.0803 0 31.5625 0ZM4.25 3.75H2.375V1.875H4.25V3.75ZM5.25 16.9375C4.73306 16.9375 4.3125 16.5169 4.3125 16C4.3125 15.4831 4.73306 15.0625 5.25 15.0625C5.76694 15.0625 6.1875 15.4831 6.1875 16C6.1875 16.5169 5.76694 16.9375 5.25 16.9375ZM16.5 3.75C15.9831 3.75 15.5625 3.32944 15.5625 2.8125C15.5625 2.29556 15.9831 1.875 16.5 1.875C17.0169 1.875 17.4375 2.29556 17.4375 2.8125C17.4375 3.32944 17.0169 3.75 16.5 3.75ZM27.75 15.0625C28.2669 15.0625 28.6875 15.4831 28.6875 16C28.6875 16.5169 28.2669 16.9375 27.75 16.9375C27.2331 16.9375 26.8125 16.5169 26.8125 16C26.8125 15.4831 27.2331 15.0625 27.75 15.0625ZM30.625 3.75H28.75V1.875H30.625V3.75Z" fill="#667085"/>
<path d="M24.78 19.2299L17.28 7.98C17.2797 7.97963 17.2794 7.97925 17.2792 7.97881C17.2765 7.97481 17.2736 7.971 17.2708 7.96706C17.2579 7.94838 17.2444 7.93038 17.2302 7.91281C16.8352 7.42194 16.0829 7.45506 15.7292 7.96706C15.7264 7.971 15.7235 7.97481 15.7208 7.97881C15.7206 7.97925 15.7202 7.97956 15.72 7.98L8.21999 19.23C7.97206 19.6018 8.02112 20.0969 8.33712 20.4129C10.2076 22.2834 11.3981 24.7284 11.7224 27.3443C11.5768 27.4619 11.4362 27.5879 11.303 27.7243C10.4224 28.6251 9.93749 29.8106 9.93749 31.0625C9.93749 31.5803 10.3572 32 10.875 32H22.125C22.6427 32 23.0625 31.5803 23.0625 31.0625C23.0625 29.8106 22.5776 28.6251 21.6971 27.7243C21.5637 27.5879 21.4232 27.4619 21.2776 27.3442C21.6019 24.7282 22.7924 22.2832 24.6628 20.4129C24.9789 20.0969 25.0279 19.6018 24.78 19.2299ZM16.5 18.8125C17.0169 18.8125 17.4375 19.2331 17.4375 19.75C17.4375 20.2669 17.0169 20.6875 16.5 20.6875C15.9831 20.6875 15.5625 20.2669 15.5625 19.75C15.5625 19.2331 15.9831 18.8125 16.5 18.8125ZM11.9724 30.125C12.3624 29.0104 13.4198 28.1875 14.625 28.1875H18.375C19.5802 28.1875 20.6376 29.0104 21.0276 30.125H11.9724ZM19.5153 26.4552C19.1466 26.3611 18.7643 26.3125 18.375 26.3125H14.625C14.2357 26.3125 13.8534 26.3611 13.4847 26.4553C13.0459 23.9284 11.9065 21.5664 10.1941 19.6491L15.5625 11.5964V17.0988C14.4713 17.4858 13.6875 18.5279 13.6875 19.7501C13.6875 21.3009 14.9492 22.5626 16.5 22.5626C18.0508 22.5626 19.3125 21.3009 19.3125 19.7501C19.3125 18.5279 18.5287 17.4858 17.4375 17.0988V11.5964L22.806 19.6491C21.0935 21.5663 19.954 23.9283 19.5153 26.4552Z" fill="#667085"/>
</g>
<defs>
<clipPath id="clip0_1185_6012">
<rect width="32" height="32" fill="white" transform="translate(0.5)"/>
</clipPath>
</defs>
</svg>
