<svg width="33" height="32" viewBox="0 0 33 32" fill="none" xmlns="http://www.w3.org/2000/svg">
<path d="M10.875 9.3933H7.125C6.60718 9.3933 6.1875 9.81395 6.1875 10.3327V14.0901C6.1875 14.6086 6.60718 15.0293 7.125 15.0293H10.875C11.3928 15.0293 11.8125 14.6086 11.8125 14.0901V10.3327C11.8125 9.81395 11.3928 9.3933 10.875 9.3933ZM9.9375 13.1506H8.0625V11.272H9.9375V13.1506Z" fill="#667085"/>
<path d="M10.875 16.9079H7.125C6.60718 16.9079 6.1875 17.3286 6.1875 17.8474V21.6047C6.1875 22.1233 6.60718 22.5439 7.125 22.5439H10.875C11.3928 22.5439 11.8125 22.1233 11.8125 21.6047V17.8474C11.8125 17.3286 11.3928 16.9079 10.875 16.9079ZM9.9375 20.6653H8.0625V18.7866H9.9375V20.6653Z" fill="#667085"/>
<path d="M18.375 9.3933H14.625C14.1072 9.3933 13.6875 9.81395 13.6875 10.3327V14.0901C13.6875 14.6086 14.1072 15.0293 14.625 15.0293H18.375C18.8928 15.0293 19.3125 14.6086 19.3125 14.0901V10.3327C19.3125 9.81395 18.8928 9.3933 18.375 9.3933ZM17.4375 13.1506H15.5625V11.272H17.4375V13.1506Z" fill="#667085"/>
<path d="M30.0937 24.8627L29.2236 24.3593C28.5991 23.998 28.5974 23.0947 29.2236 22.7324L30.0937 22.229C30.5422 21.9697 30.6957 21.3952 30.437 20.946L28.562 17.6919C28.3029 17.2426 27.7297 17.0886 27.2812 17.3481L26.4111 17.8515C25.7851 18.2136 25.0048 17.761 25.0048 17.0381V16.0312C25.0048 15.5124 24.5852 15.092 24.0673 15.092H23.0625V3.44433C23.0625 1.54516 21.5205 0 19.625 0H5.87499C3.97949 0 2.4375 1.54516 2.4375 3.44433V28.5559C2.4375 30.455 3.97949 31.9999 5.87499 31.9999H24.0673C24.5852 31.9999 25.0048 31.5795 25.0048 31.0607V30.0539C25.0048 29.3315 25.7851 28.8781 26.4111 29.2404L27.2812 29.7438C27.7294 30.0031 28.3029 29.8491 28.562 29.3998L30.437 26.1459C30.6957 25.6967 30.5422 25.1223 30.0937 24.8627V24.8627ZM20.3173 15.092C19.7995 15.092 19.3799 15.5124 19.3799 16.0312V17.0381C19.3799 17.7607 18.5996 18.2138 17.9736 17.8515L17.1035 17.3481C16.655 17.0886 16.0815 17.2429 15.8227 17.6921L13.9477 20.946C13.6889 21.3952 13.8425 21.9697 14.291 22.229L15.1611 22.7326C15.7856 23.0939 15.7871 23.9973 15.1611 24.3596L15.0517 24.4228H4.3125V7.51463H21.1875V15.092H20.3173ZM5.87499 1.87866H19.625C20.4865 1.87866 21.1875 2.58105 21.1875 3.44433V5.63598H4.3125V3.44433C4.3125 2.58105 5.01342 1.87866 5.87499 1.87866ZM4.3125 28.5556V26.3012H14.0373L15.8227 29.3998C16.0818 29.8493 16.655 30.0031 17.1035 29.7436L17.9736 29.2404C18.5429 28.9111 19.3799 29.2348 19.3799 30.1213H5.87499C5.01342 30.1213 4.3125 29.4189 4.3125 28.5556ZM28.3442 26.0202L27.4067 27.6472C25.4655 26.5249 23.1298 27.8339 23.1298 30.1213C22.3112 30.1213 21.861 30.1213 21.2548 30.1213C21.2548 27.8342 18.9209 26.5239 16.9778 27.6472L16.0403 26.0202C17.999 24.8857 18.0009 22.2072 16.0403 21.0717L16.9778 19.4448C18.9189 20.5671 21.2548 19.258 21.2548 16.9707H23.1298C23.1298 19.2212 25.4321 20.5864 27.4067 19.4448L28.3442 21.0717C26.413 22.1904 26.3576 24.8696 28.3442 26.0202Z" fill="#667085"/>
<path d="M22.1914 20.728C20.6406 20.728 19.3789 21.9921 19.3789 23.5459C19.3789 25.0998 20.6406 26.364 22.1914 26.364C23.7422 26.364 25.0039 25.0998 25.0039 23.5459C25.0039 21.9921 23.7422 20.728 22.1914 20.728ZM22.1914 24.4853C21.6743 24.4853 21.2539 24.0639 21.2539 23.5459C21.2539 23.028 21.6743 22.6066 22.1914 22.6066C22.7083 22.6066 23.1289 23.028 23.1289 23.5459C23.1289 24.0639 22.7083 24.4853 22.1914 24.4853Z" fill="#667085"/>
</svg>
