<svg width="48" height="48" viewBox="0 0 48 48" fill="none" xmlns="http://www.w3.org/2000/svg">
<path d="M15.5625 14.09H9.9375C9.16077 14.09 8.53125 14.7209 8.53125 15.4991V21.1351C8.53125 21.913 9.16077 22.5439 9.9375 22.5439H15.5625C16.3392 22.5439 16.9688 21.913 16.9688 21.1351V15.4991C16.9688 14.7209 16.3392 14.09 15.5625 14.09ZM14.1562 19.726H11.3438V16.908H14.1562V19.726Z" fill="#069A8E"/>
<path d="M15.5625 25.3619H9.9375C9.16077 25.3619 8.53125 25.9929 8.53125 26.7711V32.4071C8.53125 33.1849 9.16077 33.8159 9.9375 33.8159H15.5625C16.3392 33.8159 16.9688 33.1849 16.9688 32.4071V26.7711C16.9688 25.9929 16.3392 25.3619 15.5625 25.3619ZM14.1562 30.9979H11.3438V28.1799H14.1562V30.9979Z" fill="#069A8E"/>
<path d="M26.8125 14.09H21.1875C20.4108 14.09 19.7812 14.7209 19.7812 15.4991V21.1351C19.7812 21.913 20.4108 22.5439 21.1875 22.5439H26.8125C27.5892 22.5439 28.2188 21.913 28.2188 21.1351V15.4991C28.2188 14.7209 27.5892 14.09 26.8125 14.09ZM25.4062 19.726H22.5938V16.908H25.4062V19.726Z" fill="#069A8E"/>
<path d="M44.3905 37.2941L43.0854 36.539C42.1486 35.997 42.146 34.642 43.0854 34.0986L44.3905 33.3434C45.0633 32.9545 45.2936 32.0928 44.9054 31.419L42.0929 26.5378C41.7044 25.864 40.8445 25.6329 40.1718 26.0222L38.8666 26.7773C37.9277 27.3204 36.7573 26.6414 36.7573 25.5571V24.0468C36.7573 23.2686 36.1277 22.638 35.351 22.638H33.8437V5.16649C33.8437 2.31774 31.5307 0 28.6875 0H8.06249C5.21923 0 2.90625 2.31774 2.90625 5.16649V42.8338C2.90625 45.6825 5.21923 47.9999 8.06249 47.9999H35.351C36.1277 47.9999 36.7573 47.3693 36.7573 46.5911V45.0808C36.7573 43.9972 37.9277 43.3172 38.8666 43.8606L40.1718 44.6158C40.8442 45.0047 41.7044 44.7736 42.0929 44.0998L44.9054 39.2189C45.2936 38.5451 45.0633 37.6834 44.3905 37.2941ZM29.726 22.638C28.9493 22.638 28.3198 23.2686 28.3198 24.0468V25.5571C28.3198 26.6411 27.1494 27.3207 26.2104 26.7773L24.9052 26.0222C24.2325 25.6329 23.3723 25.8643 22.9841 26.5382L20.1716 31.419C19.7834 32.0928 20.0138 32.9545 20.6865 33.3434L21.9917 34.0989C22.9284 34.6409 22.9306 35.9959 21.9917 36.5394L21.8276 36.6342H5.71874V11.272H31.0312V22.638H29.726ZM8.06249 2.81799H28.6875C29.9798 2.81799 31.0312 3.87157 31.0312 5.16649V8.45396H5.71874V5.16649C5.71874 3.87157 6.77013 2.81799 8.06249 2.81799ZM5.71874 42.8334V39.4518H20.306L22.9841 44.0998C23.3726 44.774 24.2325 45.0047 24.9052 44.6154L26.2104 43.8606C27.0644 43.3666 28.3198 43.8522 28.3198 45.1819H8.06249C6.77013 45.1819 5.71874 44.1283 5.71874 42.8334ZM41.7663 39.0303L40.36 41.4707C37.4483 39.7873 33.9448 41.7509 33.9448 45.1819C32.7169 45.1819 32.0416 45.1819 31.1323 45.1819C31.1323 41.7513 27.6313 39.7858 24.7166 41.4707L23.3104 39.0303C26.2485 37.3285 26.2514 33.3108 23.3104 31.6076L24.7166 29.1672C27.6284 30.8506 31.1323 28.887 31.1323 25.456H33.9448C33.9448 28.8317 37.3981 30.8796 40.36 29.1672L41.7663 31.6076C38.8696 33.2856 38.7864 37.3044 41.7663 39.0303Z" fill="#069A8E"/>
<path d="M32.5386 31.092C30.2124 31.092 28.3198 32.9883 28.3198 35.3188C28.3198 37.6498 30.2124 39.546 32.5386 39.546C34.8647 39.546 36.7573 37.6498 36.7573 35.3188C36.7573 32.9883 34.8647 31.092 32.5386 31.092ZM32.5386 36.728C31.7629 36.728 31.1323 36.0959 31.1323 35.3188C31.1323 34.5421 31.7629 33.91 32.5386 33.91C33.3138 33.91 33.9448 34.5421 33.9448 35.3188C33.9448 36.0959 33.3138 36.728 32.5386 36.728Z" fill="#069A8E"/>
</svg>
