<svg width="24" height="24" viewBox="0 0 24 24" fill="none" xmlns="http://www.w3.org/2000/svg">
<path d="M12.0019 16.33C9.61187 16.33 7.67188 14.39 7.67188 12C7.67188 9.61001 9.61187 7.67001 12.0019 7.67001C14.3919 7.67001 16.3319 9.61001 16.3319 12C16.3319 14.39 14.3919 16.33 12.0019 16.33ZM12.0019 9.17001C10.4419 9.17001 9.17188 10.44 9.17188 12C9.17188 13.56 10.4419 14.83 12.0019 14.83C13.5619 14.83 14.8319 13.56 14.8319 12C14.8319 10.44 13.5619 9.17001 12.0019 9.17001Z" fill="#667085"/>
<path d="M11.9981 21.02C8.23812 21.02 4.68813 18.82 2.24812 15C1.18813 13.35 1.18813 10.66 2.24812 9.00001C4.69812 5.18001 8.24813 2.98001 11.9981 2.98001C15.7481 2.98001 19.2981 5.18001 21.7381 9.00001C22.7981 10.65 22.7981 13.34 21.7381 15C19.2981 18.82 15.7481 21.02 11.9981 21.02ZM11.9981 4.48001C8.76813 4.48001 5.67813 6.42001 3.51813 9.81001C2.76813 10.98 2.76813 13.02 3.51813 14.19C5.67813 17.58 8.76813 19.52 11.9981 19.52C15.2281 19.52 18.3181 17.58 20.4781 14.19C21.2281 13.02 21.2281 10.98 20.4781 9.81001C18.3181 6.42001 15.2281 4.48001 11.9981 4.48001Z" fill="#667085"/>
</svg>
