<svg width="24" height="24" viewBox="0 0 24 24" fill="none" xmlns="http://www.w3.org/2000/svg">
<path d="M17 21.75H7C2.59 21.75 1.25 20.41 1.25 16V8C1.25 3.59 2.59 2.25 7 2.25H17C21.41 2.25 22.75 3.59 22.75 8V16C22.75 20.41 21.41 21.75 17 21.75ZM7 3.75C3.42 3.75 2.75 4.43 2.75 8V16C2.75 19.57 3.42 20.25 7 20.25H17C20.58 20.25 21.25 19.57 21.25 16V8C21.25 4.43 20.58 3.75 17 3.75H7Z" fill="#667085"/>
<path d="M19 8.75H14C13.59 8.75 13.25 8.41 13.25 8C13.25 7.59 13.59 7.25 14 7.25H19C19.41 7.25 19.75 7.59 19.75 8C19.75 8.41 19.41 8.75 19 8.75Z" fill="#667085"/>
<path d="M19 12.75H15C14.59 12.75 14.25 12.41 14.25 12C14.25 11.59 14.59 11.25 15 11.25H19C19.41 11.25 19.75 11.59 19.75 12C19.75 12.41 19.41 12.75 19 12.75Z" fill="#667085"/>
<path d="M19 16.75H17C16.59 16.75 16.25 16.41 16.25 16C16.25 15.59 16.59 15.25 17 15.25H19C19.41 15.25 19.75 15.59 19.75 16C19.75 16.41 19.41 16.75 19 16.75Z" fill="#667085"/>
<path d="M8.4975 12.04C7.0875 12.04 5.9375 10.89 5.9375 9.48C5.9375 8.07 7.0875 6.92 8.4975 6.92C9.9075 6.92 11.0575 8.07 11.0575 9.48C11.0575 10.89 9.9075 12.04 8.4975 12.04ZM8.4975 8.42C7.9175 8.42 7.4375 8.9 7.4375 9.48C7.4375 10.06 7.9175 10.54 8.4975 10.54C9.0775 10.54 9.5575 10.06 9.5575 9.48C9.5575 8.9 9.0775 8.42 8.4975 8.42Z" fill="#667085"/>
<path d="M11.998 17.08C11.618 17.08 11.288 16.79 11.248 16.4C11.138 15.32 10.268 14.45 9.17795 14.35C8.71795 14.31 8.25795 14.31 7.79795 14.35C6.70795 14.45 5.83795 15.31 5.72795 16.4C5.68795 16.81 5.31795 17.12 4.90795 17.07C4.49795 17.03 4.19795 16.66 4.23795 16.25C4.41795 14.45 5.84795 13.02 7.65795 12.86C8.20795 12.81 8.76795 12.81 9.31795 12.86C11.118 13.03 12.558 14.46 12.738 16.25C12.778 16.66 12.478 17.03 12.068 17.07C12.048 17.08 12.018 17.08 11.998 17.08Z" fill="#667085"/>
</svg>
