<svg width="28" height="28" viewBox="0 0 28 28" fill="none" xmlns="http://www.w3.org/2000/svg">
<path d="M18.9219 15.6406C18.9219 12.9268 16.7139 10.7188 14 10.7188C11.2861 10.7188 9.07812 12.9268 9.07812 15.6406C9.07812 18.3545 11.2861 20.5625 14 20.5625C16.7139 20.5625 18.9219 18.3545 18.9219 15.6406ZM14 18.9219C12.1908 18.9219 10.7188 17.4498 10.7188 15.6406C10.7188 13.8312 12.1908 12.3594 14 12.3594C15.8094 12.3594 17.2812 13.8312 17.2812 15.6406C17.2812 17.4498 15.8094 18.9219 14 18.9219Z" fill="#035397"/>
<path d="M8.25781 18.1016C8.25781 16.2922 6.78595 14.8203 4.97656 14.8203C3.16739 14.8203 1.69531 16.2922 1.69531 18.1016C1.69531 19.9107 3.16739 21.3828 4.97656 21.3828C6.78595 21.3828 8.25781 19.9107 8.25781 18.1016ZM4.97656 19.7422C4.07187 19.7422 3.33594 19.0063 3.33594 18.1016C3.33594 17.1969 4.07187 16.4609 4.97656 16.4609C5.88126 16.4609 6.61719 17.1969 6.61719 18.1016C6.61719 19.0063 5.88126 19.7422 4.97656 19.7422Z" fill="#035397"/>
<path d="M26.3047 18.1016C26.3047 16.2922 24.8328 14.8203 23.0234 14.8203C21.2143 14.8203 19.7422 16.2922 19.7422 18.1016C19.7422 19.9107 21.2143 21.3828 23.0234 21.3828C24.8328 21.3828 26.3047 19.9107 26.3047 18.1016ZM23.0234 19.7422C22.1187 19.7422 21.3828 19.0063 21.3828 18.1016C21.3828 17.1969 22.1187 16.4609 23.0234 16.4609C23.9281 16.4609 24.6641 17.1969 24.6641 18.1016C24.6641 19.0063 23.9281 19.7422 23.0234 19.7422Z" fill="#035397"/>
<path d="M23.0234 21.3828C21.6415 21.3828 20.3384 21.9662 19.4175 22.9553C18.0599 21.4777 16.1221 20.5625 14 20.5625C11.8779 20.5625 9.94009 21.4777 8.58252 22.9553C7.6618 21.9662 6.35849 21.3828 4.97656 21.3828C2.26077 21.3828 0 23.6333 0 26.3594V27.1797C0 27.6326 0.367432 28 0.820312 28H7.48685H7.48941H7.49112H27.1797C27.6328 28 28 27.6326 28 27.1797V26.3594C28 23.6436 25.7495 21.3828 23.0234 21.3828ZM14 22.2031C16.5716 22.2031 18.7961 23.935 19.5066 26.3594H8.49344C9.20395 23.935 11.4284 22.2031 14 22.2031ZM4.97656 23.0234C6.00729 23.0234 6.97244 23.5105 7.58853 24.3184C7.23242 24.9454 6.96368 25.6309 6.79984 26.3594H1.64062C1.64062 24.5511 3.16824 23.0234 4.97656 23.0234ZM21.2002 26.3594C21.0363 25.6309 20.7676 24.9454 20.4115 24.3184C21.0276 23.5105 21.9927 23.0234 23.0234 23.0234C24.8318 23.0234 26.3594 24.5511 26.3594 26.3594H21.2002Z" fill="#035397"/>
<path d="M18.0625 2.95248C17.9666 2.65298 17.7079 2.43466 17.3964 2.39044L15.5586 2.12961L14.7362 0.458221C14.5979 0.177734 14.3125 0 14 0C13.6875 0 13.4021 0.177734 13.2641 0.458221L12.4414 2.12961L10.6036 2.39044C10.2922 2.43466 10.0335 2.65298 9.93755 2.95248C9.84163 3.25198 9.92537 3.5799 10.1533 3.79672L11.4754 5.05518L11.1642 6.82675C11.1103 7.13351 11.2347 7.44434 11.4852 7.62912C11.7365 7.81433 12.0701 7.84061 12.3466 7.69855L14 6.84982L15.6532 7.69855C15.9303 7.84082 16.264 7.8139 16.5146 7.62912C16.7652 7.44434 16.8897 7.13351 16.8359 6.82697L16.5246 5.05518L17.8467 3.79694C18.0747 3.5799 18.1584 3.25198 18.0625 2.95248ZM15.0752 4.16971C14.8761 4.35898 14.7853 4.63541 14.8327 4.90585L14.9344 5.48541L14.3747 5.19788C14.257 5.13763 14.1286 5.10751 14 5.10751C13.8714 5.10751 13.743 5.13763 13.6253 5.19788L13.0654 5.48541L13.1673 4.90585C13.2147 4.63541 13.1237 4.35898 12.9249 4.16971L12.5119 3.77664L13.1013 3.69312C13.3698 3.65488 13.6023 3.48654 13.7221 3.24301L14 2.67819L14.2779 3.24301C14.3976 3.48633 14.63 3.65488 14.8987 3.69312L15.4881 3.77664L15.0752 4.16971Z" fill="#035397"/>
<path d="M27.9626 6.23886C27.8678 5.93594 27.6067 5.71484 27.2923 5.67126L25.396 5.40851L24.5759 3.78625C24.4364 3.51004 24.1531 3.33594 23.8438 3.33594C23.5344 3.33594 23.2512 3.51004 23.1117 3.78625L22.2907 5.41022L20.4474 5.67169C20.1359 5.71591 19.8772 5.93423 19.7813 6.23373C19.6854 6.53323 19.7691 6.86115 19.9971 7.07797L21.3192 8.33643L21.0079 10.108C20.9541 10.4148 21.0784 10.7256 21.329 10.9104C21.5796 11.0952 21.9135 11.1221 22.1903 10.9798L23.8438 10.1311L25.497 10.9798C25.7741 11.1221 26.1077 11.0952 26.3583 10.9104C26.6089 10.7256 26.7334 10.4148 26.6796 10.1082L26.3699 8.34497L27.7353 7.08716C27.9688 6.87204 28.0573 6.54178 27.9626 6.23886ZM24.9288 7.44177C24.7233 7.63104 24.6282 7.91196 24.6765 8.1871L24.7784 8.76666L24.2185 8.47913C24.1008 8.41888 23.9724 8.38876 23.8438 8.38876C23.7152 8.38876 23.5868 8.41888 23.4691 8.47913L22.9094 8.76666L23.0111 8.1871C23.0585 7.91666 22.9675 7.64023 22.7686 7.45096L22.3557 7.05789L22.9448 6.97437C23.2104 6.93655 23.4409 6.77164 23.5618 6.53217L23.8438 5.97461L24.1255 6.53217C24.2469 6.77249 24.4784 6.93784 24.745 6.97479L25.3455 7.05789L24.9288 7.44177Z" fill="#035397"/>
<path d="M8.21871 6.23373C8.12279 5.93423 7.86409 5.71591 7.55263 5.67169L5.70928 5.41022L4.88833 3.78625C4.74883 3.51004 4.46578 3.33594 4.15624 3.33594C3.84691 3.33594 3.56386 3.51004 3.42415 3.78625L2.60405 5.40851L0.707723 5.67126C0.393269 5.71484 0.132222 5.93573 0.0373735 6.23886C-0.0572615 6.54178 0.0311784 6.87225 0.264668 7.08716L1.63015 8.34497L1.32039 10.108C1.26656 10.4148 1.39089 10.7256 1.64168 10.9104C1.89269 11.0954 2.22637 11.1219 2.50301 10.9798L4.15624 10.1311L5.80947 10.9798C6.08654 11.1221 6.42022 11.0952 6.6708 10.9104C6.92159 10.7256 7.04592 10.4148 6.99209 10.108L6.68084 8.33643L8.00295 7.07797C8.23089 6.86115 8.31463 6.53323 8.21871 6.23373ZM5.2314 7.45096C5.03231 7.64023 4.94152 7.91666 4.98894 8.1871L5.09063 8.76666L4.53093 8.47913C4.41323 8.41888 4.28484 8.38876 4.15624 8.38876C4.02764 8.38876 3.89925 8.41888 3.78154 8.47913L3.22164 8.76666L3.32354 8.1871C3.37182 7.91196 3.27675 7.63104 3.07125 7.44177L2.65447 7.05789L3.25475 6.97458C3.52135 6.93784 3.75292 6.77228 3.87447 6.53217L4.15624 5.97461L4.43822 6.53217C4.55913 6.77164 4.78942 6.93655 5.05495 6.97437L5.64434 7.05789L5.2314 7.45096Z" fill="#035397"/>
</svg>
