<svg width="28" height="28" viewBox="0 0 28 28" fill="none" xmlns="http://www.w3.org/2000/svg">
<path d="M27.2766 8.81163C26.3172 7.85209 24.7559 7.85214 23.7961 8.81185C23.5009 9.10733 21.6161 10.9937 21.3281 11.2819V4.78111C21.3281 4.12377 21.0721 3.5058 20.6073 3.04101L18.2872 0.720781C17.8224 0.255938 17.2044 0 16.547 0H2.46094C1.10398 0 0 1.10398 0 2.46094V25.5391C0 26.896 1.10398 28 2.46094 28H18.8672C20.2241 28 21.3281 26.896 21.3281 25.5391V18.2454L27.2766 12.2919C28.2384 11.3302 28.2386 9.77348 27.2766 8.81163ZM16.4063 1.64062C16.5613 1.64062 16.8599 1.61377 17.1271 1.88087L19.4473 4.20109C19.7076 4.46146 19.6876 4.74677 19.6876 4.92188H16.4063V1.64062ZM19.6875 25.5391C19.6875 25.9914 19.3196 26.3594 18.8672 26.3594H2.46094C2.00862 26.3594 1.64062 25.9914 1.64062 25.5391V2.46094C1.64062 2.00862 2.00862 1.64062 2.46094 1.64062H14.7656V5.74219C14.7656 6.19522 15.1329 6.5625 15.5859 6.5625H19.6875V12.9239C19.6875 12.9239 17.2674 15.3461 17.2673 15.3462L16.1077 16.5058C16.0177 16.5958 15.9498 16.7056 15.9095 16.8264L14.7494 20.3067C14.6511 20.6015 14.7278 20.9265 14.9476 21.1462C15.1676 21.3662 15.4927 21.4425 15.787 21.3444L19.2673 20.1843C19.3881 20.144 19.498 20.0762 19.588 19.9861L19.6875 19.8866V25.5391ZM17.8478 17.0859L19.0079 18.2459L18.5648 18.6891L16.8247 19.2691L17.4047 17.5289L17.8478 17.0859ZM20.1678 17.0856L19.0077 15.9255C19.6254 15.3073 22.369 12.5613 22.9509 11.9789L24.111 13.139L20.1678 17.0856ZM26.1163 11.1321L25.2707 11.9784L24.1106 10.8183L24.9565 9.97172C25.2765 9.65185 25.7968 9.65191 26.1166 9.97172C26.4364 10.2916 26.4381 10.8102 26.1163 11.1321Z" fill="#6176F6"/>
<path d="M15.5859 8.20312H4.10156C3.64853 8.20312 3.28125 8.57041 3.28125 9.02344C3.28125 9.47647 3.64853 9.84375 4.10156 9.84375H15.5859C16.039 9.84375 16.4062 9.47647 16.4062 9.02344C16.4062 8.57041 16.039 8.20312 15.5859 8.20312Z" fill="#6176F6"/>
<path d="M12.3047 11.4844H4.10156C3.64853 11.4844 3.28125 11.8517 3.28125 12.3047C3.28125 12.7577 3.64853 13.125 4.10156 13.125H12.3047C12.7577 13.125 13.125 12.7577 13.125 12.3047C13.125 11.8517 12.7577 11.4844 12.3047 11.4844Z" fill="#6176F6"/>
<path d="M12.3047 14.7656H4.10156C3.64853 14.7656 3.28125 15.1329 3.28125 15.5859C3.28125 16.039 3.64853 16.4062 4.10156 16.4062H12.3047C12.7577 16.4062 13.125 16.039 13.125 15.5859C13.125 15.1329 12.7577 14.7656 12.3047 14.7656Z" fill="#6176F6"/>
<path d="M12.3047 18.0469H4.10156C3.64853 18.0469 3.28125 18.4142 3.28125 18.8672C3.28125 19.3202 3.64853 19.6875 4.10156 19.6875H12.3047C12.7577 19.6875 13.125 19.3202 13.125 18.8672C13.125 18.4142 12.7577 18.0469 12.3047 18.0469Z" fill="#6176F6"/>
<path d="M15.5859 23.0781H10.6641C10.211 23.0781 9.84375 23.4454 9.84375 23.8984C9.84375 24.3515 10.211 24.7188 10.6641 24.7188H15.5859C16.039 24.7188 16.4062 24.3515 16.4062 23.8984C16.4062 23.4454 16.039 23.0781 15.5859 23.0781Z" fill="#6176F6"/>
</svg>
