<svg width="20" height="20" viewBox="0 0 20 20" fill="none" xmlns="http://www.w3.org/2000/svg">
<path d="M14.6836 8.0166H10.3086C9.96693 8.0166 9.68359 7.73327 9.68359 7.3916C9.68359 7.04993 9.96693 6.7666 10.3086 6.7666H14.6836C15.0253 6.7666 15.3086 7.04993 15.3086 7.3916C15.3086 7.73327 15.0336 8.0166 14.6836 8.0166Z" fill="#475467"/>
<path d="M5.93151 8.65002C5.77318 8.65002 5.61484 8.59168 5.48984 8.46668L4.86484 7.84168C4.62318 7.60002 4.62318 7.20002 4.86484 6.95835C5.10651 6.71668 5.50651 6.71668 5.74818 6.95835L5.93151 7.14168L7.36484 5.70835C7.60651 5.46668 8.00651 5.46668 8.24818 5.70835C8.48984 5.95002 8.48984 6.35002 8.24818 6.59168L6.37318 8.46668C6.25651 8.58335 6.09818 8.65002 5.93151 8.65002Z" fill="#475467"/>
<path d="M14.6836 13.8501H10.3086C9.96693 13.8501 9.68359 13.5668 9.68359 13.2251C9.68359 12.8834 9.96693 12.6001 10.3086 12.6001H14.6836C15.0253 12.6001 15.3086 12.8834 15.3086 13.2251C15.3086 13.5668 15.0336 13.8501 14.6836 13.8501Z" fill="#475467"/>
<path d="M5.93151 14.4833C5.77318 14.4833 5.61484 14.4249 5.48984 14.2999L4.86484 13.6749C4.62318 13.4333 4.62318 13.0333 4.86484 12.7916C5.10651 12.5499 5.50651 12.5499 5.74818 12.7916L5.93151 12.9749L7.36484 11.5416C7.60651 11.2999 8.00651 11.2999 8.24818 11.5416C8.48984 11.7833 8.48984 12.1833 8.24818 12.4249L6.37318 14.2999C6.25651 14.4166 6.09818 14.4833 5.93151 14.4833Z" fill="#475467"/>
<path d="M12.5013 18.9584H7.5013C2.9763 18.9584 1.04297 17.0251 1.04297 12.5001V7.50008C1.04297 2.97508 2.9763 1.04175 7.5013 1.04175H12.5013C17.0263 1.04175 18.9596 2.97508 18.9596 7.50008V12.5001C18.9596 17.0251 17.0263 18.9584 12.5013 18.9584ZM7.5013 2.29175C3.65964 2.29175 2.29297 3.65841 2.29297 7.50008V12.5001C2.29297 16.3417 3.65964 17.7084 7.5013 17.7084H12.5013C16.343 17.7084 17.7096 16.3417 17.7096 12.5001V7.50008C17.7096 3.65841 16.343 2.29175 12.5013 2.29175H7.5013Z" fill="#475467"/>
</svg>
