<svg width="32" height="32" viewBox="0 0 32 32" fill="none" xmlns="http://www.w3.org/2000/svg">
<path d="M22.2522 30.3333H9.74552C4.18552 30.3333 2.49219 28.64 2.49219 23.08V22.4667C2.49219 21.92 2.94552 21.4667 3.49219 21.4667C4.66552 21.4667 5.62552 20.5067 5.62552 19.3333C5.62552 18.16 4.66552 17.2 3.49219 17.2C2.94552 17.2 2.49219 16.7467 2.49219 16.2V15.5867C2.49219 10.0267 4.18552 8.33333 9.74552 8.33333H22.2522C27.8122 8.33333 29.5055 10.0267 29.5055 15.5867V16.84C29.5055 17.3867 29.0522 17.84 28.5055 17.84C27.3322 17.84 26.3722 18.8 26.3722 19.9733C26.3722 21.1467 27.3322 22.0933 28.5055 22.0933C29.0522 22.0933 29.5055 22.5467 29.5055 23.0933C29.4922 28.64 27.7989 30.3333 22.2522 30.3333ZM4.50552 23.3467C4.53219 27.5867 5.37219 28.3333 9.75885 28.3333H22.2655C26.4255 28.3333 27.3855 27.6533 27.5055 23.96C25.7189 23.5067 24.3855 21.8933 24.3855 19.96C24.3855 18.0267 25.7189 16.4 27.5189 15.9467V15.5733C27.5189 11.1067 26.7322 10.32 22.2655 10.32H9.74552C5.37219 10.32 4.53219 11.08 4.49219 15.3067C6.29219 15.76 7.62552 17.3867 7.62552 19.32C7.62552 21.2533 6.29219 22.8933 4.50552 23.3467Z" fill="#6176F6"/>
<path d="M13.3359 13.6667C12.7893 13.6667 12.3359 13.2133 12.3359 12.6667V9.33333C12.3359 8.78667 12.7893 8.33333 13.3359 8.33333C13.8826 8.33333 14.3359 8.78667 14.3359 9.33333V12.6667C14.3359 13.2133 13.8826 13.6667 13.3359 13.6667Z" fill="#6176F6"/>
<path d="M13.3359 22.56C12.7893 22.56 12.3359 22.1067 12.3359 21.56V17.12C12.3359 16.5733 12.7893 16.12 13.3359 16.12C13.8826 16.12 14.3359 16.5733 14.3359 17.12V21.56C14.3359 22.1067 13.8826 22.56 13.3359 22.56Z" fill="#6176F6"/>
<path d="M13.3359 30.3333C12.7893 30.3333 12.3359 29.88 12.3359 29.3333V26C12.3359 25.4533 12.7893 25 13.3359 25C13.8826 25 14.3359 25.4533 14.3359 26V29.3333C14.3359 29.88 13.8826 30.3333 13.3359 30.3333Z" fill="#6176F6"/>
<path d="M21.7762 10.3333H9.65617C9.25617 10.3333 8.88284 10.0933 8.73617 9.72C8.5895 9.34667 8.6695 8.90667 8.9495 8.62667L12.8562 4.72C16.4562 1.12 18.6562 1.12 22.2428 4.72L23.0428 5.52C23.2295 5.70667 23.3362 5.96 23.3362 6.22667C23.3362 6.49333 23.2295 6.74667 23.0428 6.93333C22.5095 7.46667 22.3628 8.25333 22.6695 8.93333C22.8162 9.24 22.7895 9.6 22.6028 9.89333C22.4295 10.16 22.1095 10.3333 21.7762 10.3333ZM12.0695 8.33333H20.5095C20.4828 7.62667 20.6562 6.92 21.0162 6.30667L20.8428 6.13333C18.0562 3.34667 17.0695 3.34667 14.2828 6.13333L12.0695 8.33333Z" fill="#6176F6"/>
</svg>
