<svg width="28" height="28" viewBox="0 0 28 28" fill="none" xmlns="http://www.w3.org/2000/svg">
<path d="M15.2237 18.9583H13.0304C11.4787 18.9583 10.207 17.6516 10.207 16.0416C10.207 15.5633 10.6037 15.1666 11.082 15.1666C11.5604 15.1666 11.957 15.5633 11.957 16.0416C11.957 16.6833 12.4354 17.2083 13.0304 17.2083H15.2237C15.6787 17.2083 16.0404 16.8 16.0404 16.2983C16.0404 15.6683 15.8654 15.575 15.4687 15.435L11.957 14.21C11.2104 13.9533 10.207 13.405 10.207 11.69C10.207 10.2316 11.362 9.02997 12.7737 9.02997H14.967C16.5187 9.02997 17.7904 10.3366 17.7904 11.9466C17.7904 12.425 17.3937 12.8216 16.9154 12.8216C16.437 12.8216 16.0404 12.425 16.0404 11.9466C16.0404 11.305 15.562 10.78 14.967 10.78H12.7737C12.3187 10.78 11.957 11.1883 11.957 11.69C11.957 12.32 12.132 12.4133 12.5287 12.5533L16.0404 13.7783C16.787 14.035 17.7904 14.5833 17.7904 16.2983C17.7904 17.7683 16.6354 18.9583 15.2237 18.9583Z" fill="#6176F6"/>
<path d="M14 20.125C13.5217 20.125 13.125 19.7283 13.125 19.25V8.75C13.125 8.27167 13.5217 7.875 14 7.875C14.4783 7.875 14.875 8.27167 14.875 8.75V19.25C14.875 19.7283 14.4783 20.125 14 20.125Z" fill="#6176F6"/>
<path d="M13.9987 26.5416C7.08036 26.5416 1.45703 20.9183 1.45703 14C1.45703 7.08165 7.08036 1.45831 13.9987 1.45831C14.477 1.45831 14.8737 1.85498 14.8737 2.33331C14.8737 2.81165 14.477 3.20831 13.9987 3.20831C8.0487 3.20831 3.20703 8.04998 3.20703 14C3.20703 19.95 8.0487 24.7916 13.9987 24.7916C19.9487 24.7916 24.7904 19.95 24.7904 14C24.7904 13.5216 25.187 13.125 25.6654 13.125C26.1437 13.125 26.5404 13.5216 26.5404 14C26.5404 20.9183 20.917 26.5416 13.9987 26.5416Z" fill="#6176F6"/>
<path d="M24.4987 9.04167H19.832C19.3537 9.04167 18.957 8.645 18.957 8.16667V3.5C18.957 3.02167 19.3537 2.625 19.832 2.625C20.3104 2.625 20.707 3.02167 20.707 3.5V7.29167H24.4987C24.977 7.29167 25.3737 7.68833 25.3737 8.16667C25.3737 8.645 24.977 9.04167 24.4987 9.04167Z" fill="#6176F6"/>
<path d="M19.833 9.04166C19.6114 9.04166 19.3897 8.95999 19.2147 8.78499C18.8764 8.44666 18.8764 7.88666 19.2147 7.54833L25.048 1.71499C25.3864 1.37666 25.9464 1.37666 26.2847 1.71499C26.623 2.05333 26.623 2.61332 26.2847 2.95166L20.4514 8.78499C20.2764 8.95999 20.0547 9.04166 19.833 9.04166Z" fill="#6176F6"/>
</svg>
