<svg width="249" height="196" viewBox="0 0 249 196" fill="none" xmlns="http://www.w3.org/2000/svg">
<path d="M248.061 185.061C248.646 184.475 248.646 183.525 248.061 182.939L238.515 173.393C237.929 172.808 236.979 172.808 236.393 173.393C235.808 173.979 235.808 174.929 236.393 175.515L244.879 184L236.393 192.485C235.808 193.071 235.808 194.021 236.393 194.607C236.979 195.192 237.929 195.192 238.515 194.607L248.061 185.061ZM0.813969 8C0.813969 12.4183 4.39569 16 8.81397 16C13.2322 16 16.814 12.4183 16.814 8C16.814 3.58172 13.2322 0 8.81397 0C4.39569 0 0.813969 3.58172 0.813969 8ZM88.1279 55.5676V61.4433H91.1279V55.5676H88.1279ZM47.9361 101.635H33.9919V104.635H47.9361V101.635ZM33.9919 49.1396H108.355V46.1396H33.9919V49.1396ZM244.715 185.5H247V182.5H244.715V185.5ZM8.81397 9.5H42.0603V6.5H8.81397V9.5ZM175.035 115.82C175.035 154.303 206.232 185.5 244.715 185.5V182.5C207.889 182.5 178.035 152.646 178.035 115.82H175.035ZM108.355 49.1396C145.181 49.1396 175.035 78.9934 175.035 115.82H178.035C178.035 77.3365 146.838 46.1396 108.355 46.1396V49.1396ZM7.7442 75.3874C7.7442 60.8912 19.4957 49.1396 33.9919 49.1396V46.1396C17.8389 46.1396 4.7442 59.2343 4.7442 75.3874H7.7442ZM33.9919 101.635C19.4957 101.635 7.7442 89.8836 7.7442 75.3874H4.7442C4.7442 91.5405 17.8388 104.635 33.9919 104.635V101.635ZM88.1279 61.4433C88.1279 83.6406 70.1334 101.635 47.9361 101.635V104.635C71.7903 104.635 91.1279 85.2975 91.1279 61.4433H88.1279ZM91.1279 55.5676C91.1279 28.4683 69.1596 6.5 42.0603 6.5V9.5C67.5028 9.5 88.1279 30.1252 88.1279 55.5676H91.1279Z" fill="#6176F6"/>
</svg>
